<svg width="74" height="42" viewBox="0 0 74 42" fill="none" xmlns="http://www.w3.org/2000/svg">
<path d="M37.0428 42C36.3916 42 35.7947 41.8919 35.252 41.6757C34.7093 41.4595 34.1666 41.0811 33.6239 40.5405L1.38814 8.43243C0.411301 7.45946 -0.0499846 6.2973 0.00428439 4.94595C0.0585533 3.59459 0.574108 2.43243 1.55095 1.45946C2.52779 0.486486 3.69457 0 5.0513 0C6.40802 0 7.5748 0.486486 8.55164 1.45946L37.0428 30L65.6968 1.45946C66.6737 0.486486 67.8133 0.027027 69.1158 0.0810811C70.4182 0.135135 71.5579 0.648649 72.5347 1.62162C73.5116 2.59459 74 3.75676 74 5.10811C74 6.45946 73.5116 7.62162 72.5347 8.59459L40.4618 40.5405C39.9191 41.0811 39.3764 41.4595 38.8337 41.6757C38.291 41.8919 37.6941 42 37.0428 42Z" fill="#090909" fill-opacity="0.51"/>
</svg>
