<svg width="62" height="63" viewBox="0 0 62 63" fill="none" xmlns="http://www.w3.org/2000/svg">
<path d="M5.16667 63C3.74583 63 2.52966 62.4858 1.51814 61.4574C0.506047 60.4295 0 59.1937 0 57.75V5.25C0 3.80625 0.506047 2.57017 1.51814 1.54175C2.52966 0.513916 3.74583 0 5.16667 0H56.8333C58.2542 0 59.4706 0.513916 60.4827 1.54175C61.4942 2.57017 62 3.80625 62 5.25V57.75C62 59.1937 61.4942 60.4295 60.4827 61.4574C59.4706 62.4858 58.2542 63 56.8333 63H5.16667ZM5.16667 57.75H56.8333V12.25H5.16667V57.75ZM16.3611 30.625C15.6292 30.625 15.0158 30.3718 14.5209 29.8655C14.0255 29.3598 13.7778 28.7327 13.7778 27.9843C13.7778 27.2364 14.0255 26.6146 14.5209 26.1187C15.0158 25.6229 15.6292 25.375 16.3611 25.375H44.7778C45.5097 25.375 46.1234 25.6282 46.6188 26.1345C47.1137 26.6402 47.3611 27.2673 47.3611 28.0157C47.3611 28.7636 47.1137 29.3854 46.6188 29.8813C46.1234 30.3771 45.5097 30.625 44.7778 30.625H16.3611ZM16.3611 44.625C15.6292 44.625 15.0158 44.3718 14.5209 43.8655C14.0255 43.3597 13.7778 42.7327 13.7778 41.9842C13.7778 41.2364 14.0255 40.6146 14.5209 40.1187C15.0158 39.6229 15.6292 39.375 16.3611 39.375H31C31.7319 39.375 32.3456 39.6282 32.8411 40.1345C33.3359 40.6402 33.5833 41.2673 33.5833 42.0157C33.5833 42.7636 33.3359 43.3854 32.8411 43.8812C32.3456 44.3771 31.7319 44.625 31 44.625H16.3611Z" fill="#090909"/>
</svg>
