<svg width="48" height="60" viewBox="0 0 48 60" fill="none" xmlns="http://www.w3.org/2000/svg">
<path d="M20.925 33.5939L15 27.6166C14.55 27.1627 14 26.9357 13.35 26.9357C12.7 26.9357 12.15 27.1627 11.7 27.6166C11.25 28.0706 11.025 28.6212 11.025 29.2683C11.025 29.916 11.25 30.4752 11.7 30.9458L19.125 38.512C19.575 38.966 20.1 39.1929 20.7 39.1929C21.3 39.1929 21.825 38.966 22.275 38.512L36.225 24.4388C36.675 23.9813 36.9 23.4383 36.9 22.8098C36.9 22.1808 36.6875 21.6646 36.2625 21.261C35.8375 20.8575 35.3 20.6683 34.65 20.6936C34 20.7188 33.475 20.9332 33.075 21.3367L20.925 33.5939ZM24 60C23.734 60 23.487 59.9748 23.259 59.9243C23.031 59.8739 22.803 59.7982 22.575 59.6973C15.625 57.3266 10.125 53.0769 6.075 46.9483C2.025 40.8197 0 34.0956 0 26.776V11.9546C0 10.9831 0.272 10.109 0.816 9.33216C1.3595 8.55486 2.0625 7.99142 2.925 7.64187L22.425 0.302648C22.975 0.100883 23.5 0 24 0C24.5 0 25.025 0.100883 25.575 0.302648L45.075 7.64187C45.9375 7.99142 46.6408 8.55486 47.1848 9.33216C47.7283 10.109 48 10.9831 48 11.9546V26.776C48 34.0956 45.975 40.8197 41.925 46.9483C37.875 53.0769 32.375 57.3266 25.425 59.6973C25.197 59.7982 24.969 59.8739 24.741 59.9243C24.513 59.9748 24.266 60 24 60ZM24 55.5359C29.75 53.6192 34.4375 50 38.0625 44.6784C41.6875 39.3569 43.5 33.3922 43.5 26.7844V11.9546L24 4.53972L4.5 11.9546V26.7844C4.5 33.3922 6.3125 39.3569 9.9375 44.6784C13.5625 50 18.25 53.6192 24 55.5359Z" fill="#090909"/>
</svg>
