<svg width="74" height="40" viewBox="0 0 74 40" fill="none" xmlns="http://www.w3.org/2000/svg">
<path d="M5.71818 40C4.12942 40 2.77948 39.4489 1.66836 38.3467C0.556121 37.2456 0 35.9078 0 34.3333V27.3333C0 26.1778 0.381213 25.2222 1.14364 24.4667C1.90606 23.7111 2.8703 23.3333 4.03636 23.3333C5.20242 23.3333 6.16667 23.7111 6.92909 24.4667C7.69152 25.2222 8.07273 26.1778 8.07273 27.3333V32H22.2V4C22.2 2.84444 22.5812 1.88889 23.3436 1.13333C24.1061 0.377776 25.0703 0 26.2364 0C27.4024 0 28.3667 0.377776 29.1291 1.13333C29.8915 1.88889 30.2727 2.84444 30.2727 4V34.3333C30.2727 35.9078 29.7166 37.2456 28.6044 38.3467C27.4932 39.4489 26.1433 40 24.5545 40H5.71818ZM46.0818 40C44.4617 40 43.1033 39.4572 42.0068 38.3717C40.9113 37.285 40.3636 35.9389 40.3636 34.3333V30.6667C40.3636 29.6 40.7673 28.6667 41.5745 27.8667C42.3818 27.0667 43.3236 26.6667 44.4 26.6667C45.4764 26.6667 46.4182 27.0667 47.2255 27.8667C48.0327 28.6667 48.4364 29.6 48.4364 30.6667V32H65.9273V23.1667H46.0818C44.4617 23.1667 43.1033 22.6239 42.0068 21.5383C40.9113 20.4517 40.3636 19.1056 40.3636 17.5V5.66667C40.3636 4.06111 40.9113 2.71556 42.0068 1.63C43.1033 0.543338 44.4617 0 46.0818 0H68.2818C69.902 0 71.2598 0.543338 72.3552 1.63C73.4517 2.71556 74 4.06111 74 5.66667V9.33333C74 10.4 73.5964 11.3333 72.7891 12.1333C71.9818 12.9333 71.04 13.3333 69.9636 13.3333C68.8873 13.3333 67.9455 12.9333 67.1382 12.1333C66.3309 11.3333 65.9273 10.4 65.9273 9.33333V8H48.4364V16.8333H68.2818C69.902 16.8333 71.2598 17.3761 72.3552 18.4617C73.4517 19.5483 74 20.8944 74 22.5V34.3333C74 35.9389 73.4517 37.285 72.3552 38.3717C71.2598 39.4572 69.902 40 68.2818 40H46.0818Z" fill="#090909"/>
</svg>
