<svg width="87" height="86" viewBox="0 0 87 86" fill="none" xmlns="http://www.w3.org/2000/svg">
<path d="M63.6116 40.1014C62.3182 37.5155 60.935 34.9656 59.462 32.4516C57.989 29.9376 56.4262 27.5313 54.7735 25.2328L63.2882 23.5089L75.0363 35.2529L63.6116 40.1014ZM8.10442 6.48545C15.4335 6.8446 22.0441 8.40687 27.9361 11.1723C33.8281 13.9377 39.5764 18.1217 45.181 23.7244C47.4085 25.9511 49.7078 28.8601 52.079 32.4516C54.4502 36.043 56.5699 39.8859 58.4381 43.9801L44.1032 58.31C40.0076 56.4424 36.1634 54.3235 32.5707 51.9531C28.978 49.5828 26.0679 47.2842 23.8404 45.0575C18.2358 39.4549 14.0503 33.7265 11.284 27.8725C8.51759 22.0184 6.95476 15.4281 6.59549 8.1016C6.59549 7.88611 6.63142 7.67063 6.70327 7.45514C6.77512 7.23965 6.8829 7.06008 7.02661 6.91642C7.17032 6.77277 7.33199 6.66502 7.51163 6.59319C7.69126 6.52137 7.88886 6.48545 8.10442 6.48545ZM33.6485 33.6368C35.0856 32.2002 35.8041 30.4224 35.8041 28.3035C35.8041 26.1845 35.0856 24.4068 33.6485 22.9702C32.2114 21.5336 30.433 20.8153 28.3133 20.8153C26.1936 20.8153 24.4153 21.5336 22.9782 22.9702C21.5411 24.4068 20.8226 26.1845 20.8226 28.3035C20.8226 30.4224 21.5411 32.2002 22.9782 33.6368C24.4153 35.0733 26.1936 35.7916 28.3133 35.7916C30.433 35.7916 32.2114 35.0733 33.6485 33.6368ZM40.2231 63.5894L35.373 74.9024L23.6249 63.1584L25.2416 54.6467C27.5409 56.2988 29.966 57.879 32.5168 59.3874C35.0676 60.8958 37.6364 62.2965 40.2231 63.5894ZM0.0208588 3.3609C-0.194702 12.3395 1.26034 20.6178 4.38599 28.1957C7.51163 35.7737 12.4516 42.9386 19.2058 49.6905C19.2777 49.7623 19.3496 49.8162 19.4214 49.8521C19.4933 49.888 19.5651 49.9419 19.637 50.0137L17.2658 61.8655C17.0502 62.9429 17.0862 63.9845 17.3736 64.9901C17.661 65.9957 18.1999 66.8935 18.9903 67.6836L34.1874 82.8754C34.9778 83.6656 35.9298 83.9529 37.0436 83.7374C38.1573 83.5219 38.9297 82.8754 39.3609 81.798L46.69 64.8823L64.9049 46.566L81.9343 39.3472C83.0121 38.9162 83.6408 38.1261 83.8205 36.9768C84.0001 35.8275 83.6947 34.8578 82.9043 34.0677L67.815 18.9837C67.0246 18.1936 66.1264 17.6369 65.1205 17.3137C64.1145 16.9904 63.0727 16.9366 61.9948 17.152L50.139 19.5224C50.0671 19.4506 49.9952 19.3967 49.9234 19.3608C49.8515 19.3249 49.7797 19.271 49.7078 19.1992C42.9536 12.4472 35.8041 7.50901 28.2594 4.38446C20.7148 1.2599 12.4516 -0.194633 3.46985 0.0208535C3.03872 0.0208535 2.62556 0.11064 2.23037 0.290212C1.83517 0.469784 1.45794 0.739142 1.09867 1.09829C0.739395 1.45743 0.469948 1.81658 0.290314 2.17572C0.11068 2.53486 0.0208588 2.92992 0.0208588 3.3609ZM79.0242 59.6029C76.5093 57.0889 73.4376 55.8139 69.809 55.778C66.1803 55.7421 63.1086 56.9811 60.5937 59.4952C58.0788 62.0092 56.8393 65.0798 56.8753 68.7072C56.9112 72.3346 58.1866 75.4052 60.7015 77.9193C64.0786 81.2952 68.1204 83.3244 72.8268 84.0068C77.5332 84.6891 82.2576 85.3535 87 86L85.0599 71.7779C84.4133 67.0372 82.4014 62.9789 79.0242 59.6029ZM74.4974 64.2359C76.2219 66.1034 77.3357 68.2583 77.8386 70.7005C78.3416 73.1426 78.8087 75.6207 79.2398 78.1347C76.7249 77.7038 74.2459 77.2369 71.8029 76.7341C69.3599 76.2313 67.2043 75.1179 65.3361 73.394C63.899 72.1729 63.1804 70.6466 63.1804 68.8149C63.1804 66.9833 63.8271 65.3851 65.1205 64.0204C66.4857 62.7275 68.0845 62.081 69.9167 62.081C71.749 62.081 73.2759 62.7993 74.4974 64.2359Z" fill="#090909"/>
</svg>
