<svg width="104" height="35" viewBox="0 0 104 35" fill="none" xmlns="http://www.w3.org/2000/svg">
<path d="M59.5111 28V20.2708H42.4667C41.0752 20.2708 39.9086 19.7959 38.9668 18.846C38.026 17.8952 37.5556 16.7174 37.5556 15.3125V4.95833C37.5556 3.5 38.013 2.30903 38.9278 1.38542C39.8426 0.461806 41.0222 0 42.4667 0H62.9778C63.9793 0 64.8074 0.330554 65.4622 0.991665C66.117 1.65278 66.4445 2.48889 66.4445 3.5C66.4445 4.51111 66.117 5.34722 65.4622 6.00834C64.8074 6.66945 63.9793 7 62.9778 7H44.4889V14.7292H61.5333C62.9248 14.7292 64.091 15.2041 65.0318 16.154C65.9736 17.1048 66.4445 18.2826 66.4445 19.6875V30.0417C66.4445 31.5 65.987 32.691 65.0722 33.6146C64.1574 34.5382 62.9778 35 61.5333 35H41.0222C40.0207 35 39.1926 34.6694 38.5378 34.0083C37.883 33.3472 37.5556 32.5111 37.5556 31.5C37.5556 30.4889 37.883 29.6528 38.5378 28.9917C39.1926 28.3306 40.0207 28 41.0222 28H59.5111ZM97.0667 28V20.2708H80.0222C78.6307 20.2708 77.4646 19.7959 76.5238 18.846C75.582 17.8952 75.1111 16.7174 75.1111 15.3125V4.95833C75.1111 3.5 75.5685 2.30903 76.4833 1.38542C77.3982 0.461806 78.5778 0 80.0222 0H100.533C101.535 0 102.363 0.330554 103.018 0.991665C103.673 1.65278 104 2.48889 104 3.5C104 4.51111 103.673 5.34722 103.018 6.00834C102.363 6.66945 101.535 7 100.533 7H82.0444V14.7292H99.0889C100.48 14.7292 101.647 15.2041 102.587 16.154C103.529 17.1048 104 18.2826 104 19.6875V30.0417C104 31.5 103.543 32.691 102.628 33.6146C101.713 34.5382 100.533 35 99.0889 35H78.5778C77.5763 35 76.7481 34.6694 76.0933 34.0083C75.4385 33.3472 75.1111 32.5111 75.1111 31.5C75.1111 30.4889 75.4385 29.6528 76.0933 28.9917C76.7481 28.3306 77.5763 28 78.5778 28H97.0667ZM4.91111 35C3.51963 35 2.353 34.5251 1.41122 33.5752C0.470408 32.6244 0 31.4465 0 30.0417V4.95833C0 3.55347 0.470408 2.37612 1.41122 1.42625C2.353 0.475421 3.51963 0 4.91111 0H24.9889C26.3804 0 27.547 0.475421 28.4888 1.42625C29.4296 2.37612 29.9 3.55347 29.9 4.95833V8.3125C29.9 9.23806 29.5533 10.0285 28.86 10.6838C28.1667 11.339 27.3578 11.6667 26.4333 11.6667C25.3741 11.6667 24.5315 11.3507 23.9056 10.7188C23.2796 10.0868 22.9667 9.23611 22.9667 8.16667V7H6.93333V28H22.9667V26.8333C22.9667 25.9 23.2796 25.0833 23.9056 24.3833C24.5315 23.6833 25.3702 23.3333 26.4218 23.3333C27.3924 23.3333 28.2148 23.6833 28.8889 24.3833C29.563 25.0833 29.9 25.9 29.9 26.8333V30.0417C29.9 31.4465 29.4296 32.6244 28.4888 33.5752C27.547 34.5251 26.3804 35 24.9889 35H4.91111Z" fill="#090909"/>
</svg>
