<svg width="60" height="59" viewBox="0 0 60 59" fill="none" xmlns="http://www.w3.org/2000/svg">
<path d="M30 59C25.85 59 21.95 58.2256 18.3 56.6769C14.65 55.1281 11.475 53.0262 8.775 50.3712C6.075 47.7162 3.9375 44.5942 2.3625 41.005C0.7875 37.4158 0 33.5808 0 29.5C0 25.4192 0.7875 21.5842 2.3625 17.995C3.9375 14.4058 6.075 11.2837 8.775 8.62875C11.475 5.97375 14.65 3.87187 18.3 2.32312C21.95 0.774375 25.85 0 30 0C34.15 0 38.05 0.774375 41.7 2.32312C45.35 3.87187 48.525 5.97375 51.225 8.62875C53.925 11.2837 56.0625 14.4058 57.6375 17.995C59.2125 21.5842 60 25.4192 60 29.5C60 33.5808 59.2125 37.4158 57.6375 41.005C56.0625 44.5942 53.925 47.7162 51.225 50.3712C48.525 53.0262 45.35 55.1281 41.7 56.6769C38.05 58.2256 34.15 59 30 59ZM26.775 54.5012V48.4537C25.025 48.4537 23.55 47.8146 22.35 46.5362C21.15 45.2579 20.55 43.7583 20.55 42.0375V38.7925L5.175 23.6737C4.925 24.6571 4.75 25.6281 4.65 26.5869C4.55 27.5456 4.5 28.5167 4.5 29.5C4.5 35.8917 6.6125 41.4721 10.8375 46.2412C15.0625 51.0104 20.375 53.7637 26.775 54.5012ZM48.825 46.5362C49.925 45.3562 50.8875 44.1025 51.7125 42.775C52.5375 41.4475 53.2375 40.0585 53.8125 38.6081C54.3875 37.1577 54.8125 35.6704 55.0875 34.1462C55.3625 32.6221 55.5 31.0733 55.5 29.5C55.5 24.2883 54.05 19.556 51.15 15.3031C48.25 11.0502 44.375 7.94042 39.525 5.97375V7.30125C39.525 9.02208 38.925 10.5217 37.725 11.8C36.525 13.0783 35.05 13.7175 33.3 13.7175H26.775V20.1337C26.775 20.9696 26.4375 21.6579 25.7625 22.1987C25.0875 22.7396 24.325 23.01 23.475 23.01H17.25V29.5H36.6C37.45 29.5 38.15 29.8196 38.7 30.4587C39.25 31.0979 39.525 31.8354 39.525 32.6712V42.0375H42.75C44.2 42.0375 45.475 42.4554 46.575 43.2912C47.675 44.1271 48.425 45.2087 48.825 46.5362Z" fill="#090909"/>
</svg>
