<svg width="49" height="55" viewBox="0 0 49 55" fill="none" xmlns="http://www.w3.org/2000/svg">
<path d="M4.59375 50.3192H16.0781V33.156C16.0781 32.4929 16.2984 31.9369 16.7389 31.4881C17.1788 31.0398 17.7242 30.8156 18.375 30.8156H30.625C31.2758 30.8156 31.8214 31.0398 32.2619 31.4881C32.7019 31.9369 32.9219 32.4929 32.9219 33.156V50.3192H44.4062V19.8936L24.5 4.68085L4.59375 19.8936V50.3192ZM0 50.3192V19.8936C0 19.1525 0.162823 18.4504 0.488469 17.7872C0.813605 17.1241 1.26328 16.578 1.8375 16.1489L21.7437 0.93617C22.5441 0.312057 23.4587 0 24.4878 0C25.5168 0 26.4396 0.312057 27.2563 0.93617L47.1625 16.1489C47.7367 16.578 48.1867 17.1241 48.5123 17.7872C48.8374 18.4504 49 19.1525 49 19.8936V50.3192C49 51.6064 48.5503 52.7082 47.651 53.6246C46.7511 54.5415 45.6695 55 44.4062 55H30.625C29.9742 55 29.4288 54.7756 28.9889 54.3267C28.5484 53.8784 28.3281 53.3227 28.3281 52.6596V35.4965H20.6719V52.6596C20.6719 53.3227 20.4519 53.8784 20.0119 54.3267C19.5714 54.7756 19.0258 55 18.375 55H4.59375C3.33047 55 2.24915 54.5415 1.3498 53.6246C0.449933 52.7082 0 51.6064 0 50.3192Z" fill="#080808"/>
</svg>
