<svg width="235" height="65" viewBox="0 0 235 65" fill="none" xmlns="http://www.w3.org/2000/svg">
<path d="M0 32.5C0 14.5507 14.5507 0 32.5 0H202.5C220.449 0 235 14.5507 235 32.5V32.5C235 50.4493 220.449 65 202.5 65H32.5C14.5507 65 0 50.4493 0 32.5V32.5Z" fill="#090909"/>
<path d="M74.74 43C74.4907 43 74.298 42.932 74.162 42.796C74.026 42.6373 73.958 42.4447 73.958 42.218V20.016C73.958 19.7667 74.026 19.574 74.162 19.438C74.298 19.2793 74.4907 19.2 74.74 19.2H89.53C89.7793 19.2 89.972 19.2793 90.108 19.438C90.244 19.574 90.312 19.7667 90.312 20.016V21.376C90.312 21.6027 90.244 21.7953 90.108 21.954C89.972 22.09 89.7793 22.158 89.53 22.158H77.29V29.026H84.022C86.4247 29.026 88.2947 29.6493 89.632 30.896C90.9693 32.1427 91.638 33.82 91.638 35.928C91.638 36.7667 91.4793 37.6053 91.162 38.444C90.8447 39.2827 90.3687 40.042 89.734 40.722C89.122 41.402 88.34 41.9573 87.388 42.388C86.436 42.796 85.314 43 84.022 43H74.74ZM77.29 40.246H83.614C84.6113 40.246 85.45 40.0533 86.13 39.668C86.81 39.26 87.3313 38.716 87.694 38.036C88.0567 37.356 88.238 36.6193 88.238 35.826C88.238 34.6247 87.8527 33.65 87.082 32.902C86.334 32.1313 85.178 31.746 83.614 31.746H77.29V40.246ZM96.0128 43C95.7862 43 95.5935 42.932 95.4348 42.796C95.2988 42.6373 95.2308 42.4447 95.2308 42.218V26.102C95.2308 25.8753 95.2988 25.694 95.4348 25.558C95.5935 25.3993 95.7862 25.32 96.0128 25.32H97.6448C97.8715 25.32 98.0528 25.3993 98.1888 25.558C98.3475 25.694 98.4268 25.8753 98.4268 26.102V31.1H101.963C104.275 31.1 105.964 31.644 107.029 32.732C108.094 33.82 108.627 35.2933 108.627 37.152C108.627 39.1467 108.038 40.62 106.859 41.572C105.68 42.524 103.912 43 101.555 43H96.0128ZM98.3928 40.45H101.657C103.04 40.45 104.048 40.212 104.683 39.736C105.318 39.2373 105.635 38.376 105.635 37.152C105.635 35.9733 105.329 35.1007 104.717 34.534C104.105 33.9447 103.085 33.65 101.657 33.65H98.3928V40.45ZM111.823 43C111.596 43 111.404 42.932 111.245 42.796C111.109 42.6373 111.041 42.4447 111.041 42.218V26.102C111.041 25.8753 111.109 25.694 111.245 25.558C111.404 25.3993 111.596 25.32 111.823 25.32H113.455C113.682 25.32 113.863 25.3993 113.999 25.558C114.158 25.694 114.237 25.8753 114.237 26.102V42.218C114.237 42.4447 114.158 42.6373 113.999 42.796C113.863 42.932 113.682 43 113.455 43H111.823ZM126.443 43.34C124.834 43.34 123.44 43.034 122.261 42.422C121.105 41.7873 120.21 40.892 119.575 39.736C118.94 38.5573 118.6 37.152 118.555 35.52C118.532 35.18 118.521 34.7267 118.521 34.16C118.521 33.5933 118.532 33.14 118.555 32.8C118.6 31.168 118.94 29.774 119.575 28.618C120.21 27.4393 121.105 26.544 122.261 25.932C123.44 25.2973 124.834 24.98 126.443 24.98C127.758 24.98 128.88 25.1613 129.809 25.524C130.761 25.8867 131.543 26.3513 132.155 26.918C132.767 27.4847 133.22 28.0967 133.515 28.754C133.832 29.4113 134.002 30.0347 134.025 30.624C134.048 30.8507 133.98 31.032 133.821 31.168C133.662 31.304 133.47 31.372 133.243 31.372H131.611C131.384 31.372 131.214 31.3267 131.101 31.236C130.988 31.1227 130.874 30.9413 130.761 30.692C130.353 29.5813 129.798 28.7993 129.095 28.346C128.392 27.8927 127.52 27.666 126.477 27.666C125.117 27.666 124.006 28.0853 123.145 28.924C122.306 29.7627 121.853 31.1113 121.785 32.97C121.762 33.786 121.762 34.5793 121.785 35.35C121.853 37.2313 122.306 38.5913 123.145 39.43C124.006 40.246 125.117 40.654 126.477 40.654C127.52 40.654 128.392 40.4273 129.095 39.974C129.798 39.5207 130.353 38.7387 130.761 37.628C130.874 37.3787 130.988 37.2087 131.101 37.118C131.214 37.0047 131.384 36.948 131.611 36.948H133.243C133.47 36.948 133.662 37.016 133.821 37.152C133.98 37.288 134.048 37.4693 134.025 37.696C134.002 38.172 133.9 38.6593 133.719 39.158C133.538 39.6567 133.243 40.1667 132.835 40.688C132.45 41.1867 131.962 41.64 131.373 42.048C130.784 42.4333 130.07 42.7507 129.231 43C128.415 43.2267 127.486 43.34 126.443 43.34ZM143.469 43C143.242 43 143.05 42.932 142.891 42.796C142.755 42.6373 142.687 42.4447 142.687 42.218V28.04H136.771C136.544 28.04 136.352 27.972 136.193 27.836C136.057 27.6773 135.989 27.4847 135.989 27.258V26.102C135.989 25.8753 136.057 25.694 136.193 25.558C136.352 25.3993 136.544 25.32 136.771 25.32H151.731C151.958 25.32 152.139 25.3993 152.275 25.558C152.434 25.694 152.513 25.8753 152.513 26.102V27.258C152.513 27.4847 152.434 27.6773 152.275 27.836C152.139 27.972 151.958 28.04 151.731 28.04H145.815V42.218C145.815 42.4447 145.747 42.6373 145.611 42.796C145.475 42.932 145.282 43 145.033 43H143.469ZM156.277 49.46C156.051 49.46 155.858 49.3807 155.699 49.222C155.563 49.086 155.495 48.9047 155.495 48.678V26.102C155.495 25.8753 155.563 25.694 155.699 25.558C155.858 25.3993 156.051 25.32 156.277 25.32H157.841C158.068 25.32 158.249 25.3993 158.385 25.558C158.544 25.694 158.623 25.8753 158.623 26.102V27.598C159.167 26.85 159.893 26.2267 160.799 25.728C161.706 25.2293 162.839 24.98 164.199 24.98C165.469 24.98 166.545 25.1953 167.429 25.626C168.336 26.0567 169.073 26.646 169.639 27.394C170.229 28.142 170.671 28.992 170.965 29.944C171.26 30.896 171.419 31.916 171.441 33.004C171.464 33.3667 171.475 33.752 171.475 34.16C171.475 34.568 171.464 34.9533 171.441 35.316C171.419 36.3813 171.26 37.4013 170.965 38.376C170.671 39.328 170.229 40.178 169.639 40.926C169.073 41.6513 168.336 42.2407 167.429 42.694C166.545 43.1247 165.469 43.34 164.199 43.34C162.885 43.34 161.774 43.102 160.867 42.626C159.983 42.1273 159.258 41.5153 158.691 40.79V48.678C158.691 48.9047 158.623 49.086 158.487 49.222C158.351 49.3807 158.159 49.46 157.909 49.46H156.277ZM163.485 40.586C164.664 40.586 165.582 40.3367 166.239 39.838C166.919 39.3167 167.407 38.648 167.701 37.832C167.996 36.9933 168.166 36.098 168.211 35.146C168.234 34.4887 168.234 33.8313 168.211 33.174C168.166 32.222 167.996 31.338 167.701 30.522C167.407 29.6833 166.919 29.0147 166.239 28.516C165.582 27.9947 164.664 27.734 163.485 27.734C162.375 27.734 161.468 27.9947 160.765 28.516C160.085 29.0373 159.575 29.706 159.235 30.522C158.918 31.3153 158.737 32.1313 158.691 32.97C158.669 33.3327 158.657 33.7633 158.657 34.262C158.657 34.7607 158.669 35.2027 158.691 35.588C158.714 36.3813 158.895 37.1633 159.235 37.934C159.598 38.7047 160.131 39.3393 160.833 39.838C161.536 40.3367 162.42 40.586 163.485 40.586ZM182.957 43.34C181.235 43.34 179.795 43.0113 178.639 42.354C177.483 41.6967 176.599 40.79 175.987 39.634C175.375 38.4553 175.035 37.118 174.967 35.622C174.945 35.2367 174.933 34.7493 174.933 34.16C174.933 33.548 174.945 33.0607 174.967 32.698C175.035 31.1793 175.375 29.842 175.987 28.686C176.622 27.53 177.517 26.6233 178.673 25.966C179.829 25.3087 181.257 24.98 182.957 24.98C184.657 24.98 186.085 25.3087 187.241 25.966C188.397 26.6233 189.281 27.53 189.893 28.686C190.528 29.842 190.879 31.1793 190.947 32.698C190.97 33.0607 190.981 33.548 190.981 34.16C190.981 34.7493 190.97 35.2367 190.947 35.622C190.879 37.118 190.539 38.4553 189.927 39.634C189.315 40.79 188.431 41.6967 187.275 42.354C186.119 43.0113 184.68 43.34 182.957 43.34ZM182.957 40.722C184.363 40.722 185.485 40.28 186.323 39.396C187.162 38.4893 187.615 37.1747 187.683 35.452C187.706 35.112 187.717 34.6813 187.717 34.16C187.717 33.6387 187.706 33.208 187.683 32.868C187.615 31.1453 187.162 29.842 186.323 28.958C185.485 28.0513 184.363 27.598 182.957 27.598C181.552 27.598 180.419 28.0513 179.557 28.958C178.719 29.842 178.277 31.1453 178.231 32.868C178.209 33.208 178.197 33.6387 178.197 34.16C178.197 34.6813 178.209 35.112 178.231 35.452C178.277 37.1747 178.719 38.4893 179.557 39.396C180.419 40.28 181.552 40.722 182.957 40.722Z" fill="white"/>
<path d="M37.65 30.4V21.85C37.65 21.4167 37.5083 21.0583 37.225 20.775C36.9417 20.4917 36.5833 20.35 36.15 20.35C35.7167 20.35 35.3583 20.4917 35.075 20.775C34.7917 21.0583 34.65 21.4167 34.65 21.85V31C34.65 31.2 34.6833 31.3833 34.75 31.55C34.8167 31.7167 34.9167 31.8833 35.05 32.05L42.25 39.5C42.55 39.8333 42.925 39.9917 43.375 39.975C43.825 39.9583 44.2 39.8 44.5 39.5C44.8 39.2 44.95 38.8333 44.95 38.4C44.95 37.9667 44.8 37.6 44.5 37.3L37.65 30.4ZM36 51C33.2667 51 30.6833 50.475 28.25 49.425C25.8167 48.375 23.6917 46.9417 21.875 45.125C20.0583 43.3083 18.625 41.1833 17.575 38.75C16.525 36.3167 16 33.7333 16 31C16 28.2667 16.525 25.6833 17.575 23.25C18.625 20.8167 20.0583 18.6917 21.875 16.875C23.6917 15.0583 25.8167 13.625 28.25 12.575C30.6833 11.525 33.2667 11 36 11C38.7333 11 41.3167 11.525 43.75 12.575C46.1833 13.625 48.3083 15.0583 50.125 16.875C51.9417 18.6917 53.375 20.8167 54.425 23.25C55.475 25.6833 56 28.2667 56 31C56 33.7333 55.475 36.3167 54.425 38.75C53.375 41.1833 51.9417 43.3083 50.125 45.125C48.3083 46.9417 46.1833 48.375 43.75 49.425C41.3167 50.475 38.7333 51 36 51ZM36 48C40.6667 48 44.6667 46.3333 48 43C51.3333 39.6667 53 35.6667 53 31C53 26.3333 51.3333 22.3333 48 19C44.6667 15.6667 40.6667 14 36 14C31.3333 14 27.3333 15.6667 24 19C20.6667 22.3333 19 26.3333 19 31C19 35.6667 20.6667 39.6667 24 43C27.3333 46.3333 31.3333 48 36 48Z" fill="white"/>
</svg>
