<svg width="235" height="65" viewBox="0 0 235 65" fill="none" xmlns="http://www.w3.org/2000/svg">
<path d="M0 32.5C0 14.5507 14.5507 0 32.5 0H202.5C220.449 0 235 14.5507 235 32.5V32.5C235 50.4493 220.449 65 202.5 65H32.5C14.5507 65 0 50.4493 0 32.5V32.5Z" fill="#090909"/>
<path d="M66.564 46.726C66.3373 46.726 66.1447 46.658 65.986 46.522C65.85 46.386 65.782 46.1933 65.782 45.944V39.722C65.782 39.4953 65.85 39.314 65.986 39.178C66.1447 39.0193 66.3373 38.94 66.564 38.94H67.278C67.822 38.94 68.298 38.6907 68.706 38.192C69.114 37.6933 69.454 36.934 69.726 35.914C70.0207 34.8713 70.236 33.5567 70.372 31.97C70.508 30.3833 70.576 28.502 70.576 26.326V18.982C70.576 18.7553 70.644 18.574 70.78 18.438C70.9387 18.2793 71.1313 18.2 71.358 18.2H84.618C84.8673 18.2 85.06 18.2793 85.196 18.438C85.3547 18.574 85.434 18.7667 85.434 19.016V38.94H87.1C87.3493 38.94 87.542 39.0193 87.678 39.178C87.8367 39.314 87.916 39.4953 87.916 39.722V45.944C87.916 46.1707 87.8367 46.352 87.678 46.488C87.542 46.6467 87.3493 46.726 87.1 46.726H85.366C85.1167 46.726 84.924 46.6467 84.788 46.488C84.652 46.352 84.584 46.1707 84.584 45.944V42H69.114V45.944C69.114 46.1707 69.0347 46.352 68.876 46.488C68.74 46.6467 68.5473 46.726 68.298 46.726H66.564ZM71.63 38.94H82.102V21.26H73.84V26.734C73.84 29.9527 73.6473 32.548 73.262 34.52C72.8993 36.492 72.3553 37.9653 71.63 38.94ZM98.6263 42.34C96.2916 42.34 94.4329 41.626 93.0503 40.198C91.6676 38.7473 90.9083 36.7753 90.7723 34.282C90.7496 33.9873 90.7383 33.6133 90.7383 33.16C90.7383 32.684 90.7496 32.2987 90.7723 32.004C90.8629 30.3947 91.2369 28.9893 91.8943 27.788C92.5516 26.564 93.4469 25.6233 94.5803 24.966C95.7363 24.3087 97.0849 23.98 98.6263 23.98C100.349 23.98 101.788 24.3427 102.944 25.068C104.123 25.7933 105.018 26.8247 105.63 28.162C106.242 29.4993 106.548 31.0633 106.548 32.854V33.432C106.548 33.6813 106.469 33.874 106.31 34.01C106.174 34.146 105.993 34.214 105.766 34.214H94.0023C94.0023 34.2367 94.0023 34.282 94.0023 34.35C94.0023 34.418 94.0023 34.4747 94.0023 34.52C94.0476 35.4493 94.2516 36.322 94.6143 37.138C94.9769 37.9313 95.4983 38.5773 96.1783 39.076C96.8583 39.5747 97.6743 39.824 98.6263 39.824C99.4423 39.824 100.122 39.6993 100.666 39.45C101.21 39.2007 101.652 38.9287 101.992 38.634C102.332 38.3167 102.559 38.0787 102.672 37.92C102.876 37.6253 103.035 37.4553 103.148 37.41C103.262 37.342 103.443 37.308 103.692 37.308H105.324C105.551 37.308 105.732 37.376 105.868 37.512C106.027 37.6253 106.095 37.7953 106.072 38.022C106.05 38.362 105.868 38.7813 105.528 39.28C105.188 39.756 104.701 40.232 104.066 40.708C103.432 41.184 102.661 41.5807 101.754 41.898C100.848 42.1927 99.8049 42.34 98.6263 42.34ZM94.0023 31.868H103.318V31.766C103.318 30.746 103.126 29.8393 102.74 29.046C102.378 28.2527 101.845 27.6293 101.142 27.176C100.44 26.7 99.6009 26.462 98.6263 26.462C97.6516 26.462 96.8129 26.7 96.1103 27.176C95.4303 27.6293 94.9089 28.2527 94.5463 29.046C94.1836 29.8393 94.0023 30.746 94.0023 31.766V31.868ZM100.666 20.886C100.417 20.886 100.224 20.818 100.088 20.682C99.9523 20.546 99.8843 20.3647 99.8843 20.138V18.302C99.8843 18.0753 99.9523 17.894 100.088 17.758C100.224 17.5993 100.417 17.52 100.666 17.52H102.502C102.729 17.52 102.91 17.5993 103.046 17.758C103.205 17.894 103.284 18.0753 103.284 18.302V20.138C103.284 20.3647 103.205 20.546 103.046 20.682C102.91 20.818 102.729 20.886 102.502 20.886H100.666ZM94.8863 20.886C94.6596 20.886 94.4783 20.818 94.3423 20.682C94.2063 20.546 94.1383 20.3647 94.1383 20.138V18.302C94.1383 18.0753 94.2063 17.894 94.3423 17.758C94.4783 17.5993 94.6596 17.52 94.8863 17.52H96.7563C96.9829 17.52 97.1643 17.5993 97.3003 17.758C97.4589 17.894 97.5383 18.0753 97.5383 18.302V20.138C97.5383 20.3647 97.4589 20.546 97.3003 20.682C97.1643 20.818 96.9829 20.886 96.7563 20.886H94.8863ZM111.396 42C111.169 42 110.976 41.932 110.818 41.796C110.682 41.6373 110.614 41.4447 110.614 41.218V25.102C110.614 24.8753 110.682 24.694 110.818 24.558C110.976 24.3993 111.169 24.32 111.396 24.32H112.96C113.186 24.32 113.368 24.3993 113.504 24.558C113.662 24.694 113.742 24.8753 113.742 25.102V39.28H119.964V25.102C119.964 24.8753 120.032 24.694 120.168 24.558C120.326 24.3993 120.519 24.32 120.746 24.32H122.174C122.423 24.32 122.616 24.3993 122.752 24.558C122.888 24.694 122.956 24.8753 122.956 25.102V39.28H129.178V25.102C129.178 24.8753 129.246 24.694 129.382 24.558C129.54 24.3993 129.733 24.32 129.96 24.32H131.524C131.75 24.32 131.932 24.3993 132.068 24.558C132.226 24.694 132.306 24.8753 132.306 25.102V41.218C132.306 41.4447 132.226 41.6373 132.068 41.796C131.932 41.932 131.75 42 131.524 42H111.396ZM144.413 42.34C142.079 42.34 140.22 41.626 138.837 40.198C137.455 38.7473 136.695 36.7753 136.559 34.282C136.537 33.9873 136.525 33.6133 136.525 33.16C136.525 32.684 136.537 32.2987 136.559 32.004C136.65 30.3947 137.024 28.9893 137.681 27.788C138.339 26.564 139.234 25.6233 140.367 24.966C141.523 24.3087 142.872 23.98 144.413 23.98C146.136 23.98 147.575 24.3427 148.731 25.068C149.91 25.7933 150.805 26.8247 151.417 28.162C152.029 29.4993 152.335 31.0633 152.335 32.854V33.432C152.335 33.6813 152.256 33.874 152.097 34.01C151.961 34.146 151.78 34.214 151.553 34.214H139.789C139.789 34.2367 139.789 34.282 139.789 34.35C139.789 34.418 139.789 34.4747 139.789 34.52C139.835 35.4493 140.039 36.322 140.401 37.138C140.764 37.9313 141.285 38.5773 141.965 39.076C142.645 39.5747 143.461 39.824 144.413 39.824C145.229 39.824 145.909 39.6993 146.453 39.45C146.997 39.2007 147.439 38.9287 147.779 38.634C148.119 38.3167 148.346 38.0787 148.459 37.92C148.663 37.6253 148.822 37.4553 148.935 37.41C149.049 37.342 149.23 37.308 149.479 37.308H151.111C151.338 37.308 151.519 37.376 151.655 37.512C151.814 37.6253 151.882 37.7953 151.859 38.022C151.837 38.362 151.655 38.7813 151.315 39.28C150.975 39.756 150.488 40.232 149.853 40.708C149.219 41.184 148.448 41.5807 147.541 41.898C146.635 42.1927 145.592 42.34 144.413 42.34ZM139.789 31.868H149.105V31.766C149.105 30.746 148.913 29.8393 148.527 29.046C148.165 28.2527 147.632 27.6293 146.929 27.176C146.227 26.7 145.388 26.462 144.413 26.462C143.439 26.462 142.6 26.7 141.897 27.176C141.217 27.6293 140.696 28.2527 140.333 29.046C139.971 29.8393 139.789 30.746 139.789 31.766V31.868ZM157.183 42C156.956 42 156.763 41.932 156.605 41.796C156.469 41.6373 156.401 41.4447 156.401 41.218V25.102C156.401 24.8753 156.469 24.694 156.605 24.558C156.763 24.3993 156.956 24.32 157.183 24.32H164.255C166.385 24.32 167.983 24.7507 169.049 25.612C170.137 26.4733 170.681 27.6293 170.681 29.08C170.681 30.1 170.488 30.8707 170.103 31.392C169.717 31.9133 169.173 32.3553 168.471 32.718C169.332 33.0807 169.978 33.67 170.409 34.486C170.862 35.2793 171.089 36.1067 171.089 36.968C171.089 38.6 170.511 39.8467 169.355 40.708C168.199 41.5693 166.589 42 164.527 42H157.183ZM159.529 39.518H164.255C165.343 39.518 166.215 39.314 166.873 38.906C167.553 38.4753 167.893 37.8293 167.893 36.968C167.893 36.0613 167.587 35.404 166.975 34.996C166.363 34.5653 165.456 34.35 164.255 34.35H159.529V39.518ZM159.529 31.834H164.051C165.139 31.834 166 31.596 166.635 31.12C167.292 30.644 167.621 29.9753 167.621 29.114C167.621 28.23 167.292 27.6293 166.635 27.312C166 26.972 165.139 26.802 164.051 26.802H159.529V31.834ZM182.701 42.34C180.979 42.34 179.539 42.0113 178.383 41.354C177.227 40.6967 176.343 39.79 175.731 38.634C175.119 37.4553 174.779 36.118 174.711 34.622C174.689 34.2367 174.677 33.7493 174.677 33.16C174.677 32.548 174.689 32.0607 174.711 31.698C174.779 30.1793 175.119 28.842 175.731 27.686C176.366 26.53 177.261 25.6233 178.417 24.966C179.573 24.3087 181.001 23.98 182.701 23.98C184.401 23.98 185.829 24.3087 186.985 24.966C188.141 25.6233 189.025 26.53 189.637 27.686C190.272 28.842 190.623 30.1793 190.691 31.698C190.714 32.0607 190.725 32.548 190.725 33.16C190.725 33.7493 190.714 34.2367 190.691 34.622C190.623 36.118 190.283 37.4553 189.671 38.634C189.059 39.79 188.175 40.6967 187.019 41.354C185.863 42.0113 184.424 42.34 182.701 42.34ZM182.701 39.722C184.107 39.722 185.229 39.28 186.067 38.396C186.906 37.4893 187.359 36.1747 187.427 34.452C187.45 34.112 187.461 33.6813 187.461 33.16C187.461 32.6387 187.45 32.208 187.427 31.868C187.359 30.1453 186.906 28.842 186.067 27.958C185.229 27.0513 184.107 26.598 182.701 26.598C181.296 26.598 180.163 27.0513 179.301 27.958C178.463 28.842 178.021 30.1453 177.975 31.868C177.953 32.208 177.941 32.6387 177.941 33.16C177.941 33.6813 177.953 34.112 177.975 34.452C178.021 36.1747 178.463 37.4893 179.301 38.396C180.163 39.28 181.296 39.722 182.701 39.722Z" fill="white"/>
<path d="M32 51C29.2667 51 26.6833 50.475 24.25 49.425C21.8167 48.375 19.6917 46.9417 17.875 45.125C16.0583 43.3083 14.625 41.1833 13.575 38.75C12.525 36.3167 12 33.7333 12 31C12 28.2333 12.525 25.6333 13.575 23.2C14.625 20.7667 16.0583 18.65 17.875 16.85C19.6917 15.05 21.8167 13.625 24.25 12.575C26.6833 11.525 29.2667 11 32 11C34.7667 11 37.3667 11.525 39.8 12.575C42.2333 13.625 44.35 15.05 46.15 16.85C47.95 18.65 49.375 20.7667 50.425 23.2C51.475 25.6333 52 28.2333 52 31C52 33.7333 51.475 36.3167 50.425 38.75C49.375 41.1833 47.95 43.3083 46.15 45.125C44.35 46.9417 42.2333 48.375 39.8 49.425C37.3667 50.475 34.7667 51 32 51ZM32 48C36.7333 48 40.75 46.3417 44.05 43.025C47.35 39.7083 49 35.7 49 31C49 26.2667 47.35 22.25 44.05 18.95C40.75 15.65 36.7333 14 32 14C27.3 14 23.2917 15.65 19.975 18.95C16.6583 22.25 15 26.2667 15 31C15 35.7 16.6583 39.7083 19.975 43.025C23.2917 46.3417 27.3 48 32 48ZM31.95 45.35C32.3167 45.35 32.6333 45.2083 32.9 44.925C33.1667 44.6417 33.3 44.3167 33.3 43.95V42.75C35.3 42.5167 36.875 41.8417 38.025 40.725C39.175 39.6083 39.75 38.1833 39.75 36.45C39.75 34.7167 39.275 33.3333 38.325 32.3C37.375 31.2667 35.7333 30.3667 33.4 29.6C31.3 28.9 29.8583 28.2083 29.075 27.525C28.2917 26.8417 27.9 25.95 27.9 24.85C27.9 23.8167 28.275 23.0083 29.025 22.425C29.775 21.8417 30.8 21.55 32.1 21.55C32.9 21.55 33.6167 21.7 34.25 22C34.8833 22.3 35.4333 22.75 35.9 23.35C36.1333 23.6167 36.4167 23.8 36.75 23.9C37.0833 24 37.4 23.9667 37.7 23.8C38.0667 23.6333 38.3083 23.3667 38.425 23C38.5417 22.6333 38.4833 22.3 38.25 22C37.6833 21.2 36.9917 20.5667 36.175 20.1C35.3583 19.6333 34.4333 19.35 33.4 19.25V18.05C33.4 17.6833 33.2667 17.3667 33 17.1C32.7333 16.8333 32.4167 16.7 32.05 16.7C31.6833 16.7 31.3583 16.8333 31.075 17.1C30.7917 17.3667 30.65 17.6833 30.65 18.05V19.25C28.95 19.4833 27.6083 20.1 26.625 21.1C25.6417 22.1 25.15 23.35 25.15 24.85C25.15 26.4833 25.575 27.7833 26.425 28.75C27.275 29.7167 28.85 30.6333 31.15 31.5C33.5167 32.4 35.0833 33.1833 35.85 33.85C36.6167 34.5167 37 35.3833 37 36.45C37 37.55 36.55 38.475 35.65 39.225C34.75 39.975 33.65 40.35 32.35 40.35C31.25 40.35 30.2417 40.0833 29.325 39.55C28.4083 39.0167 27.7 38.2667 27.2 37.3C27.0333 37.0333 26.8083 36.825 26.525 36.675C26.2417 36.525 25.95 36.5 25.65 36.6C25.2167 36.7667 24.925 37.025 24.775 37.375C24.625 37.725 24.6667 38.0833 24.9 38.45C25.5667 39.55 26.3583 40.4417 27.275 41.125C28.1917 41.8083 29.2833 42.3167 30.55 42.65V44C30.55 44.3667 30.6917 44.6833 30.975 44.95C31.2583 45.2167 31.5833 45.35 31.95 45.35Z" fill="white"/>
</svg>
