<svg width="237" height="65" viewBox="0 0 237 65" fill="none" xmlns="http://www.w3.org/2000/svg">
<path d="M0 32.5C0 14.5507 14.5507 0 32.5 0H204.5C222.449 0 237 14.5507 237 32.5V32.5C237 50.4493 222.449 65 204.5 65H32.5C14.5507 65 0 50.4493 0 32.5V32.5Z" fill="#090909"/>
<path d="M65.74 44C65.4907 44 65.298 43.932 65.162 43.796C65.026 43.6373 64.958 43.4447 64.958 43.218V21.016C64.958 20.7667 65.026 20.574 65.162 20.438C65.298 20.2793 65.4907 20.2 65.74 20.2H67.474C67.7233 20.2 67.916 20.2793 68.052 20.438C68.2107 20.574 68.29 20.7667 68.29 21.016V30.4H79.986V21.016C79.986 20.7667 80.054 20.574 80.19 20.438C80.3487 20.2793 80.5413 20.2 80.768 20.2H82.502C82.7513 20.2 82.944 20.2793 83.08 20.438C83.2387 20.574 83.318 20.7667 83.318 21.016V43.218C83.318 43.4447 83.2387 43.6373 83.08 43.796C82.944 43.932 82.7513 44 82.502 44H80.768C80.5413 44 80.3487 43.932 80.19 43.796C80.054 43.6373 79.986 43.4447 79.986 43.218V33.46H68.29V43.218C68.29 43.4447 68.2107 43.6373 68.052 43.796C67.916 43.932 67.7233 44 67.474 44H65.74ZM93.6843 44.34C92.5509 44.34 91.5196 44.1133 90.5903 43.66C89.6609 43.2067 88.9129 42.5947 88.3463 41.824C87.7796 41.0533 87.4963 40.1807 87.4963 39.206C87.4963 37.642 88.1309 36.3953 89.4003 35.466C90.6696 34.5367 92.3243 33.9247 94.3643 33.63L99.4303 32.916V31.93C99.4303 30.842 99.1129 29.992 98.4783 29.38C97.8663 28.768 96.8576 28.462 95.4523 28.462C94.4323 28.462 93.6049 28.666 92.9703 29.074C92.3583 29.482 91.9276 30.0033 91.6783 30.638C91.5423 30.978 91.3043 31.148 90.9643 31.148H89.4343C89.1849 31.148 88.9923 31.08 88.8563 30.944C88.7429 30.7853 88.6863 30.604 88.6863 30.4C88.6863 30.06 88.8109 29.6407 89.0603 29.142C89.3323 28.6433 89.7403 28.156 90.2843 27.68C90.8283 27.204 91.5196 26.8073 92.3583 26.49C93.2196 26.15 94.2623 25.98 95.4863 25.98C96.8463 25.98 97.9909 26.1613 98.9203 26.524C99.8496 26.864 100.575 27.3287 101.096 27.918C101.64 28.5073 102.026 29.176 102.252 29.924C102.502 30.672 102.626 31.4313 102.626 32.202V43.218C102.626 43.4447 102.547 43.6373 102.388 43.796C102.252 43.932 102.071 44 101.844 44H100.28C100.031 44 99.8383 43.932 99.7023 43.796C99.5663 43.6373 99.4983 43.4447 99.4983 43.218V41.756C99.2036 42.164 98.8069 42.572 98.3083 42.98C97.8096 43.3653 97.1863 43.694 96.4383 43.966C95.6903 44.2153 94.7723 44.34 93.6843 44.34ZM94.3983 41.79C95.3276 41.79 96.1776 41.5973 96.9483 41.212C97.7189 40.804 98.3196 40.1807 98.7503 39.342C99.2036 38.5033 99.4303 37.4493 99.4303 36.18V35.228L95.4863 35.806C93.8769 36.0327 92.6643 36.418 91.8483 36.962C91.0323 37.4833 90.6243 38.152 90.6243 38.968C90.6243 39.6027 90.8056 40.1353 91.1683 40.566C91.5536 40.974 92.0296 41.28 92.5963 41.484C93.1856 41.688 93.7863 41.79 94.3983 41.79ZM106.494 47.74C106.267 47.74 106.075 47.6607 105.916 47.502C105.78 47.366 105.712 47.1847 105.712 46.958V42.062C105.712 41.8353 105.78 41.654 105.916 41.518C106.075 41.3593 106.267 41.28 106.494 41.28H106.664C107.276 41.2573 107.797 40.9173 108.228 40.26C108.659 39.58 108.987 38.526 109.214 37.098C109.441 35.6473 109.554 33.766 109.554 31.454V27.102C109.554 26.8753 109.622 26.694 109.758 26.558C109.917 26.3993 110.109 26.32 110.336 26.32H121.182C121.409 26.32 121.59 26.3993 121.726 26.558C121.885 26.694 121.964 26.8753 121.964 27.102V41.212H123.562C123.811 41.212 124.004 41.2913 124.14 41.45C124.276 41.586 124.344 41.7673 124.344 41.994V46.958C124.344 47.1847 124.276 47.366 124.14 47.502C124.004 47.6607 123.811 47.74 123.562 47.74H121.964C121.737 47.74 121.545 47.6607 121.386 47.502C121.25 47.366 121.182 47.1847 121.182 46.958V44H108.874V46.958C108.874 47.1847 108.795 47.366 108.636 47.502C108.5 47.6607 108.319 47.74 108.092 47.74H106.494ZM110.71 41.28L118.802 41.212V29.04H112.648V31.828C112.648 34.2307 112.478 36.2027 112.138 37.744C111.798 39.2627 111.322 40.4413 110.71 41.28ZM134.939 44.34C132.604 44.34 130.745 43.626 129.363 42.198C127.98 40.7473 127.221 38.7753 127.085 36.282C127.062 35.9873 127.051 35.6133 127.051 35.16C127.051 34.684 127.062 34.2987 127.085 34.004C127.175 32.3947 127.549 30.9893 128.207 29.788C128.864 28.564 129.759 27.6233 130.893 26.966C132.049 26.3087 133.397 25.98 134.939 25.98C136.661 25.98 138.101 26.3427 139.257 27.068C140.435 27.7933 141.331 28.8247 141.943 30.162C142.555 31.4993 142.861 33.0633 142.861 34.854V35.432C142.861 35.6813 142.781 35.874 142.623 36.01C142.487 36.146 142.305 36.214 142.079 36.214H130.315C130.315 36.2367 130.315 36.282 130.315 36.35C130.315 36.418 130.315 36.4747 130.315 36.52C130.36 37.4493 130.564 38.322 130.927 39.138C131.289 39.9313 131.811 40.5773 132.491 41.076C133.171 41.5747 133.987 41.824 134.939 41.824C135.755 41.824 136.435 41.6993 136.979 41.45C137.523 41.2007 137.965 40.9287 138.305 40.634C138.645 40.3167 138.871 40.0787 138.985 39.92C139.189 39.6253 139.347 39.4553 139.461 39.41C139.574 39.342 139.755 39.308 140.005 39.308H141.637C141.863 39.308 142.045 39.376 142.181 39.512C142.339 39.6253 142.407 39.7953 142.385 40.022C142.362 40.362 142.181 40.7813 141.841 41.28C141.501 41.756 141.013 42.232 140.379 42.708C139.744 43.184 138.973 43.5807 138.067 43.898C137.16 44.1927 136.117 44.34 134.939 44.34ZM130.315 33.868H139.631V33.766C139.631 32.746 139.438 31.8393 139.053 31.046C138.69 30.2527 138.157 29.6293 137.455 29.176C136.752 28.7 135.913 28.462 134.939 28.462C133.964 28.462 133.125 28.7 132.423 29.176C131.743 29.6293 131.221 30.2527 130.859 31.046C130.496 31.8393 130.315 32.746 130.315 33.766V33.868ZM136.979 22.886C136.729 22.886 136.537 22.818 136.401 22.682C136.265 22.546 136.197 22.3647 136.197 22.138V20.302C136.197 20.0753 136.265 19.894 136.401 19.758C136.537 19.5993 136.729 19.52 136.979 19.52H138.815C139.041 19.52 139.223 19.5993 139.359 19.758C139.517 19.894 139.597 20.0753 139.597 20.302V22.138C139.597 22.3647 139.517 22.546 139.359 22.682C139.223 22.818 139.041 22.886 138.815 22.886H136.979ZM131.199 22.886C130.972 22.886 130.791 22.818 130.655 22.682C130.519 22.546 130.451 22.3647 130.451 22.138V20.302C130.451 20.0753 130.519 19.894 130.655 19.758C130.791 19.5993 130.972 19.52 131.199 19.52H133.069C133.295 19.52 133.477 19.5993 133.613 19.758C133.771 19.894 133.851 20.0753 133.851 20.302V22.138C133.851 22.3647 133.771 22.546 133.613 22.682C133.477 22.818 133.295 22.886 133.069 22.886H131.199ZM145.872 44C145.668 44 145.498 43.9547 145.362 43.864C145.249 43.7733 145.192 43.6373 145.192 43.456C145.192 43.3427 145.249 43.1953 145.362 43.014L151.176 34.752L146.042 27.272C145.997 27.204 145.963 27.136 145.94 27.068C145.917 26.9773 145.906 26.9093 145.906 26.864C145.906 26.6827 145.963 26.5467 146.076 26.456C146.212 26.3653 146.382 26.32 146.586 26.32H148.354C148.581 26.32 148.762 26.3653 148.898 26.456C149.034 26.5467 149.159 26.6713 149.272 26.83L153.862 33.63H156.446V27.102C156.446 26.8753 156.514 26.694 156.65 26.558C156.809 26.3993 157.001 26.32 157.228 26.32H158.792C159.041 26.32 159.234 26.3993 159.37 26.558C159.506 26.694 159.574 26.8753 159.574 27.102V33.63H162.056L166.714 26.83C166.805 26.6713 166.918 26.5467 167.054 26.456C167.213 26.3653 167.394 26.32 167.598 26.32H169.4C169.604 26.32 169.763 26.3653 169.876 26.456C170.012 26.5467 170.08 26.6827 170.08 26.864C170.08 26.9093 170.057 26.9773 170.012 27.068C169.989 27.136 169.955 27.204 169.91 27.272L164.81 34.752L170.624 43.014C170.715 43.15 170.76 43.2973 170.76 43.456C170.76 43.6373 170.703 43.7733 170.59 43.864C170.477 43.9547 170.307 44 170.08 44H168.04C167.813 44 167.621 43.9547 167.462 43.864C167.326 43.7733 167.213 43.6487 167.122 43.49L162.158 36.35H159.574V43.218C159.574 43.4447 159.506 43.6373 159.37 43.796C159.234 43.932 159.041 44 158.792 44H157.228C157.001 44 156.809 43.932 156.65 43.796C156.514 43.6373 156.446 43.4447 156.446 43.218V36.35H153.862L148.83 43.49C148.762 43.6487 148.649 43.7733 148.49 43.864C148.354 43.9547 148.173 44 147.946 44H145.872ZM174.835 44C174.608 44 174.416 43.932 174.257 43.796C174.121 43.6373 174.053 43.4447 174.053 43.218V27.102C174.053 26.8753 174.121 26.694 174.257 26.558C174.416 26.3993 174.608 26.32 174.835 26.32H176.467C176.694 26.32 176.875 26.3993 177.011 26.558C177.147 26.694 177.215 26.8753 177.215 27.102V33.63H186.497V27.102C186.497 26.8753 186.565 26.694 186.701 26.558C186.86 26.3993 187.052 26.32 187.279 26.32H188.877C189.104 26.32 189.285 26.3993 189.421 26.558C189.58 26.694 189.659 26.8753 189.659 27.102V43.218C189.659 43.4447 189.58 43.6373 189.421 43.796C189.285 43.932 189.104 44 188.877 44H187.279C187.052 44 186.86 43.932 186.701 43.796C186.565 43.6373 186.497 43.4447 186.497 43.218V36.35H177.215V43.218C177.215 43.4447 177.147 43.6373 177.011 43.796C176.875 43.932 176.694 44 176.467 44H174.835ZM202.014 44.34C200.291 44.34 198.852 44.0113 197.696 43.354C196.54 42.6967 195.656 41.79 195.044 40.634C194.432 39.4553 194.092 38.118 194.024 36.622C194.001 36.2367 193.99 35.7493 193.99 35.16C193.99 34.548 194.001 34.0607 194.024 33.698C194.092 32.1793 194.432 30.842 195.044 29.686C195.679 28.53 196.574 27.6233 197.73 26.966C198.886 26.3087 200.314 25.98 202.014 25.98C203.714 25.98 205.142 26.3087 206.298 26.966C207.454 27.6233 208.338 28.53 208.95 29.686C209.585 30.842 209.936 32.1793 210.004 33.698C210.027 34.0607 210.038 34.548 210.038 35.16C210.038 35.7493 210.027 36.2367 210.004 36.622C209.936 38.118 209.596 39.4553 208.984 40.634C208.372 41.79 207.488 42.6967 206.332 43.354C205.176 44.0113 203.737 44.34 202.014 44.34ZM202.014 41.722C203.419 41.722 204.541 41.28 205.38 40.396C206.219 39.4893 206.672 38.1747 206.74 36.452C206.763 36.112 206.774 35.6813 206.774 35.16C206.774 34.6387 206.763 34.208 206.74 33.868C206.672 32.1453 206.219 30.842 205.38 29.958C204.541 29.0513 203.419 28.598 202.014 28.598C200.609 28.598 199.475 29.0513 198.614 29.958C197.775 30.842 197.333 32.1453 197.288 33.868C197.265 34.208 197.254 34.6387 197.254 35.16C197.254 35.6813 197.265 36.112 197.288 36.452C197.333 38.1747 197.775 39.4893 198.614 40.396C199.475 41.28 200.609 41.722 202.014 41.722Z" fill="white"/>
<path d="M30.4 33.9471L26.75 30.1471C26.45 29.8137 26.0833 29.6471 25.65 29.6471C25.2167 29.6471 24.8333 29.7971 24.5 30.0971C24.1667 30.4304 24 30.8137 24 31.2471C24 31.6804 24.1667 32.0637 24.5 32.3971L29.35 37.1971C29.65 37.4971 30 37.6471 30.4 37.6471C30.8 37.6471 31.15 37.4971 31.45 37.1971L40.6 28.0971C40.9 27.7971 41.05 27.4304 41.05 26.9971C41.05 26.5637 40.8833 26.1971 40.55 25.8971C40.25 25.6304 39.8917 25.5054 39.475 25.5221C39.0583 25.5387 38.7167 25.6804 38.45 25.9471L30.4 33.9471ZM25.15 51.3971L22.05 46.0971L15.85 44.8471C15.4833 44.7804 15.175 44.5804 14.925 44.2471C14.675 43.9137 14.5833 43.5637 14.65 43.1971L15.35 37.1971L11.4 32.5971C11.1333 32.3304 11 31.9971 11 31.5971C11 31.1971 11.1333 30.8637 11.4 30.5971L15.35 26.0471L14.65 20.0471C14.5833 19.6804 14.675 19.3304 14.925 18.9971C15.175 18.6637 15.4833 18.4637 15.85 18.3971L22.05 17.1471L25.15 11.7971C25.35 11.4637 25.6333 11.2304 26 11.0971C26.3667 10.9637 26.7333 10.9804 27.1 11.1471L32.55 13.6971L38 11.1471C38.3667 10.9804 38.7333 10.9554 39.1 11.0721C39.4667 11.1887 39.75 11.4137 39.95 11.7471L43.1 17.1471L49.25 18.3971C49.6167 18.4637 49.925 18.6637 50.175 18.9971C50.425 19.3304 50.5167 19.6804 50.45 20.0471L49.75 26.0471L53.7 30.5971C53.9667 30.8637 54.1 31.1971 54.1 31.5971C54.1 31.9971 53.9667 32.3304 53.7 32.5971L49.75 37.1971L50.45 43.1971C50.5167 43.5637 50.425 43.9137 50.175 44.2471C49.925 44.5804 49.6167 44.7804 49.25 44.8471L43.1 46.0971L39.95 51.4471C39.75 51.7804 39.4667 52.0054 39.1 52.1221C38.7333 52.2387 38.3667 52.2137 38 52.0471L32.55 49.4971L27.1 52.0471C26.7333 52.2137 26.3667 52.2304 26 52.0971C25.6333 51.9637 25.35 51.7304 25.15 51.3971ZM27.2 48.6471L32.55 46.3971L38.05 48.6471L41.4 43.6471L47.25 42.1471L46.65 36.1971L50.7 31.5971L46.65 26.8971L47.25 20.9471L41.4 19.5471L37.95 14.5471L32.55 16.7971L27.05 14.5471L23.7 19.5471L17.85 20.9471L18.45 26.8971L14.4 31.5971L18.45 36.1971L17.85 42.2471L23.7 43.6471L27.2 48.6471Z" fill="white"/>
</svg>
