<svg width="272" height="65" viewBox="0 0 272 65" fill="none" xmlns="http://www.w3.org/2000/svg">
<path d="M0 32.5C0 14.5507 14.5507 0 32.5 0H239.5C257.449 0 272 14.5507 272 32.5V32.5C272 50.4493 257.449 65 239.5 65H32.5C14.5508 65 0 50.4493 0 32.5V32.5Z" fill="#090909"/>
<path d="M75.74 43C75.4907 43 75.298 42.932 75.162 42.796C75.026 42.6373 74.958 42.4447 74.958 42.218V20.016C74.958 19.7667 75.026 19.574 75.162 19.438C75.298 19.2793 75.4907 19.2 75.74 19.2H77.474C77.7233 19.2 77.916 19.2793 78.052 19.438C78.2107 19.574 78.29 19.7667 78.29 20.016V29.4H82.132L88.184 19.744C88.2973 19.5627 88.4447 19.4267 88.626 19.336C88.8073 19.2453 89.0453 19.2 89.34 19.2H91.176C91.4253 19.2 91.6067 19.268 91.72 19.404C91.8333 19.54 91.89 19.6987 91.89 19.88C91.89 20.016 91.8333 20.1633 91.72 20.322L85.192 30.726L92.366 41.81C92.434 41.9007 92.468 42.0253 92.468 42.184C92.468 42.4107 92.3887 42.6033 92.23 42.762C92.094 42.9207 91.9127 43 91.686 43H89.748C89.4987 43 89.306 42.9547 89.17 42.864C89.0567 42.7507 88.9547 42.626 88.864 42.49L82.268 32.46H78.29V42.218C78.29 42.4447 78.2107 42.6373 78.052 42.796C77.916 42.932 77.7233 43 77.474 43H75.74ZM97.08 49.46C96.8534 49.46 96.6607 49.3807 96.502 49.222C96.366 49.086 96.298 48.9047 96.298 48.678V26.102C96.298 25.8753 96.366 25.694 96.502 25.558C96.6607 25.3993 96.8534 25.32 97.08 25.32H98.644C98.8707 25.32 99.052 25.3993 99.188 25.558C99.3467 25.694 99.426 25.8753 99.426 26.102V27.598C99.97 26.85 100.695 26.2267 101.602 25.728C102.509 25.2293 103.642 24.98 105.002 24.98C106.271 24.98 107.348 25.1953 108.232 25.626C109.139 26.0567 109.875 26.646 110.442 27.394C111.031 28.142 111.473 28.992 111.768 29.944C112.063 30.896 112.221 31.916 112.244 33.004C112.267 33.3667 112.278 33.752 112.278 34.16C112.278 34.568 112.267 34.9533 112.244 35.316C112.221 36.3813 112.063 37.4013 111.768 38.376C111.473 39.328 111.031 40.178 110.442 40.926C109.875 41.6513 109.139 42.2407 108.232 42.694C107.348 43.1247 106.271 43.34 105.002 43.34C103.687 43.34 102.577 43.102 101.67 42.626C100.786 42.1273 100.061 41.5153 99.494 40.79V48.678C99.494 48.9047 99.426 49.086 99.29 49.222C99.154 49.3807 98.9614 49.46 98.712 49.46H97.08ZM104.288 40.586C105.467 40.586 106.385 40.3367 107.042 39.838C107.722 39.3167 108.209 38.648 108.504 37.832C108.799 36.9933 108.969 36.098 109.014 35.146C109.037 34.4887 109.037 33.8313 109.014 33.174C108.969 32.222 108.799 31.338 108.504 30.522C108.209 29.6833 107.722 29.0147 107.042 28.516C106.385 27.9947 105.467 27.734 104.288 27.734C103.177 27.734 102.271 27.9947 101.568 28.516C100.888 29.0373 100.378 29.706 100.038 30.522C99.7207 31.3153 99.5394 32.1313 99.494 32.97C99.4714 33.3327 99.46 33.7633 99.46 34.262C99.46 34.7607 99.4714 35.2027 99.494 35.588C99.5167 36.3813 99.698 37.1633 100.038 37.934C100.401 38.7047 100.933 39.3393 101.636 39.838C102.339 40.3367 103.223 40.586 104.288 40.586ZM123.556 43.34C121.221 43.34 119.363 42.626 117.98 41.198C116.597 39.7473 115.838 37.7753 115.702 35.282C115.679 34.9873 115.668 34.6133 115.668 34.16C115.668 33.684 115.679 33.2987 115.702 33.004C115.793 31.3947 116.167 29.9893 116.824 28.788C117.481 27.564 118.377 26.6233 119.51 25.966C120.666 25.3087 122.015 24.98 123.556 24.98C125.279 24.98 126.718 25.3427 127.874 26.068C129.053 26.7933 129.948 27.8247 130.56 29.162C131.172 30.4993 131.478 32.0633 131.478 33.854V34.432C131.478 34.6813 131.399 34.874 131.24 35.01C131.104 35.146 130.923 35.214 130.696 35.214H118.932C118.932 35.2367 118.932 35.282 118.932 35.35C118.932 35.418 118.932 35.4747 118.932 35.52C118.977 36.4493 119.181 37.322 119.544 38.138C119.907 38.9313 120.428 39.5773 121.108 40.076C121.788 40.5747 122.604 40.824 123.556 40.824C124.372 40.824 125.052 40.6993 125.596 40.45C126.14 40.2007 126.582 39.9287 126.922 39.634C127.262 39.3167 127.489 39.0787 127.602 38.92C127.806 38.6253 127.965 38.4553 128.078 38.41C128.191 38.342 128.373 38.308 128.622 38.308H130.254C130.481 38.308 130.662 38.376 130.798 38.512C130.957 38.6253 131.025 38.7953 131.002 39.022C130.979 39.362 130.798 39.7813 130.458 40.28C130.118 40.756 129.631 41.232 128.996 41.708C128.361 42.184 127.591 42.5807 126.684 42.898C125.777 43.1927 124.735 43.34 123.556 43.34ZM118.932 32.868H128.248V32.766C128.248 31.746 128.055 30.8393 127.67 30.046C127.307 29.2527 126.775 28.6293 126.072 28.176C125.369 27.7 124.531 27.462 123.556 27.462C122.581 27.462 121.743 27.7 121.04 28.176C120.36 28.6293 119.839 29.2527 119.476 30.046C119.113 30.8393 118.932 31.746 118.932 32.766V32.868ZM140.473 43.34C139.34 43.34 138.309 43.1133 137.379 42.66C136.45 42.2067 135.702 41.5947 135.135 40.824C134.569 40.0533 134.285 39.1807 134.285 38.206C134.285 36.642 134.92 35.3953 136.189 34.466C137.459 33.5367 139.113 32.9247 141.153 32.63L146.219 31.916V30.93C146.219 29.842 145.902 28.992 145.267 28.38C144.655 27.768 143.647 27.462 142.241 27.462C141.221 27.462 140.394 27.666 139.759 28.074C139.147 28.482 138.717 29.0033 138.467 29.638C138.331 29.978 138.093 30.148 137.753 30.148H136.223C135.974 30.148 135.781 30.08 135.645 29.944C135.532 29.7853 135.475 29.604 135.475 29.4C135.475 29.06 135.6 28.6407 135.849 28.142C136.121 27.6433 136.529 27.156 137.073 26.68C137.617 26.204 138.309 25.8073 139.147 25.49C140.009 25.15 141.051 24.98 142.275 24.98C143.635 24.98 144.78 25.1613 145.709 25.524C146.639 25.864 147.364 26.3287 147.885 26.918C148.429 27.5073 148.815 28.176 149.041 28.924C149.291 29.672 149.415 30.4313 149.415 31.202V42.218C149.415 42.4447 149.336 42.6373 149.177 42.796C149.041 42.932 148.86 43 148.633 43H147.069C146.82 43 146.627 42.932 146.491 42.796C146.355 42.6373 146.287 42.4447 146.287 42.218V40.756C145.993 41.164 145.596 41.572 145.097 41.98C144.599 42.3653 143.975 42.694 143.227 42.966C142.479 43.2153 141.561 43.34 140.473 43.34ZM141.187 40.79C142.117 40.79 142.967 40.5973 143.737 40.212C144.508 39.804 145.109 39.1807 145.539 38.342C145.993 37.5033 146.219 36.4493 146.219 35.18V34.228L142.275 34.806C140.666 35.0327 139.453 35.418 138.637 35.962C137.821 36.4833 137.413 37.152 137.413 37.968C137.413 38.6027 137.595 39.1353 137.957 39.566C138.343 39.974 138.819 40.28 139.385 40.484C139.975 40.688 140.575 40.79 141.187 40.79ZM159.709 43C159.482 43 159.29 42.932 159.131 42.796C158.995 42.6373 158.927 42.4447 158.927 42.218V28.04H153.011C152.784 28.04 152.592 27.972 152.433 27.836C152.297 27.6773 152.229 27.4847 152.229 27.258V26.102C152.229 25.8753 152.297 25.694 152.433 25.558C152.592 25.3993 152.784 25.32 153.011 25.32H167.971C168.198 25.32 168.379 25.3993 168.515 25.558C168.674 25.694 168.753 25.8753 168.753 26.102V27.258C168.753 27.4847 168.674 27.6773 168.515 27.836C168.379 27.972 168.198 28.04 167.971 28.04H162.055V42.218C162.055 42.4447 161.987 42.6373 161.851 42.796C161.715 42.932 161.522 43 161.273 43H159.709ZM172.45 43C172.246 43 172.064 42.932 171.906 42.796C171.77 42.6373 171.702 42.4673 171.702 42.286V26.102C171.702 25.8753 171.77 25.694 171.906 25.558C172.064 25.3993 172.257 25.32 172.484 25.32H174.116C174.342 25.32 174.524 25.3993 174.66 25.558C174.796 25.694 174.864 25.8753 174.864 26.102V40.518L173.98 39.6L184.282 25.83C184.395 25.694 184.52 25.5807 184.656 25.49C184.792 25.3767 184.962 25.32 185.166 25.32H186.73C186.911 25.32 187.07 25.388 187.206 25.524C187.364 25.66 187.444 25.8187 187.444 26V42.218C187.444 42.4447 187.364 42.6373 187.206 42.796C187.07 42.932 186.888 43 186.662 43H185.064C184.814 43 184.622 42.932 184.486 42.796C184.35 42.6373 184.282 42.4447 184.282 42.218V28.652L185.234 28.618L174.864 42.49C174.773 42.6033 174.66 42.7167 174.524 42.83C174.388 42.9433 174.206 43 173.98 43H172.45ZM193.202 43C192.976 43 192.783 42.932 192.624 42.796C192.488 42.6373 192.42 42.4447 192.42 42.218V26.102C192.42 25.8753 192.488 25.694 192.624 25.558C192.783 25.3993 192.976 25.32 193.202 25.32H200.274C202.405 25.32 204.003 25.7507 205.068 26.612C206.156 27.4733 206.7 28.6293 206.7 30.08C206.7 31.1 206.508 31.8707 206.122 32.392C205.737 32.9133 205.193 33.3553 204.49 33.718C205.352 34.0807 205.998 34.67 206.428 35.486C206.882 36.2793 207.108 37.1067 207.108 37.968C207.108 39.6 206.53 40.8467 205.374 41.708C204.218 42.5693 202.609 43 200.546 43H193.202ZM195.548 40.518H200.274C201.362 40.518 202.235 40.314 202.892 39.906C203.572 39.4753 203.912 38.8293 203.912 37.968C203.912 37.0613 203.606 36.404 202.994 35.996C202.382 35.5653 201.476 35.35 200.274 35.35H195.548V40.518ZM195.548 32.834H200.07C201.158 32.834 202.02 32.596 202.654 32.12C203.312 31.644 203.64 30.9753 203.64 30.114C203.64 29.23 203.312 28.6293 202.654 28.312C202.02 27.972 201.158 27.802 200.07 27.802H195.548V32.834ZM212.261 43C212.034 43 211.842 42.932 211.683 42.796C211.547 42.6373 211.479 42.4447 211.479 42.218V26.102C211.479 25.8753 211.547 25.694 211.683 25.558C211.842 25.3993 212.034 25.32 212.261 25.32H213.893C214.12 25.32 214.301 25.3993 214.437 25.558C214.573 25.694 214.641 25.8753 214.641 26.102V32.63H223.923V26.102C223.923 25.8753 223.991 25.694 224.127 25.558C224.286 25.3993 224.478 25.32 224.705 25.32H226.303C226.53 25.32 226.711 25.3993 226.847 25.558C227.006 25.694 227.085 25.8753 227.085 26.102V42.218C227.085 42.4447 227.006 42.6373 226.847 42.796C226.711 42.932 226.53 43 226.303 43H224.705C224.478 43 224.286 42.932 224.127 42.796C223.991 42.6373 223.923 42.4447 223.923 42.218V35.35H214.641V42.218C214.641 42.4447 214.573 42.6373 214.437 42.796C214.301 42.932 214.12 43 213.893 43H212.261ZM239.44 43.34C237.717 43.34 236.278 43.0113 235.122 42.354C233.966 41.6967 233.082 40.79 232.47 39.634C231.858 38.4553 231.518 37.118 231.45 35.622C231.427 35.2367 231.416 34.7493 231.416 34.16C231.416 33.548 231.427 33.0607 231.45 32.698C231.518 31.1793 231.858 29.842 232.47 28.686C233.104 27.53 234 26.6233 235.156 25.966C236.312 25.3087 237.74 24.98 239.44 24.98C241.14 24.98 242.568 25.3087 243.724 25.966C244.88 26.6233 245.764 27.53 246.376 28.686C247.01 29.842 247.362 31.1793 247.43 32.698C247.452 33.0607 247.464 33.548 247.464 34.16C247.464 34.7493 247.452 35.2367 247.43 35.622C247.362 37.118 247.022 38.4553 246.41 39.634C245.798 40.79 244.914 41.6967 243.758 42.354C242.602 43.0113 241.162 43.34 239.44 43.34ZM239.44 40.722C240.845 40.722 241.967 40.28 242.806 39.396C243.644 38.4893 244.098 37.1747 244.166 35.452C244.188 35.112 244.2 34.6813 244.2 34.16C244.2 33.6387 244.188 33.208 244.166 32.868C244.098 31.1453 243.644 29.842 242.806 28.958C241.967 28.0513 240.845 27.598 239.44 27.598C238.034 27.598 236.901 28.0513 236.04 28.958C235.201 29.842 234.759 31.1453 234.714 32.868C234.691 33.208 234.68 33.6387 234.68 34.16C234.68 34.6813 234.691 35.112 234.714 35.452C234.759 37.1747 235.201 38.4893 236.04 39.396C236.901 40.28 238.034 40.722 239.44 40.722Z" fill="white"/>
<path d="M24.5 49C24.0667 49 23.7083 48.8583 23.425 48.575C23.1417 48.2917 23 47.9333 23 47.5V43.85C23 43.45 23.0833 43.0583 23.25 42.675C23.4167 42.2917 23.6333 41.9667 23.9 41.7L51.55 14.05C51.9167 13.6833 52.2917 13.4167 52.675 13.25C53.0583 13.0833 53.4667 13 53.9 13C54.3 13 54.6917 13.0833 55.075 13.25C55.4583 13.4167 55.8333 13.6833 56.2 14.05L57.95 15.8C58.3167 16.1333 58.5833 16.4917 58.75 16.875C58.9167 17.2583 59 17.6667 59 18.1C59 18.5 58.9167 18.9 58.75 19.3C58.5833 19.7 58.3167 20.0833 57.95 20.45L30.3 48.1C30.0333 48.3667 29.7083 48.5833 29.325 48.75C28.9417 48.9167 28.55 49 28.15 49H24.5ZM26 46H28.2L50.5 23.7L49.4 22.6L48.3 21.5L26 43.8V46ZM49.4 22.6L48.3 21.5L50.5 23.7L49.4 22.6ZM43 49C45.6 49 47.9167 48.3917 49.95 47.175C51.9833 45.9583 53 44.2333 53 42C53 40.8 52.6 39.7 51.8 38.7C51 37.7 49.7667 36.8333 48.1 36.1C47.7333 35.9333 47.3417 35.8667 46.925 35.9C46.5083 35.9333 46.1833 36.1333 45.95 36.5C45.7167 36.8667 45.6417 37.2667 45.725 37.7C45.8083 38.1333 46.0333 38.4333 46.4 38.6C47.5 39.1 48.375 39.6417 49.025 40.225C49.675 40.8083 50 41.4 50 42C50 43.0667 49.325 44 47.975 44.8C46.625 45.6 44.9667 46 43 46C42.6 46 42.25 46.1417 41.95 46.425C41.65 46.7083 41.5 47.0667 41.5 47.5C41.5 47.9 41.65 48.25 41.95 48.55C42.25 48.85 42.6 49 43 49ZM33.5 19.05C33.5 19.7167 33.1833 20.3 32.55 20.8C31.9167 21.3 30.5 21.95 28.3 22.75C25.1667 23.8833 23.1667 24.9167 22.3 25.85C21.4333 26.7833 21 27.8333 21 29C21 30.2667 21.45 31.2833 22.35 32.05C23.25 32.8167 24.25 33.4 25.35 33.8C25.75 33.9667 26.1333 33.9583 26.5 33.775C26.8667 33.5917 27.1167 33.3 27.25 32.9C27.3833 32.5 27.3667 32.125 27.2 31.775C27.0333 31.425 26.75 31.1667 26.35 31C25.5833 30.7 25 30.3833 24.6 30.05C24.2 29.7167 24 29.3667 24 29C24 28.4667 24.3583 27.9583 25.075 27.475C25.7917 26.9917 27.2667 26.3333 29.5 25.5C32.2667 24.4667 34.125 23.475 35.075 22.525C36.025 21.575 36.5 20.4167 36.5 19.05C36.5 17.1833 35.8167 15.7083 34.45 14.625C33.0833 13.5417 31.2667 13 29 13C27.6 13 26.3333 13.2417 25.2 13.725C24.0667 14.2083 23.2167 14.8167 22.65 15.55C22.3833 15.85 22.2583 16.2 22.275 16.6C22.2917 17 22.4833 17.3333 22.85 17.6C23.1833 17.8667 23.5583 17.975 23.975 17.925C24.3917 17.875 24.7333 17.7167 25 17.45C25.5 16.95 26.0667 16.5833 26.7 16.35C27.3333 16.1167 28.1 16 29 16C30.5333 16 31.6667 16.3 32.4 16.9C33.1333 17.5 33.5 18.2167 33.5 19.05Z" fill="white"/>
</svg>
