<svg width="97" height="44" viewBox="0 0 97 44" fill="none" xmlns="http://www.w3.org/2000/svg">
<path d="M0.72986 23.4679L4.68797 2.33714C4.83091 1.57409 5.17517 0.985447 5.72078 0.571221C6.26638 0.156995 6.88494 0.0146489 7.57646 0.144181C8.26797 0.273713 8.79308 0.630285 9.15177 1.2139C9.51046 1.79751 9.61834 2.47085 9.47541 3.2339L8.13542 10.3875L18.9071 12.4053L20.2471 5.25161C20.3901 4.48856 20.7343 3.89992 21.2799 3.48569C21.8255 3.07147 22.4441 2.92912 23.1356 3.05865C23.8271 3.18818 24.3522 3.54476 24.7109 4.12837C25.0696 4.71198 25.1775 5.38532 25.0346 6.14837L21.0765 27.2791C20.9335 28.0422 20.5893 28.6308 20.0437 29.045C19.498 29.4593 18.8795 29.6016 18.188 29.4721C17.4965 29.3425 16.9713 28.986 16.6127 28.4024C16.254 27.8187 16.1461 27.1454 16.289 26.3824L17.9176 17.6879L7.14589 15.6702L5.51729 24.3646C5.37436 25.1277 5.0301 25.7163 4.48449 26.1306C3.93889 26.5448 3.32033 26.6871 2.62881 26.5576C1.93729 26.4281 1.41219 26.0715 1.0535 25.4879C0.694808 24.9043 0.586928 24.2309 0.72986 23.4679ZM32.2471 29.3716L35.7105 10.8822L31.1225 10.0228C30.431 9.89323 29.9059 9.53666 29.5472 8.95304C29.1885 8.36943 29.0806 7.69609 29.2236 6.93304C29.3665 6.16999 29.7108 5.58134 30.2564 5.16712C30.802 4.75289 31.4205 4.61055 32.1121 4.74008L46.0754 7.35563C46.7669 7.48516 47.292 7.84173 47.6507 8.42535C48.0094 9.00896 48.1173 9.6823 47.9744 10.4454C47.8314 11.2084 47.4872 11.797 46.9416 12.2113C46.396 12.6255 45.7774 12.7678 45.0859 12.6383L40.4979 11.7789L37.0346 30.2683C36.8916 31.0314 36.5474 31.62 36.0018 32.0342C35.4562 32.4485 34.8376 32.5908 34.1461 32.4613C33.4546 32.3317 32.9295 31.9752 32.5708 31.3916C32.2121 30.8079 32.1042 30.1346 32.2471 29.3716ZM48.2052 32.3608L51.9572 12.3306C52.1634 11.23 52.6476 10.3904 53.4098 9.81169C54.172 9.23299 55.0518 9.03705 56.0492 9.22388L75.9969 12.9604C76.9942 13.1472 77.7435 13.6483 78.2446 14.4636C78.7457 15.279 78.8932 16.2369 78.687 17.3375L74.9351 37.3677C74.7921 38.1307 74.4479 38.7194 73.9023 39.1336C73.3567 39.5478 72.7381 39.6902 72.0466 39.5606C71.3551 39.4311 70.83 39.0745 70.4713 38.4909C70.1126 37.9073 70.0047 37.234 70.1476 36.4709L73.611 17.9815L67.4272 16.8232L64.8297 30.6902C64.6868 31.4533 64.3425 32.0419 63.7969 32.4562C63.2513 32.8704 62.6328 33.0127 61.9412 32.8832C61.2497 32.7537 60.7246 32.3971 60.3659 31.8135C60.0072 31.2299 59.8994 30.5565 60.0423 29.7935L62.6398 15.9264L56.456 14.7681L52.9927 33.2575C52.8497 34.0206 52.5055 34.6092 51.9599 35.0234C51.4143 35.4377 50.7957 35.58 50.1042 35.4505C49.4127 35.321 48.8876 34.9644 48.5289 34.3808C48.1702 33.7971 48.0623 33.1238 48.2052 32.3608ZM82.5191 41.5223C81.9207 41.4102 81.4334 41.0721 81.0573 40.508C80.6812 39.9439 80.555 39.3317 80.6787 38.6714L84.678 17.3205C84.8209 16.5575 85.1652 15.9688 85.7108 15.5546C86.2564 15.1404 86.875 14.998 87.5665 15.1276C88.258 15.2571 88.7831 15.6137 89.1418 16.1973C89.5005 16.7809 89.6084 17.4542 89.4654 18.2173L86.0021 36.7067L94.5796 38.3134C95.2711 38.4429 95.7962 38.7995 96.1549 39.3831C96.5136 39.9667 96.6215 40.64 96.4785 41.4031C96.3356 42.1661 95.9913 42.7548 95.4457 43.169C94.9001 43.5832 94.2816 43.7256 93.5901 43.5961L82.5191 41.5223Z" fill="#090909"/>
</svg>
