<svg width="38" height="36" viewBox="0 0 38 36" fill="none" xmlns="http://www.w3.org/2000/svg">
<path d="M3.5 36C3.06667 36 2.70833 35.8583 2.425 35.575C2.14167 35.2917 2 34.9333 2 34.5V30.85C2 30.45 2.08333 30.0583 2.25 29.675C2.41667 29.2917 2.63333 28.9667 2.9 28.7L30.55 1.05C30.9167 0.683333 31.2917 0.416667 31.675 0.25C32.0583 0.0833333 32.4667 0 32.9 0C33.3 0 33.6917 0.0833333 34.075 0.25C34.4583 0.416667 34.8333 0.683333 35.2 1.05L36.95 2.8C37.3167 3.13333 37.5833 3.49167 37.75 3.875C37.9167 4.25833 38 4.66667 38 5.1C38 5.5 37.9167 5.9 37.75 6.3C37.5833 6.7 37.3167 7.08333 36.95 7.45L9.3 35.1C9.03333 35.3667 8.70833 35.5833 8.325 35.75C7.94167 35.9167 7.55 36 7.15 36H3.5ZM5 33H7.2L29.5 10.7L28.4 9.6L27.3 8.5L5 30.8V33ZM28.4 9.6L27.3 8.5L29.5 10.7L28.4 9.6ZM22 36C24.6 36 26.9167 35.3917 28.95 34.175C30.9833 32.9583 32 31.2333 32 29C32 27.8 31.6 26.7 30.8 25.7C30 24.7 28.7667 23.8333 27.1 23.1C26.7333 22.9333 26.3417 22.8667 25.925 22.9C25.5083 22.9333 25.1833 23.1333 24.95 23.5C24.7167 23.8667 24.6417 24.2667 24.725 24.7C24.8083 25.1333 25.0333 25.4333 25.4 25.6C26.5 26.1 27.375 26.6417 28.025 27.225C28.675 27.8083 29 28.4 29 29C29 30.0667 28.325 31 26.975 31.8C25.625 32.6 23.9667 33 22 33C21.6 33 21.25 33.1417 20.95 33.425C20.65 33.7083 20.5 34.0667 20.5 34.5C20.5 34.9 20.65 35.25 20.95 35.55C21.25 35.85 21.6 36 22 36ZM12.5 6.05C12.5 6.71667 12.1833 7.3 11.55 7.8C10.9167 8.3 9.5 8.95 7.3 9.75C4.16667 10.8833 2.16667 11.9167 1.3 12.85C0.433333 13.7833 0 14.8333 0 16C0 17.2667 0.45 18.2833 1.35 19.05C2.25 19.8167 3.25 20.4 4.35 20.8C4.75 20.9667 5.13333 20.9583 5.5 20.775C5.86667 20.5917 6.11667 20.3 6.25 19.9C6.38333 19.5 6.36667 19.125 6.2 18.775C6.03333 18.425 5.75 18.1667 5.35 18C4.58333 17.7 4 17.3833 3.6 17.05C3.2 16.7167 3 16.3667 3 16C3 15.4667 3.35833 14.9583 4.075 14.475C4.79167 13.9917 6.26667 13.3333 8.5 12.5C11.2667 11.4667 13.125 10.475 14.075 9.525C15.025 8.575 15.5 7.41667 15.5 6.05C15.5 4.18333 14.8167 2.70833 13.45 1.625C12.0833 0.541667 10.2667 0 8 0C6.6 0 5.33333 0.241667 4.2 0.725C3.06667 1.20833 2.21667 1.81667 1.65 2.55C1.38333 2.85 1.25833 3.2 1.275 3.6C1.29167 4 1.48333 4.33333 1.85 4.6C2.18333 4.86667 2.55833 4.975 2.975 4.925C3.39167 4.875 3.73333 4.71667 4 4.45C4.5 3.95 5.06667 3.58333 5.7 3.35C6.33333 3.11667 7.1 3 8 3C9.53333 3 10.6667 3.3 11.4 3.9C12.1333 4.5 12.5 5.21667 12.5 6.05Z" fill="white"/>
</svg>
