<svg width="44" height="42" viewBox="0 0 44 42" fill="none" xmlns="http://www.w3.org/2000/svg">
<path d="M19.4 22.9471L15.75 19.1471C15.45 18.8137 15.0833 18.6471 14.65 18.6471C14.2167 18.6471 13.8333 18.7971 13.5 19.0971C13.1667 19.4304 13 19.8137 13 20.2471C13 20.6804 13.1667 21.0637 13.5 21.3971L18.35 26.1971C18.65 26.4971 19 26.6471 19.4 26.6471C19.8 26.6471 20.15 26.4971 20.45 26.1971L29.6 17.0971C29.9 16.7971 30.05 16.4304 30.05 15.9971C30.05 15.5637 29.8833 15.1971 29.55 14.8971C29.25 14.6304 28.8917 14.5054 28.475 14.5221C28.0583 14.5387 27.7167 14.6804 27.45 14.9471L19.4 22.9471ZM14.15 40.3971L11.05 35.0971L4.85 33.8471C4.48333 33.7804 4.175 33.5804 3.925 33.2471C3.675 32.9137 3.58333 32.5637 3.65 32.1971L4.35 26.1971L0.4 21.5971C0.133333 21.3304 0 20.9971 0 20.5971C0 20.1971 0.133333 19.8637 0.4 19.5971L4.35 15.0471L3.65 9.04706C3.58333 8.68039 3.675 8.33039 3.925 7.99706C4.175 7.66373 4.48333 7.46373 4.85 7.39706L11.05 6.14706L14.15 0.797059C14.35 0.463726 14.6333 0.230392 15 0.0970588C15.3667 -0.0362745 15.7333 -0.0196078 16.1 0.147059L21.55 2.69706L27 0.147059C27.3667 -0.0196078 27.7333 -0.0446078 28.1 0.0720588C28.4667 0.188726 28.75 0.413726 28.95 0.747059L32.1 6.14706L38.25 7.39706C38.6167 7.46373 38.925 7.66373 39.175 7.99706C39.425 8.33039 39.5167 8.68039 39.45 9.04706L38.75 15.0471L42.7 19.5971C42.9667 19.8637 43.1 20.1971 43.1 20.5971C43.1 20.9971 42.9667 21.3304 42.7 21.5971L38.75 26.1971L39.45 32.1971C39.5167 32.5637 39.425 32.9137 39.175 33.2471C38.925 33.5804 38.6167 33.7804 38.25 33.8471L32.1 35.0971L28.95 40.4471C28.75 40.7804 28.4667 41.0054 28.1 41.1221C27.7333 41.2387 27.3667 41.2137 27 41.0471L21.55 38.4971L16.1 41.0471C15.7333 41.2137 15.3667 41.2304 15 41.0971C14.6333 40.9637 14.35 40.7304 14.15 40.3971ZM16.2 37.6471L21.55 35.3971L27.05 37.6471L30.4 32.6471L36.25 31.1471L35.65 25.1971L39.7 20.5971L35.65 15.8971L36.25 9.94706L30.4 8.54706L26.95 3.54706L21.55 5.79706L16.05 3.54706L12.7 8.54706L6.85 9.94706L7.45 15.8971L3.4 20.5971L7.45 25.1971L6.85 31.2471L12.7 32.6471L16.2 37.6471Z" fill="white"/>
</svg>
