<svg width="40" height="40" viewBox="0 0 40 40" fill="none" xmlns="http://www.w3.org/2000/svg">
<path d="M20 40C17.2667 40 14.6833 39.475 12.25 38.425C9.81667 37.375 7.69167 35.9417 5.875 34.125C4.05833 32.3083 2.625 30.1833 1.575 27.75C0.525 25.3167 0 22.7333 0 20C0 17.2333 0.525 14.6333 1.575 12.2C2.625 9.76667 4.05833 7.65 5.875 5.85C7.69167 4.05 9.81667 2.625 12.25 1.575C14.6833 0.525 17.2667 0 20 0C22.7667 0 25.3667 0.525 27.8 1.575C30.2333 2.625 32.35 4.05 34.15 5.85C35.95 7.65 37.375 9.76667 38.425 12.2C39.475 14.6333 40 17.2333 40 20C40 22.7333 39.475 25.3167 38.425 27.75C37.375 30.1833 35.95 32.3083 34.15 34.125C32.35 35.9417 30.2333 37.375 27.8 38.425C25.3667 39.475 22.7667 40 20 40ZM20 37C24.7333 37 28.75 35.3417 32.05 32.025C35.35 28.7083 37 24.7 37 20C37 15.2667 35.35 11.25 32.05 7.95C28.75 4.65 24.7333 3 20 3C15.3 3 11.2917 4.65 7.975 7.95C4.65833 11.25 3 15.2667 3 20C3 24.7 4.65833 28.7083 7.975 32.025C11.2917 35.3417 15.3 37 20 37ZM19.95 34.35C20.3167 34.35 20.6333 34.2083 20.9 33.925C21.1667 33.6417 21.3 33.3167 21.3 32.95V31.75C23.3 31.5167 24.875 30.8417 26.025 29.725C27.175 28.6083 27.75 27.1833 27.75 25.45C27.75 23.7167 27.275 22.3333 26.325 21.3C25.375 20.2667 23.7333 19.3667 21.4 18.6C19.3 17.9 17.8583 17.2083 17.075 16.525C16.2917 15.8417 15.9 14.95 15.9 13.85C15.9 12.8167 16.275 12.0083 17.025 11.425C17.775 10.8417 18.8 10.55 20.1 10.55C20.9 10.55 21.6167 10.7 22.25 11C22.8833 11.3 23.4333 11.75 23.9 12.35C24.1333 12.6167 24.4167 12.8 24.75 12.9C25.0833 13 25.4 12.9667 25.7 12.8C26.0667 12.6333 26.3083 12.3667 26.425 12C26.5417 11.6333 26.4833 11.3 26.25 11C25.6833 10.2 24.9917 9.56667 24.175 9.1C23.3583 8.63333 22.4333 8.35 21.4 8.25V7.05C21.4 6.68333 21.2667 6.36667 21 6.1C20.7333 5.83333 20.4167 5.7 20.05 5.7C19.6833 5.7 19.3583 5.83333 19.075 6.1C18.7917 6.36667 18.65 6.68333 18.65 7.05V8.25C16.95 8.48333 15.6083 9.1 14.625 10.1C13.6417 11.1 13.15 12.35 13.15 13.85C13.15 15.4833 13.575 16.7833 14.425 17.75C15.275 18.7167 16.85 19.6333 19.15 20.5C21.5167 21.4 23.0833 22.1833 23.85 22.85C24.6167 23.5167 25 24.3833 25 25.45C25 26.55 24.55 27.475 23.65 28.225C22.75 28.975 21.65 29.35 20.35 29.35C19.25 29.35 18.2417 29.0833 17.325 28.55C16.4083 28.0167 15.7 27.2667 15.2 26.3C15.0333 26.0333 14.8083 25.825 14.525 25.675C14.2417 25.525 13.95 25.5 13.65 25.6C13.2167 25.7667 12.925 26.025 12.775 26.375C12.625 26.725 12.6667 27.0833 12.9 27.45C13.5667 28.55 14.3583 29.4417 15.275 30.125C16.1917 30.8083 17.2833 31.3167 18.55 31.65V33C18.55 33.3667 18.6917 33.6833 18.975 33.95C19.2583 34.2167 19.5833 34.35 19.95 34.35Z" fill="white"/>
</svg>
