<?xml version="1.0" standalone="no"?>
<!DOCTYPE svg PUBLIC "-//W3C//DTD SVG 20010904//EN"
 "http://www.w3.org/TR/2001/REC-SVG-20010904/DTD/svg10.dtd">
<svg version="1.0" xmlns="http://www.w3.org/2000/svg"
 width="512.000000pt" height="512.000000pt" viewBox="0 0 512.000000 512.000000"
 preserveAspectRatio="xMidYMid meet">

<g transform="translate(0.000000,512.000000) scale(0.100000,-0.100000)"
fill="#000000" stroke="none">
<path d="M0 2560 l0 -2560 2560 0 2560 0 0 2560 0 2560 -2560 0 -2560 0 0
-2560z m2940 1265 c465 -61 726 -264 827 -641 24 -91 26 -116 27 -299 0 -177
-2 -209 -22 -280 -46 -167 -153 -335 -276 -435 -31 -25 -56 -49 -56 -54 0 -5
77 -151 172 -325 94 -174 195 -359 223 -411 l52 -95 -410 -3 c-226 -1 -414 1
-417 5 -4 5 -83 153 -176 331 l-168 322 -323 0 -323 0 0 -330 0 -330 -420 0
-420 0 0 1280 0 1280 798 0 c653 0 819 -3 912 -15z"/>
<path d="M2075 3128 c-3 -7 -4 -135 -3 -283 l3 -270 309 -3 c342 -3 396 4 471
56 22 15 53 50 70 77 28 45 30 55 30 149 0 116 -17 162 -82 215 -75 62 -94 65
-461 69 -269 3 -333 1 -337 -10z"/>
</g>
</svg>
