<svg width="110" height="65" viewBox="0 0 110 65" fill="none" xmlns="http://www.w3.org/2000/svg">
<path d="M0 32C0 14.3269 14.3269 0 32 0H78C95.6731 0 110 14.3269 110 32V33C110 50.6731 95.6731 65 78 65H32C14.3269 65 0 50.6731 0 33V32Z" fill="#090909"/>
<path d="M33.526 45.34C31.4407 45.34 29.7067 44.9547 28.324 44.184C26.964 43.4133 25.9327 42.3367 25.23 40.954C24.5273 39.5713 24.142 37.962 24.074 36.126C24.0513 35.1967 24.04 34.1993 24.04 33.134C24.04 32.0687 24.0513 31.0487 24.074 30.074C24.142 28.238 24.5273 26.6287 25.23 25.246C25.9327 23.8633 26.964 22.7867 28.324 22.016C29.7067 21.2453 31.4407 20.86 33.526 20.86C35.09 20.86 36.4613 21.0753 37.64 21.506C38.8187 21.9367 39.7933 22.5147 40.564 23.24C41.3573 23.9653 41.958 24.7813 42.366 25.688C42.774 26.572 43.0007 27.49 43.046 28.442C43.0687 28.646 43.0007 28.816 42.842 28.952C42.706 29.088 42.536 29.156 42.332 29.156H40.462C40.258 29.156 40.0767 29.0993 39.918 28.986C39.782 28.8727 39.68 28.6687 39.612 28.374C39.2267 26.606 38.5013 25.3933 37.436 24.736C36.3933 24.0787 35.0787 23.75 33.492 23.75C31.6787 23.75 30.2393 24.2713 29.174 25.314C28.1087 26.334 27.5307 27.9773 27.44 30.244C27.372 32.1027 27.372 34.0067 27.44 35.956C27.5307 38.2227 28.1087 39.8773 29.174 40.92C30.2393 41.94 31.6787 42.45 33.492 42.45C35.0787 42.45 36.3933 42.1213 37.436 41.464C38.5013 40.8067 39.2267 39.594 39.612 37.826C39.68 37.5313 39.782 37.3273 39.918 37.214C40.0767 37.1007 40.258 37.044 40.462 37.044H42.332C42.536 37.044 42.706 37.112 42.842 37.248C43.0007 37.384 43.0687 37.554 43.046 37.758C43.0007 38.71 42.774 39.6393 42.366 40.546C41.958 41.43 41.3573 42.2347 40.564 42.96C39.7933 43.6853 38.8187 44.2633 37.64 44.694C36.4613 45.1247 35.09 45.34 33.526 45.34ZM55.2525 45.34C53.2805 45.34 51.6259 45.0453 50.2885 44.456C48.9512 43.844 47.9199 43.062 47.1945 42.11C46.4919 41.1353 46.1179 40.104 46.0725 39.016C46.0725 38.8347 46.1405 38.676 46.2765 38.54C46.4352 38.3813 46.6165 38.302 46.8205 38.302H48.5545C48.8265 38.302 49.0305 38.37 49.1665 38.506C49.3025 38.642 49.3932 38.8007 49.4385 38.982C49.5519 39.526 49.8239 40.07 50.2545 40.614C50.7079 41.1353 51.3312 41.5773 52.1245 41.94C52.9405 42.28 53.9832 42.45 55.2525 42.45C57.2019 42.45 58.6299 42.11 59.5365 41.43C60.4659 40.7273 60.9305 39.798 60.9305 38.642C60.9305 37.8487 60.6812 37.214 60.1825 36.738C59.7065 36.2393 58.9699 35.7973 57.9725 35.412C56.9752 35.0267 55.6832 34.6073 54.0965 34.154C52.4419 33.678 51.0705 33.1567 49.9825 32.59C48.8945 32.0233 48.0785 31.3207 47.5345 30.482C47.0132 29.6433 46.7525 28.578 46.7525 27.286C46.7525 26.062 47.0812 24.974 47.7385 24.022C48.3959 23.0473 49.3365 22.2767 50.5605 21.71C51.8072 21.1433 53.3145 20.86 55.0825 20.86C56.4879 20.86 57.7119 21.0527 58.7545 21.438C59.8199 21.8007 60.7039 22.2993 61.4065 22.934C62.1092 23.546 62.6419 24.2147 63.0045 24.94C63.3672 25.6427 63.5599 26.334 63.5825 27.014C63.5825 27.1727 63.5259 27.3313 63.4125 27.49C63.2992 27.626 63.1179 27.694 62.8685 27.694H61.0665C60.9079 27.694 60.7379 27.6487 60.5565 27.558C60.3979 27.4673 60.2732 27.2973 60.1825 27.048C60.0465 26.1187 59.5252 25.3367 58.6185 24.702C57.7119 24.0673 56.5332 23.75 55.0825 23.75C53.6092 23.75 52.4079 24.0333 51.4785 24.6C50.5719 25.1667 50.1185 26.0507 50.1185 27.252C50.1185 28.0227 50.3339 28.6687 50.7645 29.19C51.1952 29.6887 51.8752 30.1307 52.8045 30.516C53.7339 30.9013 54.9465 31.3093 56.4425 31.74C58.2559 32.2387 59.7405 32.7713 60.8965 33.338C62.0525 33.882 62.9025 34.5733 63.4465 35.412C64.0132 36.228 64.2965 37.282 64.2965 38.574C64.2965 40.002 63.9225 41.226 63.1745 42.246C62.4265 43.2433 61.3725 44.014 60.0125 44.558C58.6752 45.0793 57.0885 45.34 55.2525 45.34ZM76.4029 45.34C74.4309 45.34 72.7763 45.0453 71.4389 44.456C70.1016 43.844 69.0703 43.062 68.3449 42.11C67.6423 41.1353 67.2683 40.104 67.2229 39.016C67.2229 38.8347 67.2909 38.676 67.4269 38.54C67.5856 38.3813 67.7669 38.302 67.9709 38.302H69.7049C69.9769 38.302 70.1809 38.37 70.3169 38.506C70.4529 38.642 70.5436 38.8007 70.5889 38.982C70.7023 39.526 70.9743 40.07 71.4049 40.614C71.8583 41.1353 72.4816 41.5773 73.2749 41.94C74.0909 42.28 75.1336 42.45 76.4029 42.45C78.3523 42.45 79.7803 42.11 80.6869 41.43C81.6163 40.7273 82.0809 39.798 82.0809 38.642C82.0809 37.8487 81.8316 37.214 81.3329 36.738C80.8569 36.2393 80.1203 35.7973 79.1229 35.412C78.1256 35.0267 76.8336 34.6073 75.2469 34.154C73.5923 33.678 72.2209 33.1567 71.1329 32.59C70.0449 32.0233 69.2289 31.3207 68.6849 30.482C68.1636 29.6433 67.9029 28.578 67.9029 27.286C67.9029 26.062 68.2316 24.974 68.8889 24.022C69.5463 23.0473 70.4869 22.2767 71.7109 21.71C72.9576 21.1433 74.4649 20.86 76.2329 20.86C77.6383 20.86 78.8623 21.0527 79.9049 21.438C80.9703 21.8007 81.8543 22.2993 82.5569 22.934C83.2596 23.546 83.7923 24.2147 84.1549 24.94C84.5176 25.6427 84.7103 26.334 84.7329 27.014C84.7329 27.1727 84.6763 27.3313 84.5629 27.49C84.4496 27.626 84.2683 27.694 84.0189 27.694H82.2169C82.0583 27.694 81.8883 27.6487 81.7069 27.558C81.5483 27.4673 81.4236 27.2973 81.3329 27.048C81.1969 26.1187 80.6756 25.3367 79.7689 24.702C78.8623 24.0673 77.6836 23.75 76.2329 23.75C74.7596 23.75 73.5583 24.0333 72.6289 24.6C71.7223 25.1667 71.2689 26.0507 71.2689 27.252C71.2689 28.0227 71.4843 28.6687 71.9149 29.19C72.3456 29.6887 73.0256 30.1307 73.9549 30.516C74.8843 30.9013 76.0969 31.3093 77.5929 31.74C79.4063 32.2387 80.8909 32.7713 82.0469 33.338C83.2029 33.882 84.0529 34.5733 84.5969 35.412C85.1636 36.228 85.4469 37.282 85.4469 38.574C85.4469 40.002 85.0729 41.226 84.3249 42.246C83.5769 43.2433 82.5229 44.014 81.1629 44.558C79.8256 45.0793 78.2389 45.34 76.4029 45.34Z" fill="white"/>
</svg>
