<svg width="155" height="65" viewBox="0 0 155 65" fill="none" xmlns="http://www.w3.org/2000/svg">
<path d="M0 32.5C0 14.5507 14.5507 0 32.5 0H122.5C140.449 0 155 14.5507 155 32.5C155 50.4493 140.449 65 122.5 65H32.5C14.5507 65 0 50.4493 0 32.5Z" fill="#090909"/>
<path d="M34.74 43C34.4907 43 34.298 42.932 34.162 42.796C34.026 42.6373 33.958 42.4447 33.958 42.218V20.016C33.958 19.7667 34.026 19.574 34.162 19.438C34.298 19.2793 34.4907 19.2 34.74 19.2H36.474C36.7233 19.2 36.916 19.2793 37.052 19.438C37.2107 19.574 37.29 19.7667 37.29 20.016V29.4H48.986V20.016C48.986 19.7667 49.054 19.574 49.19 19.438C49.3487 19.2793 49.5413 19.2 49.768 19.2H51.502C51.7513 19.2 51.944 19.2793 52.08 19.438C52.2387 19.574 52.318 19.7667 52.318 20.016V42.218C52.318 42.4447 52.2387 42.6373 52.08 42.796C51.944 42.932 51.7513 43 51.502 43H49.768C49.5413 43 49.3487 42.932 49.19 42.796C49.054 42.6373 48.986 42.4447 48.986 42.218V32.46H37.29V42.218C37.29 42.4447 37.2107 42.6373 37.052 42.796C36.916 42.932 36.7233 43 36.474 43H34.74ZM64.1803 43C63.9536 43 63.7609 42.932 63.6023 42.796C63.4663 42.6373 63.3983 42.4447 63.3983 42.218V22.226H56.8703C56.6436 22.226 56.4509 22.158 56.2923 22.022C56.1563 21.8633 56.0883 21.6707 56.0883 21.444V20.016C56.0883 19.7667 56.1563 19.574 56.2923 19.438C56.4509 19.2793 56.6436 19.2 56.8703 19.2H73.2583C73.5076 19.2 73.7003 19.2793 73.8363 19.438C73.9949 19.574 74.0743 19.7667 74.0743 20.016V21.444C74.0743 21.6707 73.9949 21.8633 73.8363 22.022C73.7003 22.158 73.5076 22.226 73.2583 22.226H66.7643V42.218C66.7643 42.4447 66.6849 42.6373 66.5263 42.796C66.3903 42.932 66.1976 43 65.9483 43H64.1803ZM78.6677 43C78.4411 43 78.2484 42.932 78.0897 42.796C77.9537 42.6373 77.8857 42.4447 77.8857 42.218V20.016C77.8857 19.7667 77.9537 19.574 78.0897 19.438C78.2484 19.2793 78.4411 19.2 78.6677 19.2H80.3677C80.6397 19.2 80.8437 19.268 80.9797 19.404C81.1157 19.54 81.1951 19.6533 81.2177 19.744L88.4257 33.48L95.6677 19.744C95.7131 19.6533 95.7924 19.54 95.9057 19.404C96.0417 19.268 96.2457 19.2 96.5177 19.2H98.1837C98.4331 19.2 98.6257 19.2793 98.7617 19.438C98.9204 19.574 98.9997 19.7667 98.9997 20.016V42.218C98.9997 42.4447 98.9204 42.6373 98.7617 42.796C98.6257 42.932 98.4331 43 98.1837 43H96.5177C96.2911 43 96.0984 42.932 95.9397 42.796C95.8037 42.6373 95.7357 42.4447 95.7357 42.218V25.49L90.0577 36.574C89.9671 36.8007 89.8311 36.982 89.6497 37.118C89.4684 37.2313 89.2417 37.288 88.9697 37.288H87.9157C87.6211 37.288 87.3831 37.2313 87.2017 37.118C87.0431 36.982 86.9071 36.8007 86.7937 36.574L81.1157 25.49V42.218C81.1157 42.4447 81.0364 42.6373 80.8777 42.796C80.7417 42.932 80.5604 43 80.3337 43H78.6677ZM105.662 43C105.413 43 105.22 42.932 105.084 42.796C104.948 42.6373 104.88 42.4447 104.88 42.218V19.982C104.88 19.7553 104.948 19.574 105.084 19.438C105.22 19.2793 105.413 19.2 105.662 19.2H107.464C107.691 19.2 107.872 19.2793 108.008 19.438C108.144 19.574 108.212 19.7553 108.212 19.982V40.042H119.534C119.783 40.042 119.976 40.1213 120.112 40.28C120.248 40.416 120.316 40.6087 120.316 40.858V42.218C120.316 42.4447 120.248 42.6373 120.112 42.796C119.976 42.932 119.783 43 119.534 43H105.662Z" fill="white"/>
</svg>
