<svg width="220" height="65" viewBox="0 0 220 65" fill="none" xmlns="http://www.w3.org/2000/svg">
<path d="M0 32.5C0 14.5507 14.5507 0 32.5 0H187.5C205.449 0 220 14.5507 220 32.5C220 50.4493 205.449 65 187.5 65H32.5C14.5507 65 0 50.4493 0 32.5Z" fill="#090909"/>
<path d="M36.03 43.34C34.874 43.34 33.7747 43.204 32.732 42.932C31.712 42.6373 30.794 42.1953 29.978 41.606C29.1847 40.994 28.55 40.2347 28.074 39.328C27.598 38.4213 27.3373 37.356 27.292 36.132C27.292 35.928 27.36 35.758 27.496 35.622C27.632 35.4633 27.8133 35.384 28.04 35.384H29.876C30.1253 35.384 30.318 35.4633 30.454 35.622C30.6127 35.758 30.7147 35.9393 30.76 36.166C30.8507 37.186 31.1453 38.0133 31.644 38.648C32.1427 39.26 32.7773 39.7133 33.548 40.008C34.3187 40.3027 35.1687 40.45 36.098 40.45C37.8207 40.45 39.1353 39.8833 40.042 38.75C40.9487 37.6167 41.402 36.1093 41.402 34.228V22.158H29.332C29.1053 22.158 28.9127 22.09 28.754 21.954C28.618 21.7953 28.55 21.6027 28.55 21.376V19.982C28.55 19.7553 28.618 19.574 28.754 19.438C28.9127 19.2793 29.1053 19.2 29.332 19.2H43.986C44.2353 19.2 44.428 19.2793 44.564 19.438C44.7227 19.574 44.802 19.7667 44.802 20.016V34.296C44.802 36.132 44.4507 37.73 43.748 39.09C43.0453 40.45 42.048 41.504 40.756 42.252C39.464 42.9773 37.8887 43.34 36.03 43.34ZM54.862 43.34C53.7287 43.34 52.6973 43.1133 51.768 42.66C50.8387 42.2067 50.0907 41.5947 49.524 40.824C48.9573 40.0533 48.674 39.1807 48.674 38.206C48.674 36.642 49.3087 35.3953 50.578 34.466C51.8473 33.5367 53.502 32.9247 55.542 32.63L60.608 31.916V30.93C60.608 29.842 60.2907 28.992 59.656 28.38C59.044 27.768 58.0353 27.462 56.63 27.462C55.61 27.462 54.7827 27.666 54.148 28.074C53.536 28.482 53.1053 29.0033 52.856 29.638C52.72 29.978 52.482 30.148 52.142 30.148H50.612C50.3627 30.148 50.17 30.08 50.034 29.944C49.9207 29.7853 49.864 29.604 49.864 29.4C49.864 29.06 49.9887 28.6407 50.238 28.142C50.51 27.6433 50.918 27.156 51.462 26.68C52.006 26.204 52.6973 25.8073 53.536 25.49C54.3973 25.15 55.44 24.98 56.664 24.98C58.024 24.98 59.1687 25.1613 60.098 25.524C61.0274 25.864 61.7527 26.3287 62.274 26.918C62.818 27.5073 63.2033 28.176 63.43 28.924C63.6793 29.672 63.804 30.4313 63.804 31.202V42.218C63.804 42.4447 63.7247 42.6373 63.566 42.796C63.43 42.932 63.2487 43 63.022 43H61.458C61.2087 43 61.016 42.932 60.88 42.796C60.744 42.6373 60.676 42.4447 60.676 42.218V40.756C60.3813 41.164 59.9847 41.572 59.486 41.98C58.9873 42.3653 58.364 42.694 57.616 42.966C56.868 43.2153 55.95 43.34 54.862 43.34ZM55.576 40.79C56.5053 40.79 57.3553 40.5973 58.126 40.212C58.8967 39.804 59.4973 39.1807 59.928 38.342C60.3813 37.5033 60.608 36.4493 60.608 35.18V34.228L56.664 34.806C55.0547 35.0327 53.842 35.418 53.026 35.962C52.21 36.4833 51.802 37.152 51.802 37.968C51.802 38.6027 51.9833 39.1353 52.346 39.566C52.7313 39.974 53.2073 40.28 53.774 40.484C54.3633 40.688 54.964 40.79 55.576 40.79ZM74.5138 43C74.1738 43 73.9018 42.9207 73.6978 42.762C73.5164 42.6033 73.3691 42.3993 73.2558 42.15L66.9657 26.374C66.9204 26.2607 66.8978 26.1473 66.8978 26.034C66.8978 25.83 66.9658 25.66 67.1018 25.524C67.2378 25.388 67.4078 25.32 67.6118 25.32H69.2438C69.4931 25.32 69.6858 25.388 69.8218 25.524C69.9578 25.66 70.0371 25.7847 70.0598 25.898L75.2618 39.294L80.4298 25.898C80.4751 25.7847 80.5544 25.66 80.6678 25.524C80.8038 25.388 80.9964 25.32 81.2458 25.32H82.9118C83.0931 25.32 83.2518 25.388 83.3878 25.524C83.5464 25.66 83.6258 25.83 83.6258 26.034C83.6258 26.1473 83.6031 26.2607 83.5578 26.374L77.2338 42.15C77.1431 42.3993 76.9958 42.6033 76.7918 42.762C76.6104 42.9207 76.3384 43 75.9758 43H74.5138ZM91.4519 43.34C90.3185 43.34 89.2872 43.1133 88.3579 42.66C87.4285 42.2067 86.6805 41.5947 86.1139 40.824C85.5472 40.0533 85.2639 39.1807 85.2639 38.206C85.2639 36.642 85.8985 35.3953 87.1679 34.466C88.4372 33.5367 90.0919 32.9247 92.1319 32.63L97.1979 31.916V30.93C97.1979 29.842 96.8805 28.992 96.2459 28.38C95.6339 27.768 94.6252 27.462 93.2199 27.462C92.1999 27.462 91.3725 27.666 90.7379 28.074C90.1259 28.482 89.6952 29.0033 89.4459 29.638C89.3099 29.978 89.0719 30.148 88.7319 30.148H87.2019C86.9525 30.148 86.7599 30.08 86.6239 29.944C86.5105 29.7853 86.4539 29.604 86.4539 29.4C86.4539 29.06 86.5785 28.6407 86.8279 28.142C87.0999 27.6433 87.5079 27.156 88.0519 26.68C88.5959 26.204 89.2872 25.8073 90.1259 25.49C90.9872 25.15 92.0299 24.98 93.2539 24.98C94.6139 24.98 95.7585 25.1613 96.6879 25.524C97.6172 25.864 98.3425 26.3287 98.8639 26.918C99.4079 27.5073 99.7932 28.176 100.02 28.924C100.269 29.672 100.394 30.4313 100.394 31.202V42.218C100.394 42.4447 100.315 42.6373 100.156 42.796C100.02 42.932 99.8385 43 99.6119 43H98.0479C97.7985 43 97.6059 42.932 97.4699 42.796C97.3339 42.6373 97.2659 42.4447 97.2659 42.218V40.756C96.9712 41.164 96.5745 41.572 96.0759 41.98C95.5772 42.3653 94.9539 42.694 94.2059 42.966C93.4579 43.2153 92.5399 43.34 91.4519 43.34ZM92.1659 40.79C93.0952 40.79 93.9452 40.5973 94.7159 40.212C95.4865 39.804 96.0872 39.1807 96.5179 38.342C96.9712 37.5033 97.1979 36.4493 97.1979 35.18V34.228L93.2539 34.806C91.6445 35.0327 90.4319 35.418 89.6159 35.962C88.7999 36.4833 88.3919 37.152 88.3919 37.968C88.3919 38.6027 88.5732 39.1353 88.9359 39.566C89.3212 39.974 89.7972 40.28 90.3639 40.484C90.9532 40.688 91.5539 40.79 92.1659 40.79ZM113.374 43.34C111.402 43.34 109.747 43.0453 108.41 42.456C107.072 41.844 106.041 41.062 105.316 40.11C104.613 39.1353 104.239 38.104 104.194 37.016C104.194 36.8347 104.262 36.676 104.398 36.54C104.556 36.3813 104.738 36.302 104.942 36.302H106.676C106.948 36.302 107.152 36.37 107.288 36.506C107.424 36.642 107.514 36.8007 107.56 36.982C107.673 37.526 107.945 38.07 108.376 38.614C108.829 39.1353 109.452 39.5773 110.246 39.94C111.062 40.28 112.104 40.45 113.374 40.45C115.323 40.45 116.751 40.11 117.658 39.43C118.587 38.7273 119.052 37.798 119.052 36.642C119.052 35.8487 118.802 35.214 118.304 34.738C117.828 34.2393 117.091 33.7973 116.094 33.412C115.096 33.0267 113.804 32.6073 112.218 32.154C110.563 31.678 109.192 31.1567 108.104 30.59C107.016 30.0233 106.2 29.3207 105.656 28.482C105.134 27.6433 104.874 26.578 104.874 25.286C104.874 24.062 105.202 22.974 105.86 22.022C106.517 21.0473 107.458 20.2767 108.682 19.71C109.928 19.1433 111.436 18.86 113.204 18.86C114.609 18.86 115.833 19.0527 116.876 19.438C117.941 19.8007 118.825 20.2993 119.528 20.934C120.23 21.546 120.763 22.2147 121.126 22.94C121.488 23.6427 121.681 24.334 121.704 25.014C121.704 25.1727 121.647 25.3313 121.534 25.49C121.42 25.626 121.239 25.694 120.99 25.694H119.188C119.029 25.694 118.859 25.6487 118.678 25.558C118.519 25.4673 118.394 25.2973 118.304 25.048C118.168 24.1187 117.646 23.3367 116.74 22.702C115.833 22.0673 114.654 21.75 113.204 21.75C111.73 21.75 110.529 22.0333 109.6 22.6C108.693 23.1667 108.24 24.0507 108.24 25.252C108.24 26.0227 108.455 26.6687 108.886 27.19C109.316 27.6887 109.996 28.1307 110.926 28.516C111.855 28.9013 113.068 29.3093 114.564 29.74C116.377 30.2387 117.862 30.7713 119.018 31.338C120.174 31.882 121.024 32.5733 121.568 33.412C122.134 34.228 122.418 35.282 122.418 36.574C122.418 38.002 122.044 39.226 121.296 40.246C120.548 41.2433 119.494 42.014 118.134 42.558C116.796 43.0793 115.21 43.34 113.374 43.34ZM133.572 43.34C131.963 43.34 130.569 43.034 129.39 42.422C128.234 41.7873 127.339 40.892 126.704 39.736C126.069 38.5573 125.729 37.152 125.684 35.52C125.661 35.18 125.65 34.7267 125.65 34.16C125.65 33.5933 125.661 33.14 125.684 32.8C125.729 31.168 126.069 29.774 126.704 28.618C127.339 27.4393 128.234 26.544 129.39 25.932C130.569 25.2973 131.963 24.98 133.572 24.98C134.887 24.98 136.009 25.1613 136.938 25.524C137.89 25.8867 138.672 26.3513 139.284 26.918C139.896 27.4847 140.349 28.0967 140.644 28.754C140.961 29.4113 141.131 30.0347 141.154 30.624C141.177 30.8507 141.109 31.032 140.95 31.168C140.791 31.304 140.599 31.372 140.372 31.372H138.74C138.513 31.372 138.343 31.3267 138.23 31.236C138.117 31.1227 138.003 30.9413 137.89 30.692C137.482 29.5813 136.927 28.7993 136.224 28.346C135.521 27.8927 134.649 27.666 133.606 27.666C132.246 27.666 131.135 28.0853 130.274 28.924C129.435 29.7627 128.982 31.1113 128.914 32.97C128.891 33.786 128.891 34.5793 128.914 35.35C128.982 37.2313 129.435 38.5913 130.274 39.43C131.135 40.246 132.246 40.654 133.606 40.654C134.649 40.654 135.521 40.4273 136.224 39.974C136.927 39.5207 137.482 38.7387 137.89 37.628C138.003 37.3787 138.117 37.2087 138.23 37.118C138.343 37.0047 138.513 36.948 138.74 36.948H140.372C140.599 36.948 140.791 37.016 140.95 37.152C141.109 37.288 141.177 37.4693 141.154 37.696C141.131 38.172 141.029 38.6593 140.848 39.158C140.667 39.6567 140.372 40.1667 139.964 40.688C139.579 41.1867 139.091 41.64 138.502 42.048C137.913 42.4333 137.199 42.7507 136.36 43C135.544 43.2267 134.615 43.34 133.572 43.34ZM145.974 43C145.747 43 145.554 42.932 145.396 42.796C145.26 42.6373 145.192 42.4447 145.192 42.218V26.136C145.192 25.9093 145.26 25.7167 145.396 25.558C145.554 25.3993 145.747 25.32 145.974 25.32H147.538C147.764 25.32 147.957 25.3993 148.116 25.558C148.274 25.7167 148.354 25.9093 148.354 26.136V27.632C148.807 26.8613 149.43 26.2833 150.224 25.898C151.017 25.5127 151.969 25.32 153.08 25.32H154.44C154.666 25.32 154.848 25.3993 154.984 25.558C155.12 25.694 155.188 25.8753 155.188 26.102V27.496C155.188 27.7227 155.12 27.904 154.984 28.04C154.848 28.176 154.666 28.244 154.44 28.244H152.4C151.176 28.244 150.212 28.6067 149.51 29.332C148.807 30.0347 148.456 30.998 148.456 32.222V42.218C148.456 42.4447 148.376 42.6373 148.218 42.796C148.059 42.932 147.866 43 147.64 43H145.974ZM158.89 43C158.663 43 158.47 42.932 158.312 42.796C158.176 42.6373 158.108 42.4447 158.108 42.218V26.102C158.108 25.8753 158.176 25.694 158.312 25.558C158.47 25.3993 158.663 25.32 158.89 25.32H160.522C160.748 25.32 160.93 25.3993 161.066 25.558C161.202 25.694 161.27 25.8753 161.27 26.102V42.218C161.27 42.4447 161.202 42.6373 161.066 42.796C160.93 42.932 160.748 43 160.522 43H158.89ZM158.618 22.022C158.391 22.022 158.198 21.954 158.04 21.818C157.904 21.6593 157.836 21.4667 157.836 21.24V19.404C157.836 19.1773 157.904 18.996 158.04 18.86C158.198 18.7013 158.391 18.622 158.618 18.622H160.76C160.986 18.622 161.168 18.7013 161.304 18.86C161.462 18.996 161.542 19.1773 161.542 19.404V21.24C161.542 21.4667 161.462 21.6593 161.304 21.818C161.168 21.954 160.986 22.022 160.76 22.022H158.618ZM167.158 49.46C166.932 49.46 166.739 49.3807 166.58 49.222C166.444 49.086 166.376 48.9047 166.376 48.678V26.102C166.376 25.8753 166.444 25.694 166.58 25.558C166.739 25.3993 166.932 25.32 167.158 25.32H168.722C168.949 25.32 169.13 25.3993 169.266 25.558C169.425 25.694 169.504 25.8753 169.504 26.102V27.598C170.048 26.85 170.774 26.2267 171.68 25.728C172.587 25.2293 173.72 24.98 175.08 24.98C176.35 24.98 177.426 25.1953 178.31 25.626C179.217 26.0567 179.954 26.646 180.52 27.394C181.11 28.142 181.552 28.992 181.846 29.944C182.141 30.896 182.3 31.916 182.322 33.004C182.345 33.3667 182.356 33.752 182.356 34.16C182.356 34.568 182.345 34.9533 182.322 35.316C182.3 36.3813 182.141 37.4013 181.846 38.376C181.552 39.328 181.11 40.178 180.52 40.926C179.954 41.6513 179.217 42.2407 178.31 42.694C177.426 43.1247 176.35 43.34 175.08 43.34C173.766 43.34 172.655 43.102 171.748 42.626C170.864 42.1273 170.139 41.5153 169.572 40.79V48.678C169.572 48.9047 169.504 49.086 169.368 49.222C169.232 49.3807 169.04 49.46 168.79 49.46H167.158ZM174.366 40.586C175.545 40.586 176.463 40.3367 177.12 39.838C177.8 39.3167 178.288 38.648 178.582 37.832C178.877 36.9933 179.047 36.098 179.092 35.146C179.115 34.4887 179.115 33.8313 179.092 33.174C179.047 32.222 178.877 31.338 178.582 30.522C178.288 29.6833 177.8 29.0147 177.12 28.516C176.463 27.9947 175.545 27.734 174.366 27.734C173.256 27.734 172.349 27.9947 171.646 28.516C170.966 29.0373 170.456 29.706 170.116 30.522C169.799 31.3153 169.618 32.1313 169.572 32.97C169.55 33.3327 169.538 33.7633 169.538 34.262C169.538 34.7607 169.55 35.2027 169.572 35.588C169.595 36.3813 169.776 37.1633 170.116 37.934C170.479 38.7047 171.012 39.3393 171.714 39.838C172.417 40.3367 173.301 40.586 174.366 40.586ZM193.299 43C192.03 43 190.998 42.762 190.205 42.286C189.412 41.7873 188.834 41.096 188.471 40.212C188.108 39.3053 187.927 38.24 187.927 37.016V28.04H185.275C185.048 28.04 184.856 27.972 184.697 27.836C184.561 27.6773 184.493 27.4847 184.493 27.258V26.102C184.493 25.8753 184.561 25.694 184.697 25.558C184.856 25.3993 185.048 25.32 185.275 25.32H187.927V19.642C187.927 19.4153 187.995 19.234 188.131 19.098C188.29 18.9393 188.482 18.86 188.709 18.86H190.307C190.534 18.86 190.715 18.9393 190.851 19.098C191.01 19.234 191.089 19.4153 191.089 19.642V25.32H195.305C195.532 25.32 195.713 25.3993 195.849 25.558C196.008 25.694 196.087 25.8753 196.087 26.102V27.258C196.087 27.4847 196.008 27.6773 195.849 27.836C195.713 27.972 195.532 28.04 195.305 28.04H191.089V36.778C191.089 37.8433 191.27 38.682 191.633 39.294C191.996 39.906 192.642 40.212 193.571 40.212H195.645C195.872 40.212 196.053 40.2913 196.189 40.45C196.348 40.586 196.427 40.7673 196.427 40.994V42.218C196.427 42.4447 196.348 42.6373 196.189 42.796C196.053 42.932 195.872 43 195.645 43H193.299Z" fill="white"/>
</svg>
