<svg width="180" height="65" viewBox="0 0 180 65" fill="none" xmlns="http://www.w3.org/2000/svg">
<path d="M0 32.5C0 14.5507 14.5507 0 32.5 0H147.5C165.449 0 180 14.5507 180 32.5C180 50.4493 165.449 65 147.5 65H32.5C14.5508 65 0 50.4493 0 32.5Z" fill="#2B2828"/>
<path d="M35.74 43C35.4907 43 35.298 42.932 35.162 42.796C35.026 42.6373 34.958 42.4447 34.958 42.218V20.016C34.958 19.7667 35.026 19.574 35.162 19.438C35.298 19.2793 35.4907 19.2 35.74 19.2H44.376C46.0533 19.2 47.504 19.472 48.728 20.016C49.9747 20.56 50.938 21.376 51.618 22.464C52.298 23.5293 52.638 24.8667 52.638 26.476C52.638 28.0853 52.298 29.4227 51.618 30.488C50.938 31.5533 49.9747 32.358 48.728 32.902C47.504 33.446 46.0533 33.718 44.376 33.718H38.358V42.218C38.358 42.4447 38.2787 42.6373 38.12 42.796C37.984 42.932 37.7913 43 37.542 43H35.74ZM38.324 30.862H44.206C45.8833 30.862 47.1413 30.488 47.98 29.74C48.8187 28.992 49.238 27.904 49.238 26.476C49.238 25.0707 48.83 23.9827 48.014 23.212C47.198 22.4413 45.9287 22.056 44.206 22.056H38.324V30.862ZM59.4245 49.46C59.2431 49.46 59.0845 49.392 58.9485 49.256C58.8125 49.12 58.7445 48.9613 58.7445 48.78C58.7445 48.6893 58.7558 48.5987 58.7785 48.508C58.8011 48.4173 58.8465 48.304 58.9145 48.168L61.5325 41.946L55.0385 26.612C54.9251 26.34 54.8685 26.1473 54.8685 26.034C54.8685 25.83 54.9365 25.66 55.0725 25.524C55.2085 25.388 55.3785 25.32 55.5825 25.32H57.2485C57.4751 25.32 57.6565 25.3767 57.7925 25.49C57.9285 25.6033 58.0191 25.7393 58.0645 25.898L63.2325 38.274L68.5365 25.898C68.6045 25.7393 68.6951 25.6033 68.8085 25.49C68.9445 25.3767 69.1371 25.32 69.3865 25.32H70.9845C71.1885 25.32 71.3585 25.388 71.4945 25.524C71.6305 25.66 71.6985 25.8187 71.6985 26C71.6985 26.1133 71.6418 26.3173 71.5285 26.612L61.8725 48.882C61.8045 49.0407 61.7025 49.1767 61.5665 49.29C61.4531 49.4033 61.2718 49.46 61.0225 49.46H59.4245ZM81.959 43C80.6897 43 79.6583 42.762 78.865 42.286C78.0717 41.7873 77.4937 41.096 77.131 40.212C76.7683 39.3053 76.587 38.24 76.587 37.016V28.04H73.935C73.7083 28.04 73.5157 27.972 73.357 27.836C73.221 27.6773 73.153 27.4847 73.153 27.258V26.102C73.153 25.8753 73.221 25.694 73.357 25.558C73.5157 25.3993 73.7083 25.32 73.935 25.32H76.587V19.642C76.587 19.4153 76.655 19.234 76.791 19.098C76.9497 18.9393 77.1423 18.86 77.369 18.86H78.967C79.1937 18.86 79.375 18.9393 79.511 19.098C79.6697 19.234 79.749 19.4153 79.749 19.642V25.32H83.965C84.1917 25.32 84.373 25.3993 84.509 25.558C84.6677 25.694 84.747 25.8753 84.747 26.102V27.258C84.747 27.4847 84.6677 27.6773 84.509 27.836C84.373 27.972 84.1917 28.04 83.965 28.04H79.749V36.778C79.749 37.8433 79.9303 38.682 80.293 39.294C80.6557 39.906 81.3017 40.212 82.231 40.212H84.305C84.5317 40.212 84.713 40.2913 84.849 40.45C85.0077 40.586 85.087 40.7673 85.087 40.994V42.218C85.087 42.4447 85.0077 42.6373 84.849 42.796C84.713 42.932 84.5317 43 84.305 43H81.959ZM89.1543 43C88.9276 43 88.7349 42.932 88.5763 42.796C88.4403 42.6373 88.3723 42.4447 88.3723 42.218V19.642C88.3723 19.4153 88.4403 19.234 88.5763 19.098C88.7349 18.9393 88.9276 18.86 89.1543 18.86H90.8543C91.1036 18.86 91.2963 18.9393 91.4323 19.098C91.5683 19.234 91.6363 19.4153 91.6363 19.642V27.564C92.2483 26.7933 92.9963 26.17 93.8803 25.694C94.7643 25.218 95.8863 24.98 97.2463 24.98C98.7196 24.98 99.9663 25.3087 100.986 25.966C102.029 26.6007 102.811 27.496 103.332 28.652C103.876 29.7853 104.148 31.1113 104.148 32.63V42.218C104.148 42.4447 104.08 42.6373 103.944 42.796C103.808 42.932 103.616 43 103.366 43H101.666C101.44 43 101.247 42.932 101.088 42.796C100.952 42.6373 100.884 42.4447 100.884 42.218V32.8C100.884 31.2133 100.499 29.978 99.7283 29.094C98.9576 28.1873 97.8243 27.734 96.3283 27.734C94.9229 27.734 93.7896 28.1873 92.9283 29.094C92.0669 29.978 91.6363 31.2133 91.6363 32.8V42.218C91.6363 42.4447 91.5683 42.6373 91.4323 42.796C91.2963 42.932 91.1036 43 90.8543 43H89.1543ZM116.299 43.34C114.576 43.34 113.137 43.0113 111.981 42.354C110.825 41.6967 109.941 40.79 109.329 39.634C108.717 38.4553 108.377 37.118 108.309 35.622C108.286 35.2367 108.275 34.7493 108.275 34.16C108.275 33.548 108.286 33.0607 108.309 32.698C108.377 31.1793 108.717 29.842 109.329 28.686C109.964 27.53 110.859 26.6233 112.015 25.966C113.171 25.3087 114.599 24.98 116.299 24.98C117.999 24.98 119.427 25.3087 120.583 25.966C121.739 26.6233 122.623 27.53 123.235 28.686C123.87 29.842 124.221 31.1793 124.289 32.698C124.312 33.0607 124.323 33.548 124.323 34.16C124.323 34.7493 124.312 35.2367 124.289 35.622C124.221 37.118 123.881 38.4553 123.269 39.634C122.657 40.79 121.773 41.6967 120.617 42.354C119.461 43.0113 118.022 43.34 116.299 43.34ZM116.299 40.722C117.704 40.722 118.826 40.28 119.665 39.396C120.504 38.4893 120.957 37.1747 121.025 35.452C121.048 35.112 121.059 34.6813 121.059 34.16C121.059 33.6387 121.048 33.208 121.025 32.868C120.957 31.1453 120.504 29.842 119.665 28.958C118.826 28.0513 117.704 27.598 116.299 27.598C114.894 27.598 113.76 28.0513 112.899 28.958C112.06 29.842 111.618 31.1453 111.573 32.868C111.55 33.208 111.539 33.6387 111.539 34.16C111.539 34.6813 111.55 35.112 111.573 35.452C111.618 37.1747 112.06 38.4893 112.899 39.396C113.76 40.28 114.894 40.722 116.299 40.722ZM129.362 43C129.136 43 128.943 42.932 128.784 42.796C128.648 42.6373 128.58 42.4447 128.58 42.218V26.102C128.58 25.8753 128.648 25.694 128.784 25.558C128.943 25.3993 129.136 25.32 129.362 25.32H130.96C131.187 25.32 131.368 25.3993 131.504 25.558C131.663 25.694 131.742 25.8753 131.742 26.102V27.598C132.332 26.8273 133.068 26.204 133.952 25.728C134.859 25.2293 136.015 24.98 137.42 24.98C138.894 24.98 140.14 25.3087 141.16 25.966C142.203 26.6007 142.985 27.496 143.506 28.652C144.028 29.7853 144.288 31.1113 144.288 32.63V42.218C144.288 42.4447 144.22 42.6373 144.084 42.796C143.948 42.932 143.767 43 143.54 43H141.84C141.614 43 141.421 42.932 141.262 42.796C141.126 42.6373 141.058 42.4447 141.058 42.218V32.8C141.058 31.2133 140.673 29.978 139.902 29.094C139.132 28.1873 137.998 27.734 136.502 27.734C135.097 27.734 133.964 28.1873 133.102 29.094C132.264 29.978 131.844 31.2133 131.844 32.8V42.218C131.844 42.4447 131.765 42.6373 131.606 42.796C131.47 42.932 131.289 43 131.062 43H129.362Z" fill="white"/>
</svg>
