<svg width="257" height="65" viewBox="0 0 257 65" fill="none" xmlns="http://www.w3.org/2000/svg">
<path d="M0 32.5C0 14.5507 14.5507 0 32.5 0H224.5C242.449 0 257 14.5507 257 32.5V32.5C257 50.4493 242.449 65 224.5 65H32.5C14.5507 65 0 50.4493 0 32.5V32.5Z" fill="#090909"/>
<path d="M28.36 43C28.1787 43 28.02 42.932 27.884 42.796C27.748 42.66 27.68 42.5013 27.68 42.32C27.68 42.2067 27.6913 42.082 27.714 41.946L36.146 19.948C36.2367 19.7213 36.3613 19.54 36.52 19.404C36.6787 19.268 36.9167 19.2 37.234 19.2H39.546C39.8407 19.2 40.0673 19.268 40.226 19.404C40.4073 19.54 40.5433 19.7213 40.634 19.948L49.032 41.946C49.0773 42.082 49.1 42.2067 49.1 42.32C49.1 42.5013 49.032 42.66 48.896 42.796C48.76 42.932 48.6013 43 48.42 43H46.686C46.414 43 46.21 42.932 46.074 42.796C45.9607 42.66 45.8813 42.5353 45.836 42.422L43.966 37.594H32.814L30.944 42.422C30.9213 42.5353 30.842 42.66 30.706 42.796C30.57 42.932 30.366 43 30.094 43H28.36ZM33.8 34.67H42.98L38.39 22.6L33.8 34.67ZM54.1461 43C53.9194 43 53.7267 42.932 53.5681 42.796C53.4321 42.6373 53.3641 42.4447 53.3641 42.218V28.04H50.4741C50.2474 28.04 50.0547 27.972 49.8961 27.836C49.7601 27.6773 49.6921 27.4847 49.6921 27.258V26.102C49.6921 25.8753 49.7601 25.694 49.8961 25.558C50.0547 25.3993 50.2474 25.32 50.4741 25.32H53.3641V23.62C53.3641 22.464 53.5567 21.4553 53.9421 20.594C54.3274 19.71 54.9394 19.03 55.7781 18.554C56.6394 18.078 57.7841 17.84 59.2121 17.84H61.2521C61.4787 17.84 61.6601 17.9193 61.7961 18.078C61.9321 18.214 62.0001 18.3953 62.0001 18.622V19.778C62.0001 20.0047 61.9321 20.1973 61.7961 20.356C61.6601 20.492 61.4787 20.56 61.2521 20.56H59.2801C58.2147 20.56 57.4894 20.8433 57.1041 21.41C56.7187 21.954 56.5261 22.7473 56.5261 23.79V25.32H60.9121C61.1387 25.32 61.3201 25.3993 61.4561 25.558C61.5921 25.694 61.6601 25.8753 61.6601 26.102V27.258C61.6601 27.4847 61.5921 27.6773 61.4561 27.836C61.3201 27.972 61.1387 28.04 60.9121 28.04H56.5261V42.218C56.5261 42.4447 56.4467 42.6373 56.2881 42.796C56.1521 42.932 55.9707 43 55.7441 43H54.1461ZM71.5801 43C70.3108 43 69.2794 42.762 68.4861 42.286C67.6928 41.7873 67.1148 41.096 66.7521 40.212C66.3894 39.3053 66.2081 38.24 66.2081 37.016V28.04H63.5561C63.3294 28.04 63.1368 27.972 62.9781 27.836C62.8421 27.6773 62.7741 27.4847 62.7741 27.258V26.102C62.7741 25.8753 62.8421 25.694 62.9781 25.558C63.1368 25.3993 63.3294 25.32 63.5561 25.32H66.2081V19.642C66.2081 19.4153 66.2761 19.234 66.4121 19.098C66.5708 18.9393 66.7634 18.86 66.9901 18.86H68.5881C68.8148 18.86 68.9961 18.9393 69.1321 19.098C69.2908 19.234 69.3701 19.4153 69.3701 19.642V25.32H73.5861C73.8128 25.32 73.9941 25.3993 74.1301 25.558C74.2888 25.694 74.3681 25.8753 74.3681 26.102V27.258C74.3681 27.4847 74.2888 27.6773 74.1301 27.836C73.9941 27.972 73.8128 28.04 73.5861 28.04H69.3701V36.778C69.3701 37.8433 69.5514 38.682 69.9141 39.294C70.2768 39.906 70.9228 40.212 71.8521 40.212H73.9261C74.1528 40.212 74.3341 40.2913 74.4701 40.45C74.6288 40.586 74.7081 40.7673 74.7081 40.994V42.218C74.7081 42.4447 74.6288 42.6373 74.4701 42.796C74.3341 42.932 74.1528 43 73.9261 43H71.5801ZM84.9974 43.34C82.6627 43.34 80.804 42.626 79.4214 41.198C78.0387 39.7473 77.2794 37.7753 77.1434 35.282C77.1207 34.9873 77.1094 34.6133 77.1094 34.16C77.1094 33.684 77.1207 33.2987 77.1434 33.004C77.234 31.3947 77.608 29.9893 78.2654 28.788C78.9227 27.564 79.818 26.6233 80.9514 25.966C82.1074 25.3087 83.456 24.98 84.9974 24.98C86.72 24.98 88.1594 25.3427 89.3154 26.068C90.494 26.7933 91.3894 27.8247 92.0014 29.162C92.6134 30.4993 92.9194 32.0633 92.9194 33.854V34.432C92.9194 34.6813 92.84 34.874 92.6814 35.01C92.5454 35.146 92.364 35.214 92.1374 35.214H80.3734C80.3734 35.2367 80.3734 35.282 80.3734 35.35C80.3734 35.418 80.3734 35.4747 80.3734 35.52C80.4187 36.4493 80.6227 37.322 80.9854 38.138C81.348 38.9313 81.8694 39.5773 82.5494 40.076C83.2294 40.5747 84.0454 40.824 84.9974 40.824C85.8134 40.824 86.4934 40.6993 87.0374 40.45C87.5814 40.2007 88.0234 39.9287 88.3634 39.634C88.7034 39.3167 88.93 39.0787 89.0434 38.92C89.2474 38.6253 89.406 38.4553 89.5194 38.41C89.6327 38.342 89.814 38.308 90.0634 38.308H91.6954C91.922 38.308 92.1034 38.376 92.2394 38.512C92.398 38.6253 92.466 38.7953 92.4434 39.022C92.4207 39.362 92.2394 39.7813 91.8994 40.28C91.5594 40.756 91.072 41.232 90.4374 41.708C89.8027 42.184 89.032 42.5807 88.1254 42.898C87.2187 43.1927 86.176 43.34 84.9974 43.34ZM80.3734 32.868H89.6894V32.766C89.6894 31.746 89.4967 30.8393 89.1114 30.046C88.7487 29.2527 88.216 28.6293 87.5134 28.176C86.8107 27.7 85.972 27.462 84.9974 27.462C84.0227 27.462 83.184 27.7 82.4814 28.176C81.8014 28.6293 81.28 29.2527 80.9174 30.046C80.5547 30.8393 80.3734 31.746 80.3734 32.766V32.868ZM97.7668 43C97.5401 43 97.3474 42.932 97.1888 42.796C97.0528 42.6373 96.9848 42.4447 96.9848 42.218V26.136C96.9848 25.9093 97.0528 25.7167 97.1888 25.558C97.3474 25.3993 97.5401 25.32 97.7668 25.32H99.3308C99.5574 25.32 99.7501 25.3993 99.9088 25.558C100.067 25.7167 100.147 25.9093 100.147 26.136V27.632C100.6 26.8613 101.223 26.2833 102.017 25.898C102.81 25.5127 103.762 25.32 104.873 25.32H106.233C106.459 25.32 106.641 25.3993 106.777 25.558C106.913 25.694 106.981 25.8753 106.981 26.102V27.496C106.981 27.7227 106.913 27.904 106.777 28.04C106.641 28.176 106.459 28.244 106.233 28.244H104.193C102.969 28.244 102.005 28.6067 101.303 29.332C100.6 30.0347 100.249 30.998 100.249 32.222V42.218C100.249 42.4447 100.169 42.6373 100.011 42.796C99.8521 42.932 99.6594 43 99.4328 43H97.7668ZM118.662 43C118.413 43 118.22 42.932 118.084 42.796C117.948 42.6373 117.88 42.4447 117.88 42.218V20.016C117.88 19.7667 117.948 19.574 118.084 19.438C118.22 19.2793 118.413 19.2 118.662 19.2H132.704C132.953 19.2 133.146 19.2793 133.282 19.438C133.418 19.574 133.486 19.7667 133.486 20.016V21.308C133.486 21.5573 133.418 21.75 133.282 21.886C133.146 22.022 132.953 22.09 132.704 22.09H121.144V29.536H131.956C132.205 29.536 132.398 29.6153 132.534 29.774C132.67 29.91 132.738 30.1027 132.738 30.352V31.61C132.738 31.8367 132.67 32.0293 132.534 32.188C132.398 32.324 132.205 32.392 131.956 32.392H121.144V40.11H132.976C133.225 40.11 133.418 40.178 133.554 40.314C133.69 40.45 133.758 40.6427 133.758 40.892V42.218C133.758 42.4447 133.69 42.6373 133.554 42.796C133.418 42.932 133.225 43 132.976 43H118.662ZM140.275 43C140.048 43 139.856 42.932 139.697 42.796C139.561 42.6373 139.493 42.4447 139.493 42.218V28.04H136.603C136.376 28.04 136.184 27.972 136.025 27.836C135.889 27.6773 135.821 27.4847 135.821 27.258V26.102C135.821 25.8753 135.889 25.694 136.025 25.558C136.184 25.3993 136.376 25.32 136.603 25.32H139.493V23.62C139.493 22.464 139.686 21.4553 140.071 20.594C140.456 19.71 141.068 19.03 141.907 18.554C142.768 18.078 143.913 17.84 145.341 17.84H147.381C147.608 17.84 147.789 17.9193 147.925 18.078C148.061 18.214 148.129 18.3953 148.129 18.622V19.778C148.129 20.0047 148.061 20.1973 147.925 20.356C147.789 20.492 147.608 20.56 147.381 20.56H145.409C144.344 20.56 143.618 20.8433 143.233 21.41C142.848 21.954 142.655 22.7473 142.655 23.79V25.32H149.931V23.62C149.931 22.464 150.112 21.4553 150.475 20.594C150.86 19.71 151.472 19.03 152.311 18.554C153.172 18.078 154.317 17.84 155.745 17.84H157.785C158.012 17.84 158.193 17.9193 158.329 18.078C158.488 18.214 158.567 18.3953 158.567 18.622V19.778C158.567 20.0047 158.488 20.1973 158.329 20.356C158.193 20.492 158.012 20.56 157.785 20.56H155.813C154.748 20.56 154.022 20.8433 153.637 21.41C153.252 21.954 153.059 22.7473 153.059 23.79V25.32H157.445C157.672 25.32 157.853 25.3993 157.989 25.558C158.148 25.694 158.227 25.8753 158.227 26.102V27.258C158.227 27.4847 158.148 27.6773 157.989 27.836C157.853 27.972 157.672 28.04 157.445 28.04H153.059V42.218C153.059 42.4447 152.991 42.6373 152.855 42.796C152.719 42.932 152.526 43 152.277 43H150.713C150.486 43 150.294 42.932 150.135 42.796C149.999 42.6373 149.931 42.4447 149.931 42.218V28.04H142.655V42.218C142.655 42.4447 142.576 42.6373 142.417 42.796C142.281 42.932 142.1 43 141.873 43H140.275ZM167.939 43.34C165.604 43.34 163.745 42.626 162.363 41.198C160.98 39.7473 160.221 37.7753 160.085 35.282C160.062 34.9873 160.051 34.6133 160.051 34.16C160.051 33.684 160.062 33.2987 160.085 33.004C160.175 31.3947 160.549 29.9893 161.207 28.788C161.864 27.564 162.759 26.6233 163.893 25.966C165.049 25.3087 166.397 24.98 167.939 24.98C169.661 24.98 171.101 25.3427 172.257 26.068C173.435 26.7933 174.331 27.8247 174.943 29.162C175.555 30.4993 175.861 32.0633 175.861 33.854V34.432C175.861 34.6813 175.781 34.874 175.623 35.01C175.487 35.146 175.305 35.214 175.079 35.214H163.315C163.315 35.2367 163.315 35.282 163.315 35.35C163.315 35.418 163.315 35.4747 163.315 35.52C163.36 36.4493 163.564 37.322 163.927 38.138C164.289 38.9313 164.811 39.5773 165.491 40.076C166.171 40.5747 166.987 40.824 167.939 40.824C168.755 40.824 169.435 40.6993 169.979 40.45C170.523 40.2007 170.965 39.9287 171.305 39.634C171.645 39.3167 171.871 39.0787 171.985 38.92C172.189 38.6253 172.347 38.4553 172.461 38.41C172.574 38.342 172.755 38.308 173.005 38.308H174.637C174.863 38.308 175.045 38.376 175.181 38.512C175.339 38.6253 175.407 38.7953 175.385 39.022C175.362 39.362 175.181 39.7813 174.841 40.28C174.501 40.756 174.013 41.232 173.379 41.708C172.744 42.184 171.973 42.5807 171.067 42.898C170.16 43.1927 169.117 43.34 167.939 43.34ZM163.315 32.868H172.631V32.766C172.631 31.746 172.438 30.8393 172.053 30.046C171.69 29.2527 171.157 28.6293 170.455 28.176C169.752 27.7 168.913 27.462 167.939 27.462C166.964 27.462 166.125 27.7 165.423 28.176C164.743 28.6293 164.221 29.2527 163.859 30.046C163.496 30.8393 163.315 31.746 163.315 32.766V32.868ZM187.066 43.34C185.457 43.34 184.063 43.034 182.884 42.422C181.728 41.7873 180.833 40.892 180.198 39.736C179.563 38.5573 179.223 37.152 179.178 35.52C179.155 35.18 179.144 34.7267 179.144 34.16C179.144 33.5933 179.155 33.14 179.178 32.8C179.223 31.168 179.563 29.774 180.198 28.618C180.833 27.4393 181.728 26.544 182.884 25.932C184.063 25.2973 185.457 24.98 187.066 24.98C188.381 24.98 189.503 25.1613 190.432 25.524C191.384 25.8867 192.166 26.3513 192.778 26.918C193.39 27.4847 193.843 28.0967 194.138 28.754C194.455 29.4113 194.625 30.0347 194.648 30.624C194.671 30.8507 194.603 31.032 194.444 31.168C194.285 31.304 194.093 31.372 193.866 31.372H192.234C192.007 31.372 191.837 31.3267 191.724 31.236C191.611 31.1227 191.497 30.9413 191.384 30.692C190.976 29.5813 190.421 28.7993 189.718 28.346C189.015 27.8927 188.143 27.666 187.1 27.666C185.74 27.666 184.629 28.0853 183.768 28.924C182.929 29.7627 182.476 31.1113 182.408 32.97C182.385 33.786 182.385 34.5793 182.408 35.35C182.476 37.2313 182.929 38.5913 183.768 39.43C184.629 40.246 185.74 40.654 187.1 40.654C188.143 40.654 189.015 40.4273 189.718 39.974C190.421 39.5207 190.976 38.7387 191.384 37.628C191.497 37.3787 191.611 37.2087 191.724 37.118C191.837 37.0047 192.007 36.948 192.234 36.948H193.866C194.093 36.948 194.285 37.016 194.444 37.152C194.603 37.288 194.671 37.4693 194.648 37.696C194.625 38.172 194.523 38.6593 194.342 39.158C194.161 39.6567 193.866 40.1667 193.458 40.688C193.073 41.1867 192.585 41.64 191.996 42.048C191.407 42.4333 190.693 42.7507 189.854 43C189.038 43.2267 188.109 43.34 187.066 43.34ZM205.588 43C204.319 43 203.287 42.762 202.494 42.286C201.701 41.7873 201.123 41.096 200.76 40.212C200.397 39.3053 200.216 38.24 200.216 37.016V28.04H197.564C197.337 28.04 197.145 27.972 196.986 27.836C196.85 27.6773 196.782 27.4847 196.782 27.258V26.102C196.782 25.8753 196.85 25.694 196.986 25.558C197.145 25.3993 197.337 25.32 197.564 25.32H200.216V19.642C200.216 19.4153 200.284 19.234 200.42 19.098C200.579 18.9393 200.771 18.86 200.998 18.86H202.596C202.823 18.86 203.004 18.9393 203.14 19.098C203.299 19.234 203.378 19.4153 203.378 19.642V25.32H207.594C207.821 25.32 208.002 25.3993 208.138 25.558C208.297 25.694 208.376 25.8753 208.376 26.102V27.258C208.376 27.4847 208.297 27.6773 208.138 27.836C208.002 27.972 207.821 28.04 207.594 28.04H203.378V36.778C203.378 37.8433 203.559 38.682 203.922 39.294C204.285 39.906 204.931 40.212 205.86 40.212H207.934C208.161 40.212 208.342 40.2913 208.478 40.45C208.637 40.586 208.716 40.7673 208.716 40.994V42.218C208.716 42.4447 208.637 42.6373 208.478 42.796C208.342 42.932 208.161 43 207.934 43H205.588ZM218.087 43.34C216.818 43.34 215.73 43.1813 214.823 42.864C213.917 42.5467 213.18 42.1613 212.613 41.708C212.047 41.2547 211.616 40.8013 211.321 40.348C211.049 39.8947 210.902 39.532 210.879 39.26C210.857 39.0107 210.936 38.818 211.117 38.682C211.299 38.546 211.48 38.478 211.661 38.478H213.157C213.293 38.478 213.395 38.5007 213.463 38.546C213.554 38.5687 213.667 38.6593 213.803 38.818C214.098 39.1353 214.427 39.4527 214.789 39.77C215.152 40.0873 215.594 40.348 216.115 40.552C216.659 40.756 217.328 40.858 218.121 40.858C219.277 40.858 220.229 40.6427 220.977 40.212C221.725 39.7587 222.099 39.1013 222.099 38.24C222.099 37.6733 221.941 37.22 221.623 36.88C221.329 36.54 220.785 36.234 219.991 35.962C219.221 35.69 218.155 35.4067 216.795 35.112C215.435 34.7947 214.359 34.4093 213.565 33.956C212.772 33.48 212.205 32.9247 211.865 32.29C211.525 31.6327 211.355 30.896 211.355 30.08C211.355 29.2413 211.605 28.4367 212.103 27.666C212.602 26.8727 213.327 26.2267 214.279 25.728C215.254 25.2293 216.467 24.98 217.917 24.98C219.096 24.98 220.105 25.1273 220.943 25.422C221.782 25.7167 222.473 26.0907 223.017 26.544C223.561 26.9747 223.969 27.4053 224.241 27.836C224.513 28.2667 224.661 28.6293 224.683 28.924C224.706 29.1507 224.638 29.3433 224.479 29.502C224.321 29.638 224.139 29.706 223.935 29.706H222.507C222.349 29.706 222.213 29.672 222.099 29.604C222.009 29.536 221.918 29.4567 221.827 29.366C221.601 29.0713 221.329 28.7767 221.011 28.482C220.717 28.1873 220.32 27.9493 219.821 27.768C219.345 27.564 218.711 27.462 217.917 27.462C216.784 27.462 215.934 27.7 215.367 28.176C214.801 28.652 214.517 29.2527 214.517 29.978C214.517 30.4087 214.642 30.794 214.891 31.134C215.141 31.474 215.617 31.78 216.319 32.052C217.022 32.324 218.065 32.6187 219.447 32.936C220.943 33.2307 222.122 33.6273 222.983 34.126C223.845 34.6247 224.457 35.2027 224.819 35.86C225.182 36.5173 225.363 37.2767 225.363 38.138C225.363 39.09 225.08 39.9627 224.513 40.756C223.969 41.5493 223.153 42.184 222.065 42.66C221 43.1133 219.674 43.34 218.087 43.34Z" fill="white"/>
</svg>
