<svg width="180" height="65" viewBox="0 0 180 65" fill="none" xmlns="http://www.w3.org/2000/svg">
<path d="M0 32.5C0 14.5507 14.5507 0 32.5 0H147.5C165.449 0 180 14.5507 180 32.5V32.5C180 50.4493 165.449 65 147.5 65H32.5C14.5508 65 0 50.4493 0 32.5V32.5Z" fill="#2B2828"/>
<path d="M41.526 43.34C39.4407 43.34 37.7067 42.9547 36.324 42.184C34.964 41.4133 33.9327 40.3367 33.23 38.954C32.5273 37.5713 32.142 35.962 32.074 34.126C32.0513 33.1967 32.04 32.1993 32.04 31.134C32.04 30.0687 32.0513 29.0487 32.074 28.074C32.142 26.238 32.5273 24.6287 33.23 23.246C33.9327 21.8633 34.964 20.7867 36.324 20.016C37.7067 19.2453 39.4407 18.86 41.526 18.86C43.09 18.86 44.4613 19.0753 45.64 19.506C46.8187 19.9367 47.7933 20.5147 48.564 21.24C49.3573 21.9653 49.958 22.7813 50.366 23.688C50.774 24.572 51.0007 25.49 51.046 26.442C51.0687 26.646 51.0007 26.816 50.842 26.952C50.706 27.088 50.536 27.156 50.332 27.156H48.462C48.258 27.156 48.0767 27.0993 47.918 26.986C47.782 26.8727 47.68 26.6687 47.612 26.374C47.2267 24.606 46.5013 23.3933 45.436 22.736C44.3933 22.0787 43.0787 21.75 41.492 21.75C39.6787 21.75 38.2393 22.2713 37.174 23.314C36.1087 24.334 35.5307 25.9773 35.44 28.244C35.372 30.1027 35.372 32.0067 35.44 33.956C35.5307 36.2227 36.1087 37.8773 37.174 38.92C38.2393 39.94 39.6787 40.45 41.492 40.45C43.0787 40.45 44.3933 40.1213 45.436 39.464C46.5013 38.8067 47.2267 37.594 47.612 35.826C47.68 35.5313 47.782 35.3273 47.918 35.214C48.0767 35.1007 48.258 35.044 48.462 35.044H50.332C50.536 35.044 50.706 35.112 50.842 35.248C51.0007 35.384 51.0687 35.554 51.046 35.758C51.0007 36.71 50.774 37.6393 50.366 38.546C49.958 39.43 49.3573 40.2347 48.564 40.96C47.7933 41.6853 46.8187 42.2633 45.64 42.694C44.4613 43.1247 43.09 43.34 41.526 43.34ZM60.0905 43.34C58.9572 43.34 57.9259 43.1133 56.9965 42.66C56.0672 42.2067 55.3192 41.5947 54.7525 40.824C54.1859 40.0533 53.9025 39.1807 53.9025 38.206C53.9025 36.642 54.5372 35.3953 55.8065 34.466C57.0759 33.5367 58.7305 32.9247 60.7705 32.63L65.8365 31.916V30.93C65.8365 29.842 65.5192 28.992 64.8845 28.38C64.2725 27.768 63.2639 27.462 61.8585 27.462C60.8385 27.462 60.0112 27.666 59.3765 28.074C58.7645 28.482 58.3339 29.0033 58.0845 29.638C57.9485 29.978 57.7105 30.148 57.3705 30.148H55.8405C55.5912 30.148 55.3985 30.08 55.2625 29.944C55.1492 29.7853 55.0925 29.604 55.0925 29.4C55.0925 29.06 55.2172 28.6407 55.4665 28.142C55.7385 27.6433 56.1465 27.156 56.6905 26.68C57.2345 26.204 57.9259 25.8073 58.7645 25.49C59.6259 25.15 60.6685 24.98 61.8925 24.98C63.2525 24.98 64.3972 25.1613 65.3265 25.524C66.2559 25.864 66.9812 26.3287 67.5025 26.918C68.0465 27.5073 68.4319 28.176 68.6585 28.924C68.9079 29.672 69.0325 30.4313 69.0325 31.202V42.218C69.0325 42.4447 68.9532 42.6373 68.7945 42.796C68.6585 42.932 68.4772 43 68.2505 43H66.6865C66.4372 43 66.2445 42.932 66.1085 42.796C65.9725 42.6373 65.9045 42.4447 65.9045 42.218V40.756C65.6099 41.164 65.2132 41.572 64.7145 41.98C64.2159 42.3653 63.5925 42.694 62.8445 42.966C62.0965 43.2153 61.1785 43.34 60.0905 43.34ZM60.8045 40.79C61.7339 40.79 62.5839 40.5973 63.3545 40.212C64.1252 39.804 64.7259 39.1807 65.1565 38.342C65.6099 37.5033 65.8365 36.4493 65.8365 35.18V34.228L61.8925 34.806C60.2832 35.0327 59.0705 35.418 58.2545 35.962C57.4385 36.4833 57.0305 37.152 57.0305 37.968C57.0305 38.6027 57.2119 39.1353 57.5745 39.566C57.9599 39.974 58.4359 40.28 59.0025 40.484C59.5919 40.688 60.1925 40.79 60.8045 40.79ZM74.7363 49.46C74.5096 49.46 74.317 49.3807 74.1583 49.222C74.0223 49.086 73.9543 48.9047 73.9543 48.678V26.102C73.9543 25.8753 74.0223 25.694 74.1583 25.558C74.317 25.3993 74.5096 25.32 74.7363 25.32H76.3003C76.527 25.32 76.7083 25.3993 76.8443 25.558C77.003 25.694 77.0823 25.8753 77.0823 26.102V27.598C77.6263 26.85 78.3516 26.2267 79.2583 25.728C80.165 25.2293 81.2983 24.98 82.6583 24.98C83.9276 24.98 85.0043 25.1953 85.8883 25.626C86.795 26.0567 87.5316 26.646 88.0983 27.394C88.6876 28.142 89.1296 28.992 89.4243 29.944C89.719 30.896 89.8776 31.916 89.9003 33.004C89.923 33.3667 89.9343 33.752 89.9343 34.16C89.9343 34.568 89.923 34.9533 89.9003 35.316C89.8776 36.3813 89.719 37.4013 89.4243 38.376C89.1296 39.328 88.6876 40.178 88.0983 40.926C87.5316 41.6513 86.795 42.2407 85.8883 42.694C85.0043 43.1247 83.9276 43.34 82.6583 43.34C81.3436 43.34 80.233 43.102 79.3263 42.626C78.4423 42.1273 77.717 41.5153 77.1503 40.79V48.678C77.1503 48.9047 77.0823 49.086 76.9463 49.222C76.8103 49.3807 76.6176 49.46 76.3683 49.46H74.7363ZM81.9443 40.586C83.123 40.586 84.041 40.3367 84.6983 39.838C85.3783 39.3167 85.8656 38.648 86.1603 37.832C86.455 36.9933 86.625 36.098 86.6703 35.146C86.693 34.4887 86.693 33.8313 86.6703 33.174C86.625 32.222 86.455 31.338 86.1603 30.522C85.8656 29.6833 85.3783 29.0147 84.6983 28.516C84.041 27.9947 83.123 27.734 81.9443 27.734C80.8336 27.734 79.927 27.9947 79.2243 28.516C78.5443 29.0373 78.0343 29.706 77.6943 30.522C77.377 31.3153 77.1956 32.1313 77.1503 32.97C77.1276 33.3327 77.1163 33.7633 77.1163 34.262C77.1163 34.7607 77.1276 35.2027 77.1503 35.588C77.173 36.3813 77.3543 37.1633 77.6943 37.934C78.057 38.7047 78.5896 39.3393 79.2923 39.838C79.995 40.3367 80.879 40.586 81.9443 40.586ZM103.184 43.34C101.099 43.34 99.3649 42.9547 97.9822 42.184C96.6222 41.4133 95.5909 40.3367 94.8882 38.954C94.1855 37.5713 93.8002 35.962 93.7322 34.126C93.7095 33.1967 93.6982 32.1993 93.6982 31.134C93.6982 30.0687 93.7095 29.0487 93.7322 28.074C93.8002 26.238 94.1855 24.6287 94.8882 23.246C95.5909 21.8633 96.6222 20.7867 97.9822 20.016C99.3649 19.2453 101.099 18.86 103.184 18.86C104.748 18.86 106.12 19.0753 107.298 19.506C108.477 19.9367 109.452 20.5147 110.222 21.24C111.016 21.9653 111.616 22.7813 112.024 23.688C112.432 24.572 112.659 25.49 112.704 26.442C112.727 26.646 112.659 26.816 112.5 26.952C112.364 27.088 112.194 27.156 111.99 27.156H110.12C109.916 27.156 109.735 27.0993 109.576 26.986C109.44 26.8727 109.338 26.6687 109.27 26.374C108.885 24.606 108.16 23.3933 107.094 22.736C106.052 22.0787 104.737 21.75 103.15 21.75C101.337 21.75 99.8975 22.2713 98.8322 23.314C97.7669 24.334 97.1889 25.9773 97.0982 28.244C97.0302 30.1027 97.0302 32.0067 97.0982 33.956C97.1889 36.2227 97.7669 37.8773 98.8322 38.92C99.8975 39.94 101.337 40.45 103.15 40.45C104.737 40.45 106.052 40.1213 107.094 39.464C108.16 38.8067 108.885 37.594 109.27 35.826C109.338 35.5313 109.44 35.3273 109.576 35.214C109.735 35.1007 109.916 35.044 110.12 35.044H111.99C112.194 35.044 112.364 35.112 112.5 35.248C112.659 35.384 112.727 35.554 112.704 35.758C112.659 36.71 112.432 37.6393 112.024 38.546C111.616 39.43 111.016 40.2347 110.222 40.96C109.452 41.6853 108.477 42.2633 107.298 42.694C106.12 43.1247 104.748 43.34 103.184 43.34ZM123.415 43.34C121.964 43.34 120.729 43.0227 119.709 42.388C118.711 41.7307 117.952 40.824 117.431 39.668C116.909 38.512 116.649 37.186 116.649 35.69V26.102C116.649 25.8753 116.717 25.694 116.853 25.558C117.011 25.3993 117.204 25.32 117.431 25.32H119.131C119.357 25.32 119.539 25.3993 119.675 25.558C119.833 25.694 119.913 25.8753 119.913 26.102V35.52C119.913 38.8973 121.386 40.586 124.333 40.586C125.738 40.586 126.86 40.144 127.699 39.26C128.56 38.3533 128.991 37.1067 128.991 35.52V26.102C128.991 25.8753 129.059 25.694 129.195 25.558C129.353 25.3993 129.546 25.32 129.773 25.32H131.439C131.688 25.32 131.881 25.3993 132.017 25.558C132.153 25.694 132.221 25.8753 132.221 26.102V42.218C132.221 42.4447 132.153 42.6373 132.017 42.796C131.881 42.932 131.688 43 131.439 43H129.875C129.648 43 129.455 42.932 129.297 42.796C129.161 42.6373 129.093 42.4447 129.093 42.218V40.722C128.481 41.5153 127.733 42.15 126.849 42.626C125.987 43.102 124.843 43.34 123.415 43.34ZM144.174 43C142.905 43 141.873 42.762 141.08 42.286C140.287 41.7873 139.709 41.096 139.346 40.212C138.983 39.3053 138.802 38.24 138.802 37.016V28.04H136.15C135.923 28.04 135.731 27.972 135.572 27.836C135.436 27.6773 135.368 27.4847 135.368 27.258V26.102C135.368 25.8753 135.436 25.694 135.572 25.558C135.731 25.3993 135.923 25.32 136.15 25.32H138.802V19.642C138.802 19.4153 138.87 19.234 139.006 19.098C139.165 18.9393 139.357 18.86 139.584 18.86H141.182C141.409 18.86 141.59 18.9393 141.726 19.098C141.885 19.234 141.964 19.4153 141.964 19.642V25.32H146.18C146.407 25.32 146.588 25.3993 146.724 25.558C146.883 25.694 146.962 25.8753 146.962 26.102V27.258C146.962 27.4847 146.883 27.6773 146.724 27.836C146.588 27.972 146.407 28.04 146.18 28.04H141.964V36.778C141.964 37.8433 142.145 38.682 142.508 39.294C142.871 39.906 143.517 40.212 144.446 40.212H146.52C146.747 40.212 146.928 40.2913 147.064 40.45C147.223 40.586 147.302 40.7673 147.302 40.994V42.218C147.302 42.4447 147.223 42.6373 147.064 42.796C146.928 42.932 146.747 43 146.52 43H144.174Z" fill="white"/>
</svg>
