<svg width="336" height="65" viewBox="0 0 336 65" fill="none" xmlns="http://www.w3.org/2000/svg">
<path d="M0 32C0 14.3269 14.3269 0 32 0H304C321.673 0 336 14.3269 336 32V33C336 50.6731 321.673 65 304 65H32C14.3269 65 0 50.6731 0 33V32Z" fill="#090909"/>
<path d="M17.36 43C17.1787 43 17.02 42.932 16.884 42.796C16.748 42.66 16.68 42.5013 16.68 42.32C16.68 42.2067 16.6913 42.082 16.714 41.946L25.146 19.948C25.2367 19.7213 25.3613 19.54 25.52 19.404C25.6787 19.268 25.9167 19.2 26.234 19.2H28.546C28.8407 19.2 29.0673 19.268 29.226 19.404C29.4073 19.54 29.5433 19.7213 29.634 19.948L38.032 41.946C38.0773 42.082 38.1 42.2067 38.1 42.32C38.1 42.5013 38.032 42.66 37.896 42.796C37.76 42.932 37.6013 43 37.42 43H35.686C35.414 43 35.21 42.932 35.074 42.796C34.9607 42.66 34.8813 42.5353 34.836 42.422L32.966 37.594H21.814L19.944 42.422C19.9213 42.5353 19.842 42.66 19.706 42.796C19.57 42.932 19.366 43 19.094 43H17.36ZM22.8 34.67H31.98L27.39 22.6L22.8 34.67ZM47.5541 43.34C46.3075 43.34 45.2308 43.1247 44.3241 42.694C43.4175 42.2407 42.6695 41.64 42.0801 40.892C41.5135 40.1213 41.0828 39.2487 40.7881 38.274C40.5161 37.2993 40.3575 36.268 40.3121 35.18C40.2895 34.8173 40.2781 34.4773 40.2781 34.16C40.2781 33.8427 40.2895 33.5027 40.3121 33.14C40.3575 32.0747 40.5161 31.0547 40.7881 30.08C41.0828 29.1053 41.5135 28.2327 42.0801 27.462C42.6695 26.6913 43.4175 26.0907 44.3241 25.66C45.2308 25.2067 46.3075 24.98 47.5541 24.98C48.8915 24.98 50.0021 25.218 50.8861 25.694C51.7701 26.17 52.4955 26.7593 53.0621 27.462V19.642C53.0621 19.4153 53.1301 19.234 53.2661 19.098C53.4248 18.9393 53.6175 18.86 53.8441 18.86H55.4761C55.7028 18.86 55.8841 18.9393 56.0201 19.098C56.1788 19.234 56.2581 19.4153 56.2581 19.642V42.218C56.2581 42.4447 56.1788 42.6373 56.0201 42.796C55.8841 42.932 55.7028 43 55.4761 43H53.9461C53.6968 43 53.5041 42.932 53.3681 42.796C53.2321 42.6373 53.1641 42.4447 53.1641 42.218V40.79C52.5975 41.5153 51.8608 42.1273 50.9541 42.626C50.0475 43.102 48.9141 43.34 47.5541 43.34ZM48.2681 40.586C49.4015 40.586 50.3081 40.3253 50.9881 39.804C51.6681 39.2827 52.1781 38.6253 52.5181 37.832C52.8581 37.016 53.0395 36.1887 53.0621 35.35C53.0848 34.9873 53.0961 34.5567 53.0961 34.058C53.0961 33.5367 53.0848 33.0947 53.0621 32.732C53.0395 31.9387 52.8468 31.1567 52.4841 30.386C52.1441 29.6153 51.6228 28.9807 50.9201 28.482C50.2401 27.9833 49.3561 27.734 48.2681 27.734C47.1121 27.734 46.1941 27.9947 45.5141 28.516C44.8341 29.0147 44.3468 29.6833 44.0521 30.522C43.7575 31.338 43.5875 32.222 43.5421 33.174C43.5195 33.8313 43.5195 34.4887 43.5421 35.146C43.5875 36.098 43.7575 36.9933 44.0521 37.832C44.3468 38.648 44.8341 39.3167 45.5141 39.838C46.1941 40.3367 47.1121 40.586 48.2681 40.586ZM68.5568 43.34C66.8342 43.34 65.3948 43.0113 64.2388 42.354C63.0828 41.6967 62.1988 40.79 61.5868 39.634C60.9748 38.4553 60.6348 37.118 60.5668 35.622C60.5442 35.2367 60.5328 34.7493 60.5328 34.16C60.5328 33.548 60.5442 33.0607 60.5668 32.698C60.6348 31.1793 60.9748 29.842 61.5868 28.686C62.2215 27.53 63.1168 26.6233 64.2728 25.966C65.4288 25.3087 66.8568 24.98 68.5568 24.98C70.2568 24.98 71.6848 25.3087 72.8408 25.966C73.9968 26.6233 74.8808 27.53 75.4928 28.686C76.1275 29.842 76.4788 31.1793 76.5468 32.698C76.5695 33.0607 76.5808 33.548 76.5808 34.16C76.5808 34.7493 76.5695 35.2367 76.5468 35.622C76.4788 37.118 76.1388 38.4553 75.5268 39.634C74.9148 40.79 74.0308 41.6967 72.8748 42.354C71.7188 43.0113 70.2795 43.34 68.5568 43.34ZM68.5568 40.722C69.9622 40.722 71.0842 40.28 71.9228 39.396C72.7615 38.4893 73.2148 37.1747 73.2828 35.452C73.3055 35.112 73.3168 34.6813 73.3168 34.16C73.3168 33.6387 73.3055 33.208 73.2828 32.868C73.2148 31.1453 72.7615 29.842 71.9228 28.958C71.0842 28.0513 69.9622 27.598 68.5568 27.598C67.1515 27.598 66.0182 28.0513 65.1568 28.958C64.3182 29.842 63.8762 31.1453 63.8308 32.868C63.8082 33.208 63.7968 33.6387 63.7968 34.16C63.7968 34.6813 63.8082 35.112 63.8308 35.452C63.8762 37.1747 64.3182 38.4893 65.1568 39.396C66.0182 40.28 67.1515 40.722 68.5568 40.722ZM89.5763 43.34C88.2163 43.34 87.0829 43.102 86.1763 42.626C85.2696 42.1273 84.5443 41.5153 84.0003 40.79V42.218C84.0003 42.4447 83.9209 42.6373 83.7623 42.796C83.6263 42.932 83.4449 43 83.2183 43H81.6543C81.4276 43 81.2349 42.932 81.0763 42.796C80.9403 42.6373 80.8723 42.4447 80.8723 42.218V19.642C80.8723 19.4153 80.9403 19.234 81.0763 19.098C81.2349 18.9393 81.4276 18.86 81.6543 18.86H83.2863C83.5356 18.86 83.7283 18.9393 83.8643 19.098C84.0003 19.234 84.0683 19.4153 84.0683 19.642V27.462C84.6349 26.7593 85.3603 26.17 86.2443 25.694C87.1509 25.218 88.2616 24.98 89.5763 24.98C90.8456 24.98 91.9223 25.2067 92.8063 25.66C93.7129 26.0907 94.4496 26.6913 95.0163 27.462C95.6056 28.2327 96.0476 29.1053 96.3423 30.08C96.6369 31.0547 96.7956 32.0747 96.8183 33.14C96.8409 33.5027 96.8523 33.8427 96.8523 34.16C96.8523 34.4773 96.8409 34.8173 96.8183 35.18C96.7956 36.268 96.6369 37.2993 96.3423 38.274C96.0476 39.2487 95.6056 40.1213 95.0163 40.892C94.4496 41.64 93.7129 42.2407 92.8063 42.694C91.9223 43.1247 90.8456 43.34 89.5763 43.34ZM88.8623 40.586C90.0409 40.586 90.9589 40.3367 91.6163 39.838C92.2963 39.3167 92.7836 38.648 93.0783 37.832C93.3729 36.9933 93.5429 36.098 93.5883 35.146C93.6109 34.4887 93.6109 33.8313 93.5883 33.174C93.5429 32.222 93.3729 31.338 93.0783 30.522C92.7836 29.6833 92.2963 29.0147 91.6163 28.516C90.9589 27.9947 90.0409 27.734 88.8623 27.734C87.7969 27.734 86.9129 27.9833 86.2103 28.482C85.5076 28.9807 84.9749 29.6153 84.6123 30.386C84.2723 31.1567 84.0909 31.9387 84.0683 32.732C84.0456 33.0947 84.0343 33.5367 84.0343 34.058C84.0343 34.5567 84.0456 34.9873 84.0683 35.35C84.1136 36.1887 84.2949 37.016 84.6123 37.832C84.9523 38.6253 85.4623 39.2827 86.1423 39.804C86.8449 40.3253 87.7516 40.586 88.8623 40.586ZM108.097 43.34C105.762 43.34 103.904 42.626 102.521 41.198C101.138 39.7473 100.379 37.7753 100.243 35.282C100.22 34.9873 100.209 34.6133 100.209 34.16C100.209 33.684 100.22 33.2987 100.243 33.004C100.334 31.3947 100.708 29.9893 101.365 28.788C102.022 27.564 102.918 26.6233 104.051 25.966C105.207 25.3087 106.556 24.98 108.097 24.98C109.82 24.98 111.259 25.3427 112.415 26.068C113.594 26.7933 114.489 27.8247 115.101 29.162C115.713 30.4993 116.019 32.0633 116.019 33.854V34.432C116.019 34.6813 115.94 34.874 115.781 35.01C115.645 35.146 115.464 35.214 115.237 35.214H103.473C103.473 35.2367 103.473 35.282 103.473 35.35C103.473 35.418 103.473 35.4747 103.473 35.52C103.518 36.4493 103.722 37.322 104.085 38.138C104.448 38.9313 104.969 39.5773 105.649 40.076C106.329 40.5747 107.145 40.824 108.097 40.824C108.913 40.824 109.593 40.6993 110.137 40.45C110.681 40.2007 111.123 39.9287 111.463 39.634C111.803 39.3167 112.03 39.0787 112.143 38.92C112.347 38.6253 112.506 38.4553 112.619 38.41C112.732 38.342 112.914 38.308 113.163 38.308H114.795C115.022 38.308 115.203 38.376 115.339 38.512C115.498 38.6253 115.566 38.7953 115.543 39.022C115.52 39.362 115.339 39.7813 114.999 40.28C114.659 40.756 114.172 41.232 113.537 41.708C112.902 42.184 112.132 42.5807 111.225 42.898C110.318 43.1927 109.276 43.34 108.097 43.34ZM103.473 32.868H112.789V32.766C112.789 31.746 112.596 30.8393 112.211 30.046C111.848 29.2527 111.316 28.6293 110.613 28.176C109.91 27.7 109.072 27.462 108.097 27.462C107.122 27.462 106.284 27.7 105.581 28.176C104.901 28.6293 104.38 29.2527 104.017 30.046C103.654 30.8393 103.473 31.746 103.473 32.766V32.868ZM129.642 43C129.393 43 129.2 42.932 129.064 42.796C128.928 42.6373 128.86 42.4447 128.86 42.218V20.016C128.86 19.7667 128.928 19.574 129.064 19.438C129.2 19.2793 129.393 19.2 129.642 19.2H138.278C139.956 19.2 141.406 19.472 142.63 20.016C143.877 20.56 144.84 21.376 145.52 22.464C146.2 23.5293 146.54 24.8667 146.54 26.476C146.54 28.0853 146.2 29.4227 145.52 30.488C144.84 31.5533 143.877 32.358 142.63 32.902C141.406 33.446 139.956 33.718 138.278 33.718H132.26V42.218C132.26 42.4447 132.181 42.6373 132.022 42.796C131.886 42.932 131.694 43 131.444 43H129.642ZM132.226 30.862H138.108C139.786 30.862 141.044 30.488 141.882 29.74C142.721 28.992 143.14 27.904 143.14 26.476C143.14 25.0707 142.732 23.9827 141.916 23.212C141.1 22.4413 139.831 22.056 138.108 22.056H132.226V30.862ZM151.015 43C150.788 43 150.595 42.932 150.437 42.796C150.301 42.6373 150.233 42.4447 150.233 42.218V26.136C150.233 25.9093 150.301 25.7167 150.437 25.558C150.595 25.3993 150.788 25.32 151.015 25.32H152.579C152.805 25.32 152.998 25.3993 153.157 25.558C153.315 25.7167 153.395 25.9093 153.395 26.136V27.632C153.848 26.8613 154.471 26.2833 155.265 25.898C156.058 25.5127 157.01 25.32 158.121 25.32H159.481C159.707 25.32 159.889 25.3993 160.025 25.558C160.161 25.694 160.229 25.8753 160.229 26.102V27.496C160.229 27.7227 160.161 27.904 160.025 28.04C159.889 28.176 159.707 28.244 159.481 28.244H157.441C156.217 28.244 155.253 28.6067 154.551 29.332C153.848 30.0347 153.497 30.998 153.497 32.222V42.218C153.497 42.4447 153.417 42.6373 153.259 42.796C153.1 42.932 152.907 43 152.681 43H151.015ZM169.855 43.34C167.52 43.34 165.661 42.626 164.279 41.198C162.896 39.7473 162.137 37.7753 162.001 35.282C161.978 34.9873 161.967 34.6133 161.967 34.16C161.967 33.684 161.978 33.2987 162.001 33.004C162.091 31.3947 162.465 29.9893 163.123 28.788C163.78 27.564 164.675 26.6233 165.809 25.966C166.965 25.3087 168.313 24.98 169.855 24.98C171.577 24.98 173.017 25.3427 174.173 26.068C175.351 26.7933 176.247 27.8247 176.859 29.162C177.471 30.4993 177.777 32.0633 177.777 33.854V34.432C177.777 34.6813 177.697 34.874 177.539 35.01C177.403 35.146 177.221 35.214 176.995 35.214H165.231C165.231 35.2367 165.231 35.282 165.231 35.35C165.231 35.418 165.231 35.4747 165.231 35.52C165.276 36.4493 165.48 37.322 165.843 38.138C166.205 38.9313 166.727 39.5773 167.407 40.076C168.087 40.5747 168.903 40.824 169.855 40.824C170.671 40.824 171.351 40.6993 171.895 40.45C172.439 40.2007 172.881 39.9287 173.221 39.634C173.561 39.3167 173.787 39.0787 173.901 38.92C174.105 38.6253 174.263 38.4553 174.377 38.41C174.49 38.342 174.671 38.308 174.921 38.308H176.553C176.779 38.308 176.961 38.376 177.097 38.512C177.255 38.6253 177.323 38.7953 177.301 39.022C177.278 39.362 177.097 39.7813 176.757 40.28C176.417 40.756 175.929 41.232 175.295 41.708C174.66 42.184 173.889 42.5807 172.983 42.898C172.076 43.1927 171.033 43.34 169.855 43.34ZM165.231 32.868H174.547V32.766C174.547 31.746 174.354 30.8393 173.969 30.046C173.606 29.2527 173.073 28.6293 172.371 28.176C171.668 27.7 170.829 27.462 169.855 27.462C168.88 27.462 168.041 27.7 167.339 28.176C166.659 28.6293 166.137 29.2527 165.775 30.046C165.412 30.8393 165.231 31.746 165.231 32.766V32.868ZM182.624 43C182.398 43 182.205 42.932 182.046 42.796C181.91 42.6373 181.842 42.4447 181.842 42.218V26.102C181.842 25.8753 181.91 25.694 182.046 25.558C182.205 25.3993 182.398 25.32 182.624 25.32H184.154C184.381 25.32 184.562 25.3993 184.698 25.558C184.857 25.694 184.936 25.8753 184.936 26.102V27.292C185.458 26.5893 186.115 26.034 186.908 25.626C187.702 25.1953 188.654 24.98 189.764 24.98C192.326 24.9573 194.139 26 195.204 28.108C195.726 27.156 196.485 26.3967 197.482 25.83C198.48 25.2633 199.613 24.98 200.882 24.98C202.061 24.98 203.126 25.252 204.078 25.796C205.053 26.34 205.812 27.1673 206.356 28.278C206.923 29.366 207.206 30.7373 207.206 32.392V42.218C207.206 42.4447 207.127 42.6373 206.968 42.796C206.832 42.932 206.651 43 206.424 43H204.826C204.6 43 204.407 42.932 204.248 42.796C204.112 42.6373 204.044 42.4447 204.044 42.218V32.698C204.044 31.4287 203.863 30.4313 203.5 29.706C203.138 28.9807 202.65 28.4707 202.038 28.176C201.426 27.8813 200.758 27.734 200.032 27.734C199.443 27.734 198.842 27.8813 198.23 28.176C197.618 28.4707 197.108 28.9807 196.7 29.706C196.315 30.4313 196.122 31.4287 196.122 32.698V42.218C196.122 42.4447 196.043 42.6373 195.884 42.796C195.748 42.932 195.567 43 195.34 43H193.742C193.516 43 193.323 42.932 193.164 42.796C193.028 42.6373 192.96 42.4447 192.96 42.218V32.698C192.96 31.4287 192.768 30.4313 192.382 29.706C191.997 28.9807 191.498 28.4707 190.886 28.176C190.274 27.8813 189.628 27.734 188.948 27.734C188.359 27.734 187.758 27.8813 187.146 28.176C186.534 28.4707 186.024 28.9807 185.616 29.706C185.231 30.4313 185.038 31.4173 185.038 32.664V42.218C185.038 42.4447 184.959 42.6373 184.8 42.796C184.664 42.932 184.483 43 184.256 43H182.624ZM212.839 43C212.612 43 212.42 42.932 212.261 42.796C212.125 42.6373 212.057 42.4447 212.057 42.218V26.102C212.057 25.8753 212.125 25.694 212.261 25.558C212.42 25.3993 212.612 25.32 212.839 25.32H214.471C214.698 25.32 214.879 25.3993 215.015 25.558C215.151 25.694 215.219 25.8753 215.219 26.102V42.218C215.219 42.4447 215.151 42.6373 215.015 42.796C214.879 42.932 214.698 43 214.471 43H212.839ZM212.567 22.022C212.34 22.022 212.148 21.954 211.989 21.818C211.853 21.6593 211.785 21.4667 211.785 21.24V19.404C211.785 19.1773 211.853 18.996 211.989 18.86C212.148 18.7013 212.34 18.622 212.567 18.622H214.709C214.936 18.622 215.117 18.7013 215.253 18.86C215.412 18.996 215.491 19.1773 215.491 19.404V21.24C215.491 21.4667 215.412 21.6593 215.253 21.818C215.117 21.954 214.936 22.022 214.709 22.022H212.567ZM227.329 43.34C224.995 43.34 223.136 42.626 221.753 41.198C220.371 39.7473 219.611 37.7753 219.475 35.282C219.453 34.9873 219.441 34.6133 219.441 34.16C219.441 33.684 219.453 33.2987 219.475 33.004C219.566 31.3947 219.94 29.9893 220.597 28.788C221.255 27.564 222.15 26.6233 223.283 25.966C224.439 25.3087 225.788 24.98 227.329 24.98C229.052 24.98 230.491 25.3427 231.647 26.068C232.826 26.7933 233.721 27.8247 234.333 29.162C234.945 30.4993 235.251 32.0633 235.251 33.854V34.432C235.251 34.6813 235.172 34.874 235.013 35.01C234.877 35.146 234.696 35.214 234.469 35.214H222.705C222.705 35.2367 222.705 35.282 222.705 35.35C222.705 35.418 222.705 35.4747 222.705 35.52C222.751 36.4493 222.955 37.322 223.317 38.138C223.68 38.9313 224.201 39.5773 224.881 40.076C225.561 40.5747 226.377 40.824 227.329 40.824C228.145 40.824 228.825 40.6993 229.369 40.45C229.913 40.2007 230.355 39.9287 230.695 39.634C231.035 39.3167 231.262 39.0787 231.375 38.92C231.579 38.6253 231.738 38.4553 231.851 38.41C231.965 38.342 232.146 38.308 232.395 38.308H234.027C234.254 38.308 234.435 38.376 234.571 38.512C234.73 38.6253 234.798 38.7953 234.775 39.022C234.753 39.362 234.571 39.7813 234.231 40.28C233.891 40.756 233.404 41.232 232.769 41.708C232.135 42.184 231.364 42.5807 230.457 42.898C229.551 43.1927 228.508 43.34 227.329 43.34ZM222.705 32.868H232.021V32.766C232.021 31.746 231.829 30.8393 231.443 30.046C231.081 29.2527 230.548 28.6293 229.845 28.176C229.143 27.7 228.304 27.462 227.329 27.462C226.355 27.462 225.516 27.7 224.813 28.176C224.133 28.6293 223.612 29.2527 223.249 30.046C222.887 30.8393 222.705 31.746 222.705 32.766V32.868ZM240.099 43C239.872 43 239.679 42.932 239.521 42.796C239.385 42.6373 239.317 42.4447 239.317 42.218V26.136C239.317 25.9093 239.385 25.7167 239.521 25.558C239.679 25.3993 239.872 25.32 240.099 25.32H241.663C241.889 25.32 242.082 25.3993 242.241 25.558C242.399 25.7167 242.479 25.9093 242.479 26.136V27.632C242.932 26.8613 243.555 26.2833 244.349 25.898C245.142 25.5127 246.094 25.32 247.205 25.32H248.565C248.791 25.32 248.973 25.3993 249.109 25.558C249.245 25.694 249.313 25.8753 249.313 26.102V27.496C249.313 27.7227 249.245 27.904 249.109 28.04C248.973 28.176 248.791 28.244 248.565 28.244H246.525C245.301 28.244 244.337 28.6067 243.635 29.332C242.932 30.0347 242.581 30.998 242.581 32.222V42.218C242.581 42.4447 242.501 42.6373 242.343 42.796C242.184 42.932 241.991 43 241.765 43H240.099ZM260.994 43C260.745 43 260.552 42.932 260.416 42.796C260.28 42.6373 260.212 42.4447 260.212 42.218V20.016C260.212 19.7667 260.28 19.574 260.416 19.438C260.552 19.2793 260.745 19.2 260.994 19.2H269.63C271.307 19.2 272.758 19.472 273.982 20.016C275.229 20.56 276.192 21.376 276.872 22.464C277.552 23.5293 277.892 24.8667 277.892 26.476C277.892 28.0853 277.552 29.4227 276.872 30.488C276.192 31.5533 275.229 32.358 273.982 32.902C272.758 33.446 271.307 33.718 269.63 33.718H263.612V42.218C263.612 42.4447 263.533 42.6373 263.374 42.796C263.238 42.932 263.045 43 262.796 43H260.994ZM263.578 30.862H269.46C271.137 30.862 272.395 30.488 273.234 29.74C274.073 28.992 274.492 27.904 274.492 26.476C274.492 25.0707 274.084 23.9827 273.268 23.212C272.452 22.4413 271.183 22.056 269.46 22.056H263.578V30.862ZM282.366 43C282.14 43 281.947 42.932 281.788 42.796C281.652 42.6373 281.584 42.4447 281.584 42.218V26.136C281.584 25.9093 281.652 25.7167 281.788 25.558C281.947 25.3993 282.14 25.32 282.366 25.32H283.93C284.157 25.32 284.35 25.3993 284.508 25.558C284.667 25.7167 284.746 25.9093 284.746 26.136V27.632C285.2 26.8613 285.823 26.2833 286.616 25.898C287.41 25.5127 288.362 25.32 289.472 25.32H290.832C291.059 25.32 291.24 25.3993 291.376 25.558C291.512 25.694 291.58 25.8753 291.58 26.102V27.496C291.58 27.7227 291.512 27.904 291.376 28.04C291.24 28.176 291.059 28.244 290.832 28.244H288.792C287.568 28.244 286.605 28.6067 285.902 29.332C285.2 30.0347 284.848 30.998 284.848 32.222V42.218C284.848 42.4447 284.769 42.6373 284.61 42.796C284.452 42.932 284.259 43 284.032 43H282.366ZM301.41 43.34C299.688 43.34 298.248 43.0113 297.092 42.354C295.936 41.6967 295.052 40.79 294.44 39.634C293.828 38.4553 293.488 37.118 293.42 35.622C293.398 35.2367 293.386 34.7493 293.386 34.16C293.386 33.548 293.398 33.0607 293.42 32.698C293.488 31.1793 293.828 29.842 294.44 28.686C295.075 27.53 295.97 26.6233 297.126 25.966C298.282 25.3087 299.71 24.98 301.41 24.98C303.11 24.98 304.538 25.3087 305.694 25.966C306.85 26.6233 307.734 27.53 308.346 28.686C308.981 29.842 309.332 31.1793 309.4 32.698C309.423 33.0607 309.434 33.548 309.434 34.16C309.434 34.7493 309.423 35.2367 309.4 35.622C309.332 37.118 308.992 38.4553 308.38 39.634C307.768 40.79 306.884 41.6967 305.728 42.354C304.572 43.0113 303.133 43.34 301.41 43.34ZM301.41 40.722C302.816 40.722 303.938 40.28 304.776 39.396C305.615 38.4893 306.068 37.1747 306.136 35.452C306.159 35.112 306.17 34.6813 306.17 34.16C306.17 33.6387 306.159 33.208 306.136 32.868C306.068 31.1453 305.615 29.842 304.776 28.958C303.938 28.0513 302.816 27.598 301.41 27.598C300.005 27.598 298.872 28.0513 298.01 28.958C297.172 29.842 296.73 31.1453 296.684 32.868C296.662 33.208 296.65 33.6387 296.65 34.16C296.65 34.6813 296.662 35.112 296.684 35.452C296.73 37.1747 297.172 38.4893 298.01 39.396C298.872 40.28 300.005 40.722 301.41 40.722Z" fill="white"/>
</svg>
