<svg width="220" height="65" viewBox="0 0 220 65" fill="none" xmlns="http://www.w3.org/2000/svg">
<path d="M0 32.5C0 14.5507 14.5507 0 32.5 0H187.5C205.449 0 220 14.5507 220 32.5V32.5C220 50.4493 205.449 65 187.5 65H32.5C14.5507 65 0 50.4493 0 32.5V32.5Z" fill="#090909"/>
<path d="M36.03 43C35.69 43 35.418 42.9207 35.214 42.762C35.0327 42.6033 34.8853 42.388 34.772 42.116L27.19 20.254C27.1447 20.118 27.122 19.9933 27.122 19.88C27.122 19.6987 27.19 19.54 27.326 19.404C27.462 19.268 27.6207 19.2 27.802 19.2H29.57C29.842 19.2 30.046 19.2793 30.182 19.438C30.3407 19.574 30.4313 19.6987 30.454 19.812L37.118 39.09L43.782 19.812C43.8273 19.6987 43.918 19.574 44.054 19.438C44.19 19.2793 44.394 19.2 44.666 19.2H46.434C46.6153 19.2 46.774 19.268 46.91 19.404C47.0687 19.54 47.148 19.6987 47.148 19.88C47.148 19.9933 47.1253 20.118 47.08 20.254L39.464 42.116C39.3733 42.388 39.226 42.6033 39.022 42.762C38.8407 42.9207 38.58 43 38.24 43H36.03ZM56.0403 43.34C53.7057 43.34 51.847 42.626 50.4643 41.198C49.0817 39.7473 48.3223 37.7753 48.1863 35.282C48.1637 34.9873 48.1523 34.6133 48.1523 34.16C48.1523 33.684 48.1637 33.2987 48.1863 33.004C48.277 31.3947 48.651 29.9893 49.3083 28.788C49.9657 27.564 50.861 26.6233 51.9943 25.966C53.1503 25.3087 54.499 24.98 56.0403 24.98C57.763 24.98 59.2023 25.3427 60.3583 26.068C61.537 26.7933 62.4323 27.8247 63.0443 29.162C63.6563 30.4993 63.9623 32.0633 63.9623 33.854V34.432C63.9623 34.6813 63.883 34.874 63.7243 35.01C63.5883 35.146 63.407 35.214 63.1803 35.214H51.4163C51.4163 35.2367 51.4163 35.282 51.4163 35.35C51.4163 35.418 51.4163 35.4747 51.4163 35.52C51.4617 36.4493 51.6657 37.322 52.0283 38.138C52.391 38.9313 52.9123 39.5773 53.5923 40.076C54.2723 40.5747 55.0883 40.824 56.0403 40.824C56.8563 40.824 57.5363 40.6993 58.0803 40.45C58.6243 40.2007 59.0663 39.9287 59.4063 39.634C59.7463 39.3167 59.973 39.0787 60.0863 38.92C60.2903 38.6253 60.449 38.4553 60.5623 38.41C60.6757 38.342 60.857 38.308 61.1063 38.308H62.7383C62.965 38.308 63.1463 38.376 63.2823 38.512C63.441 38.6253 63.509 38.7953 63.4863 39.022C63.4637 39.362 63.2823 39.7813 62.9423 40.28C62.6023 40.756 62.115 41.232 61.4803 41.708C60.8457 42.184 60.075 42.5807 59.1683 42.898C58.2617 43.1927 57.219 43.34 56.0403 43.34ZM51.4163 32.868H60.7323V32.766C60.7323 31.746 60.5397 30.8393 60.1543 30.046C59.7917 29.2527 59.259 28.6293 58.5563 28.176C57.8537 27.7 57.015 27.462 56.0403 27.462C55.0657 27.462 54.227 27.7 53.5243 28.176C52.8443 28.6293 52.323 29.2527 51.9603 30.046C51.5977 30.8393 51.4163 31.746 51.4163 32.766V32.868ZM75.2697 50.48C73.7284 50.48 72.4591 50.276 71.4617 49.868C70.4871 49.46 69.7164 48.9613 69.1497 48.372C68.6057 47.8053 68.2091 47.2273 67.9597 46.638C67.7331 46.0713 67.6084 45.618 67.5857 45.278C67.5631 45.0513 67.6311 44.8587 67.7897 44.7C67.9711 44.5413 68.1637 44.462 68.3677 44.462H69.9997C70.2037 44.462 70.3737 44.5073 70.5097 44.598C70.6457 44.6887 70.7591 44.8813 70.8497 45.176C70.9857 45.516 71.1897 45.89 71.4617 46.298C71.7337 46.7287 72.1531 47.0913 72.7197 47.386C73.2864 47.7033 74.0797 47.862 75.0997 47.862C76.1651 47.862 77.0604 47.7147 77.7857 47.42C78.5111 47.148 79.0551 46.6493 79.4177 45.924C79.8031 45.2213 79.9957 44.2467 79.9957 43V40.688C79.4517 41.3907 78.7377 41.98 77.8537 42.456C76.9697 42.9093 75.8591 43.136 74.5217 43.136C73.2524 43.136 72.1644 42.9207 71.2577 42.49C70.3511 42.0367 69.6031 41.436 69.0137 40.688C68.4471 39.9173 68.0164 39.0447 67.7217 38.07C67.4497 37.0953 67.2911 36.0753 67.2457 35.01C67.2231 34.3753 67.2231 33.752 67.2457 33.14C67.2911 32.0747 67.4497 31.0547 67.7217 30.08C68.0164 29.1053 68.4471 28.2327 69.0137 27.462C69.6031 26.6913 70.3511 26.0907 71.2577 25.66C72.1644 25.2067 73.2524 24.98 74.5217 24.98C75.8817 24.98 77.0037 25.2407 77.8877 25.762C78.7944 26.2607 79.5311 26.8727 80.0977 27.598V26.136C80.0977 25.9093 80.1657 25.7167 80.3017 25.558C80.4604 25.3993 80.6531 25.32 80.8797 25.32H82.4437C82.6704 25.32 82.8631 25.3993 83.0217 25.558C83.1804 25.7167 83.2597 25.9093 83.2597 26.136V42.626C83.2597 44.1447 82.9991 45.4933 82.4777 46.672C81.9791 47.8507 81.1404 48.78 79.9617 49.46C78.8057 50.14 77.2417 50.48 75.2697 50.48ZM75.2017 40.416C76.3351 40.416 77.2417 40.1553 77.9217 39.634C78.6244 39.1127 79.1344 38.4553 79.4517 37.662C79.7917 36.8687 79.9731 36.064 79.9957 35.248C80.0184 34.9307 80.0297 34.5453 80.0297 34.092C80.0297 33.616 80.0184 33.2193 79.9957 32.902C79.9731 32.086 79.7917 31.2813 79.4517 30.488C79.1344 29.6947 78.6244 29.0373 77.9217 28.516C77.2417 27.9947 76.3351 27.734 75.2017 27.734C74.0684 27.734 73.1617 27.9947 72.4817 28.516C71.8017 29.0147 71.3144 29.6833 71.0197 30.522C70.7251 31.338 70.5551 32.222 70.5097 33.174C70.4871 33.7633 70.4871 34.364 70.5097 34.976C70.5551 35.928 70.7251 36.8233 71.0197 37.662C71.3144 38.478 71.8017 39.1467 72.4817 39.668C73.1617 40.1667 74.0684 40.416 75.2017 40.416ZM93.2448 43.34C92.1115 43.34 91.0802 43.1133 90.1508 42.66C89.2215 42.2067 88.4735 41.5947 87.9068 40.824C87.3402 40.0533 87.0568 39.1807 87.0568 38.206C87.0568 36.642 87.6915 35.3953 88.9608 34.466C90.2302 33.5367 91.8848 32.9247 93.9248 32.63L98.9908 31.916V30.93C98.9908 29.842 98.6735 28.992 98.0388 28.38C97.4268 27.768 96.4182 27.462 95.0128 27.462C93.9928 27.462 93.1655 27.666 92.5308 28.074C91.9188 28.482 91.4882 29.0033 91.2388 29.638C91.1028 29.978 90.8648 30.148 90.5248 30.148H88.9948C88.7455 30.148 88.5528 30.08 88.4168 29.944C88.3035 29.7853 88.2468 29.604 88.2468 29.4C88.2468 29.06 88.3715 28.6407 88.6208 28.142C88.8928 27.6433 89.3008 27.156 89.8448 26.68C90.3888 26.204 91.0802 25.8073 91.9188 25.49C92.7802 25.15 93.8228 24.98 95.0468 24.98C96.4068 24.98 97.5515 25.1613 98.4808 25.524C99.4102 25.864 100.135 26.3287 100.657 26.918C101.201 27.5073 101.586 28.176 101.813 28.924C102.062 29.672 102.187 30.4313 102.187 31.202V42.218C102.187 42.4447 102.107 42.6373 101.949 42.796C101.813 42.932 101.631 43 101.405 43H99.8408C99.5915 43 99.3988 42.932 99.2628 42.796C99.1268 42.6373 99.0588 42.4447 99.0588 42.218V40.756C98.7642 41.164 98.3675 41.572 97.8688 41.98C97.3702 42.3653 96.7468 42.694 95.9988 42.966C95.2508 43.2153 94.3328 43.34 93.2448 43.34ZM93.9588 40.79C94.8882 40.79 95.7382 40.5973 96.5088 40.212C97.2795 39.804 97.8802 39.1807 98.3108 38.342C98.7642 37.5033 98.9908 36.4493 98.9908 35.18V34.228L95.0468 34.806C93.4375 35.0327 92.2248 35.418 91.4088 35.962C90.5928 36.4833 90.1848 37.152 90.1848 37.968C90.1848 38.6027 90.3662 39.1353 90.7288 39.566C91.1142 39.974 91.5902 40.28 92.1568 40.484C92.7462 40.688 93.3468 40.79 93.9588 40.79ZM113.195 43.34C111.925 43.34 110.837 43.1813 109.931 42.864C109.024 42.5467 108.287 42.1613 107.721 41.708C107.154 41.2547 106.723 40.8013 106.429 40.348C106.157 39.8947 106.009 39.532 105.987 39.26C105.964 39.0107 106.043 38.818 106.225 38.682C106.406 38.546 106.587 38.478 106.769 38.478H108.265C108.401 38.478 108.503 38.5007 108.571 38.546C108.661 38.5687 108.775 38.6593 108.911 38.818C109.205 39.1353 109.534 39.4527 109.897 39.77C110.259 40.0873 110.701 40.348 111.223 40.552C111.767 40.756 112.435 40.858 113.229 40.858C114.385 40.858 115.337 40.6427 116.085 40.212C116.833 39.7587 117.207 39.1013 117.207 38.24C117.207 37.6733 117.048 37.22 116.731 36.88C116.436 36.54 115.892 36.234 115.099 35.962C114.328 35.69 113.263 35.4067 111.903 35.112C110.543 34.7947 109.466 34.4093 108.673 33.956C107.879 33.48 107.313 32.9247 106.973 32.29C106.633 31.6327 106.463 30.896 106.463 30.08C106.463 29.2413 106.712 28.4367 107.211 27.666C107.709 26.8727 108.435 26.2267 109.387 25.728C110.361 25.2293 111.574 24.98 113.025 24.98C114.203 24.98 115.212 25.1273 116.051 25.422C116.889 25.7167 117.581 26.0907 118.125 26.544C118.669 26.9747 119.077 27.4053 119.349 27.836C119.621 28.2667 119.768 28.6293 119.791 28.924C119.813 29.1507 119.745 29.3433 119.587 29.502C119.428 29.638 119.247 29.706 119.043 29.706H117.615C117.456 29.706 117.32 29.672 117.207 29.604C117.116 29.536 117.025 29.4567 116.935 29.366C116.708 29.0713 116.436 28.7767 116.119 28.482C115.824 28.1873 115.427 27.9493 114.929 27.768C114.453 27.564 113.818 27.462 113.025 27.462C111.891 27.462 111.041 27.7 110.475 28.176C109.908 28.652 109.625 29.2527 109.625 29.978C109.625 30.4087 109.749 30.794 109.999 31.134C110.248 31.474 110.724 31.78 111.427 32.052C112.129 32.324 113.172 32.6187 114.555 32.936C116.051 33.2307 117.229 33.6273 118.091 34.126C118.952 34.6247 119.564 35.2027 119.927 35.86C120.289 36.5173 120.471 37.2767 120.471 38.138C120.471 39.09 120.187 39.9627 119.621 40.756C119.077 41.5493 118.261 42.184 117.173 42.66C116.107 43.1133 114.781 43.34 113.195 43.34ZM133.965 43C133.715 43 133.523 42.932 133.387 42.796C133.251 42.6373 133.183 42.4447 133.183 42.218V20.016C133.183 19.7667 133.251 19.574 133.387 19.438C133.523 19.2793 133.715 19.2 133.965 19.2H142.601C144.278 19.2 145.729 19.472 146.953 20.016C148.199 20.56 149.163 21.376 149.843 22.464C150.523 23.5293 150.863 24.8667 150.863 26.476C150.863 28.0853 150.523 29.4227 149.843 30.488C149.163 31.5533 148.199 32.358 146.953 32.902C145.729 33.446 144.278 33.718 142.601 33.718H136.583V42.218C136.583 42.4447 136.503 42.6373 136.345 42.796C136.209 42.932 136.016 43 135.767 43H133.965ZM136.549 30.862H142.431C144.108 30.862 145.366 30.488 146.205 29.74C147.043 28.992 147.463 27.904 147.463 26.476C147.463 25.0707 147.055 23.9827 146.239 23.212C145.423 22.4413 144.153 22.056 142.431 22.056H136.549V30.862ZM155.337 43C155.11 43 154.918 42.932 154.759 42.796C154.623 42.6373 154.555 42.4447 154.555 42.218V26.136C154.555 25.9093 154.623 25.7167 154.759 25.558C154.918 25.3993 155.11 25.32 155.337 25.32H156.901C157.128 25.32 157.32 25.3993 157.479 25.558C157.638 25.7167 157.717 25.9093 157.717 26.136V27.632C158.17 26.8613 158.794 26.2833 159.587 25.898C160.38 25.5127 161.332 25.32 162.443 25.32H163.803C164.03 25.32 164.211 25.3993 164.347 25.558C164.483 25.694 164.551 25.8753 164.551 26.102V27.496C164.551 27.7227 164.483 27.904 164.347 28.04C164.211 28.176 164.03 28.244 163.803 28.244H161.763C160.539 28.244 159.576 28.6067 158.873 29.332C158.17 30.0347 157.819 30.998 157.819 32.222V42.218C157.819 42.4447 157.74 42.6373 157.581 42.796C157.422 42.932 157.23 43 157.003 43H155.337ZM174.381 43.34C172.658 43.34 171.219 43.0113 170.063 42.354C168.907 41.6967 168.023 40.79 167.411 39.634C166.799 38.4553 166.459 37.118 166.391 35.622C166.368 35.2367 166.357 34.7493 166.357 34.16C166.357 33.548 166.368 33.0607 166.391 32.698C166.459 31.1793 166.799 29.842 167.411 28.686C168.046 27.53 168.941 26.6233 170.097 25.966C171.253 25.3087 172.681 24.98 174.381 24.98C176.081 24.98 177.509 25.3087 178.665 25.966C179.821 26.6233 180.705 27.53 181.317 28.686C181.952 29.842 182.303 31.1793 182.371 32.698C182.394 33.0607 182.405 33.548 182.405 34.16C182.405 34.7493 182.394 35.2367 182.371 35.622C182.303 37.118 181.963 38.4553 181.351 39.634C180.739 40.79 179.855 41.6967 178.699 42.354C177.543 43.0113 176.104 43.34 174.381 43.34ZM174.381 40.722C175.786 40.722 176.908 40.28 177.747 39.396C178.586 38.4893 179.039 37.1747 179.107 35.452C179.13 35.112 179.141 34.6813 179.141 34.16C179.141 33.6387 179.13 33.208 179.107 32.868C179.039 31.1453 178.586 29.842 177.747 28.958C176.908 28.0513 175.786 27.598 174.381 27.598C172.976 27.598 171.842 28.0513 170.981 28.958C170.142 29.842 169.7 31.1453 169.655 32.868C169.632 33.208 169.621 33.6387 169.621 34.16C169.621 34.6813 169.632 35.112 169.655 35.452C169.7 37.1747 170.142 38.4893 170.981 39.396C171.842 40.28 172.976 40.722 174.381 40.722Z" fill="white"/>
</svg>
